SplineFontDB: 3.2
FontName: SpecialElite-Regular
FullName: Special Elite Regular
FamilyName: Special Elite
Weight: Book
Copyright: Copyright (c) 2010 by Brian J. Bonislawsky DBA Astigmatic (AOETI). All rights reserved. Available under the Apache 2.0 licence.\nhttp://www.apache.org/licenses/LICENSE-2.0.html
Version: 1.000
ItalicAngle: 0
UnderlinePosition: -173
UnderlineWidth: 20
Ascent: 1440
Descent: 608
InvalidEm: 0
sfntRevision: 0x00010000
woffMajor: 1
woffMinor: 0
LayerCount: 2
Layer: 0 1 "Back" 1
Layer: 1 1 "Fore" 0
XUID: [1021 915 -872288336 1943]
StyleMap: 0x0040
FSType: 4
OS2Version: 3
OS2_WeightWidthSlopeOnly: 0
OS2_UseTypoMetrics: 0
CreationTime: 1302617100
ModificationTime: 1580209114
PfmFamily: 17
TTFWeight: 400
TTFWidth: 5
LineGap: 0
VLineGap: 0
Panose: 2 0 5 6 0 0 0 2 0 4
OS2TypoAscent: 1440
OS2TypoAOffset: 0
OS2TypoDescent: -608
OS2TypoDOffset: 0
OS2TypoLinegap: 0
OS2WinAscent: 1962
OS2WinAOffset: 0
OS2WinDescent: 699
OS2WinDOffset: 0
HheadAscent: 1962
HheadAOffset: 0
HheadDescent: -699
HheadDOffset: 0
OS2SubXSize: 700
OS2SubYSize: 650
OS2SubXOff: 0
OS2SubYOff: 140
OS2SupXSize: 700
OS2SupYSize: 650
OS2SupXOff: 0
OS2SupYOff: 477
OS2StrikeYSize: 102
OS2StrikeYPos: 512
OS2CapHeight: 1463
OS2XHeight: 1013
OS2Vendor: 'AOEF'
OS2CodePages: 00000093.00000000
OS2UnicodeRanges: a00000ef.4000004a.00000000.00000000
Lookup: 1 0 0 "'aalt' Access All Alternates in Latin lookup 0" { "'aalt' Access All Alternates in Latin lookup 0 subtable"  } ['aalt' ('latn' <'dflt' > ) ]
Lookup: 1 0 0 "'sups' Superscript in Latin lookup 1" { "'sups' Superscript in Latin lookup 1 subtable" ("superior") } ['sups' ('latn' <'dflt' > ) ]
Lookup: 4 0 1 "'liga' Standard Ligatures in Latin lookup 2" { "'liga' Standard Ligatures in Latin lookup 2 subtable"  } ['liga' ('latn' <'dflt' > ) ]
Lookup: 6 0 0 "'ordn' Ordinals in Latin lookup 3" { "'ordn' Ordinals in Latin lookup 3 subtable"  } ['ordn' ('latn' <'dflt' > ) ]

StartChar: .notdef
Encoding: 65536 -1 0
Width: 748
Flags: W
LayerCount: 2
Fore
SplineSet
68 0 m 1,0,-1
 68 1365 l 1,1,-1
 612 1365 l 1,2,-1
 612 0 l 1,3,-1
 68 0 l 1,0,-1
136 68 m 1,4,-1
 544 68 l 1,5,-1
 544 1297 l 1,6,-1
 136 1297 l 1,7,-1
 136 68 l 1,4,-1
EndSplineSet
Validated: 1
EndChar

StartChar: exclam
Encoding: 33 33 4
Width: 566
GlyphClass: 2
Flags: W
LayerCount: 2
Fore
SplineSet
423 1149 m 0,0,1
 423 1118 423 1118 420 1101 c 128,-1,2
 417 1084 417 1084 413 1073.5 c 128,-1,3
 409 1063 409 1063 405 1055 c 128,-1,4
 401 1047 401 1047 400 1034 c 0,5,6
 400 1023 400 1023 401 1013.5 c 128,-1,7
 402 1004 402 1004 402 993 c 0,8,9
 402 981 402 981 398 970 c 128,-1,10
 394 959 394 959 392 948 c 0,11,12
 386 922 386 922 385 895 c 128,-1,13
 384 868 384 868 384 840 c 0,14,15
 384 814 384 814 377 789.5 c 128,-1,16
 370 765 370 765 368 739 c 0,17,18
 368 730 368 730 369 720 c 128,-1,19
 370 710 370 710 370 700 c 256,20,21
 370 690 370 690 365.5 663 c 128,-1,22
 361 636 361 636 355.5 606.5 c 128,-1,23
 350 577 350 577 345.5 551.5 c 128,-1,24
 341 526 341 526 341 518 c 0,25,26
 341 506 341 506 346 496.5 c 128,-1,27
 351 487 351 487 351 481 c 0,28,29
 351 466 351 466 343.5 446.5 c 128,-1,30
 336 427 336 427 325.5 410.5 c 128,-1,31
 315 394 315 394 303 382.5 c 128,-1,32
 291 371 291 371 282 371 c 0,33,34
 271 371 271 371 261.5 379 c 128,-1,35
 252 387 252 387 244.5 399.5 c 128,-1,36
 237 412 237 412 232.5 428.5 c 128,-1,37
 228 445 228 445 228 463 c 0,38,39
 228 478 228 478 230 492.5 c 128,-1,40
 232 507 232 507 232 522 c 0,41,42
 232 548 232 548 225 573.5 c 128,-1,43
 218 599 218 599 218 625 c 0,44,45
 218 639 218 639 215 652.5 c 128,-1,46
 212 666 212 666 210 680 c 2,47,-1
 210 741 l 2,48,49
 210 782 210 782 200 818.5 c 128,-1,50
 190 855 190 855 187 895 c 0,51,52
 182 946 182 946 183 994.5 c 128,-1,53
 184 1043 184 1043 181 1094 c 0,54,55
 179 1128 179 1128 173 1160.5 c 128,-1,56
 167 1193 167 1193 167 1227 c 0,57,58
 167 1240 167 1240 168.5 1248.5 c 128,-1,59
 170 1257 170 1257 172 1264 c 128,-1,60
 174 1271 174 1271 177 1278 c 128,-1,61
 180 1285 180 1285 183 1296 c 0,62,63
 195 1338 195 1338 203 1365 c 128,-1,64
 211 1392 211 1392 222.5 1407.5 c 128,-1,65
 234 1423 234 1423 251.5 1429.5 c 128,-1,66
 269 1436 269 1436 300 1436 c 0,67,68
 314 1436 314 1436 323.5 1424.5 c 128,-1,69
 333 1413 333 1413 345 1407 c 0,70,71
 351 1402 351 1402 358 1402 c 128,-1,72
 365 1402 365 1402 372 1397 c 0,73,74
 380 1391 380 1391 388 1378.5 c 128,-1,75
 396 1366 396 1366 402 1350.5 c 128,-1,76
 408 1335 408 1335 411.5 1318.5 c 128,-1,77
 415 1302 415 1302 415 1288 c 0,78,79
 415 1273 415 1273 414 1259 c 128,-1,80
 413 1245 413 1245 413 1231 c 0,81,82
 413 1209 413 1209 418 1190 c 128,-1,83
 423 1171 423 1171 423 1149 c 0,0,1
384 123 m 0,84,85
 384 97 384 97 374 75 c 128,-1,86
 364 53 364 53 347 36 c 128,-1,87
 330 19 330 19 307 9.5 c 128,-1,88
 284 0 284 0 259 0 c 256,89,90
 234 0 234 0 214 10 c 128,-1,91
 194 20 194 20 179.5 36.5 c 128,-1,92
 165 53 165 53 157.5 74.5 c 128,-1,93
 150 96 150 96 150 119 c 0,94,95
 150 179 150 179 188.5 211.5 c 128,-1,96
 227 244 227 244 284 244 c 0,97,98
 305 244 305 244 323.5 232.5 c 128,-1,99
 342 221 342 221 355.5 203.5 c 128,-1,100
 369 186 369 186 376.5 164.5 c 128,-1,101
 384 143 384 143 384 123 c 0,84,85
EndSplineSet
Validated: 33
EndChar

StartChar: quotedbl
Encoding: 34 34 5
Width: 721
GlyphClass: 2
Flags: W
LayerCount: 2
Fore
SplineSet
219 920 m 1,0,1
 201 920 201 920 187 935 c 128,-1,2
 173 950 173 950 164 970 c 128,-1,3
 155 990 155 990 152 1010 c 128,-1,4
 149 1030 149 1030 154 1041 c 0,5,6
 151 1043 151 1043 150 1050 c 128,-1,7
 149 1057 149 1057 148 1065 c 128,-1,8
 147 1073 147 1073 147 1080.5 c 128,-1,9
 147 1088 147 1088 147 1092 c 0,10,11
 147 1099 147 1099 152.5 1101 c 128,-1,12
 158 1103 158 1103 163 1111 c 0,13,14
 167 1118 167 1118 161.5 1124.5 c 128,-1,15
 156 1131 156 1131 147.5 1135.5 c 128,-1,16
 139 1140 139 1140 130.5 1143.5 c 128,-1,17
 122 1147 122 1147 122 1148 c 0,18,19
 125 1172 125 1172 122 1192.5 c 128,-1,20
 119 1213 119 1213 114.5 1230.5 c 128,-1,21
 110 1248 110 1248 106 1262 c 128,-1,22
 102 1276 102 1276 102 1288 c 0,23,24
 102 1304 102 1304 100 1323.5 c 128,-1,25
 98 1343 98 1343 98.5 1361.5 c 128,-1,26
 99 1380 99 1380 103.5 1396 c 128,-1,27
 108 1412 108 1412 121 1422 c 0,28,29
 131 1429 131 1429 149 1433.5 c 128,-1,30
 167 1438 167 1438 187 1438.5 c 128,-1,31
 207 1439 207 1439 226 1436.5 c 128,-1,32
 245 1434 245 1434 256 1427 c 0,33,34
 274 1416 274 1416 281.5 1401 c 128,-1,35
 289 1386 289 1386 291 1369.5 c 128,-1,36
 293 1353 293 1353 291.5 1337 c 128,-1,37
 290 1321 290 1321 290 1309 c 0,38,39
 290 1285 290 1285 283.5 1261 c 128,-1,40
 277 1237 277 1237 277 1213 c 0,41,42
 277 1191 277 1191 276 1173.5 c 128,-1,43
 275 1156 275 1156 275 1134 c 0,44,45
 275 1115 275 1115 268 1087.5 c 128,-1,46
 261 1060 261 1060 261 1041 c 0,47,48
 261 1029 261 1029 260 1010.5 c 128,-1,49
 259 992 259 992 255 973.5 c 128,-1,50
 251 955 251 955 242.5 940 c 128,-1,51
 234 925 234 925 219 920 c 1,0,1
521 1440 m 0,52,53
 554 1440 554 1440 572.5 1426 c 128,-1,54
 591 1412 591 1412 598 1383 c 128,-1,55
 605 1354 605 1354 602 1307 c 128,-1,56
 599 1260 599 1260 590 1194 c 0,57,58
 590 1190 590 1190 586.5 1188.5 c 128,-1,59
 583 1187 583 1187 579 1186 c 128,-1,60
 575 1185 575 1185 571.5 1183 c 128,-1,61
 568 1181 568 1181 568 1176 c 0,62,63
 568 1173 568 1173 564 1167.5 c 128,-1,64
 560 1162 560 1162 555.5 1156 c 128,-1,65
 551 1150 551 1150 547.5 1144 c 128,-1,66
 544 1138 544 1138 545 1134 c 0,67,68
 544 1132 544 1132 549.5 1129.5 c 128,-1,69
 555 1127 555 1127 561.5 1124 c 128,-1,70
 568 1121 568 1121 574 1118 c 128,-1,71
 580 1115 580 1115 580 1112 c 0,72,73
 580 1095 580 1095 586 1079.5 c 128,-1,74
 592 1064 592 1064 592 1047 c 0,75,76
 592 1035 592 1035 592 1015.5 c 128,-1,77
 592 996 592 996 589 978 c 128,-1,78
 586 960 586 960 578 947 c 128,-1,79
 570 934 570 934 554 934 c 0,80,81
 545 934 545 934 539.5 927 c 128,-1,82
 534 920 534 920 526 920 c 0,83,84
 502 920 502 920 487 929 c 128,-1,85
 472 938 472 938 463 953 c 128,-1,86
 454 968 454 968 451 987.5 c 128,-1,87
 448 1007 448 1007 448 1028 c 0,88,89
 448 1043 448 1043 448 1043.5 c 128,-1,90
 448 1044 448 1044 448.5 1042 c 128,-1,91
 449 1040 449 1040 449 1041 c 128,-1,92
 449 1042 449 1042 449 1057 c 0,93,94
 449 1102 449 1102 443.5 1146 c 128,-1,95
 438 1190 438 1190 432 1235 c 0,96,97
 428 1267 428 1267 421 1289 c 128,-1,98
 414 1311 414 1311 414 1343 c 0,99,100
 414 1362 414 1362 423 1380 c 128,-1,101
 432 1398 432 1398 447 1411 c 128,-1,102
 462 1424 462 1424 481.5 1432 c 128,-1,103
 501 1440 501 1440 521 1440 c 0,52,53
EndSplineSet
Validated: 33
PairPos2: "'kern' Horizontal Kerning in Latin lookup 0 per glyph data 1" ellipsis dx=0 dy=0 dh=-213 dv=0 dx=0 dy=0 dh=0 dv=0
PairPos2: "'kern' Horizontal Kerning in Latin lookup 0 per glyph data 1" ellipsis dx=0 dy=0 dh=-213 dv=0 dx=0 dy=0 dh=0 dv=0
PairPos2: "'kern' Horizontal Kerning in Latin lookup 0 per glyph data 1" ellipsis dx=0 dy=0 dh=-213 dv=0 dx=0 dy=0 dh=0 dv=0
PairPos2: "'kern' Horizontal Kerning in Latin lookup 0 per glyph data 1" ellipsis dx=0 dy=0 dh=-213 dv=0 dx=0 dy=0 dh=0 dv=0
PairPos2: "'kern' Horizontal Kerning in Latin lookup 0 per glyph data 1" ellipsis dx=0 dy=0 dh=-213 dv=0 dx=0 dy=0 dh=0 dv=0
PairPos2: "'kern' Horizontal Kerning in Latin lookup 0 per glyph data 1" quotedblbase dx=0 dy=0 dh=-241 dv=0 dx=0 dy=0 dh=0 dv=0
PairPos2: "'kern' Horizontal Kerning in Latin lookup 0 per glyph data 1" quotedblbase dx=0 dy=0 dh=-241 dv=0 dx=0 dy=0 dh=0 dv=0
PairPos2: "'kern' Horizontal Kerning in Latin lookup 0 per glyph data 1" quotedblbase dx=0 dy=0 dh=-241 dv=0 dx=0 dy=0 dh=0 dv=0
PairPos2: "'kern' Horizontal Kerning in Latin lookup 0 per glyph data 1" quotedblbase dx=0 dy=0 dh=-241 dv=0 dx=0 dy=0 dh=0 dv=0
PairPos2: "'kern' Horizontal Kerning in Latin lookup 0 per glyph data 1" quotedblbase dx=0 dy=0 dh=-241 dv=0 dx=0 dy=0 dh=0 dv=0
PairPos2: "'kern' Horizontal Kerning in Latin lookup 0 per glyph data 1" quotesinglbase dx=0 dy=0 dh=-241 dv=0 dx=0 dy=0 dh=0 dv=0
PairPos2: "'kern' Horizontal Kerning in Latin lookup 0 per glyph data 1" quotesinglbase dx=0 dy=0 dh=-241 dv=0 dx=0 dy=0 dh=0 dv=0
PairPos2: "'kern' Horizontal Kerning in Latin lookup 0 per glyph data 1" quotesinglbase dx=0 dy=0 dh=-241 dv=0 dx=0 dy=0 dh=0 dv=0
PairPos2: "'kern' Horizontal Kerning in Latin lookup 0 per glyph data 1" quotesinglbase dx=0 dy=0 dh=-241 dv=0 dx=0 dy=0 dh=0 dv=0
PairPos2: "'kern' Horizontal Kerning in Latin lookup 0 per glyph data 1" quotesinglbase dx=0 dy=0 dh=-241 dv=0 dx=0 dy=0 dh=0 dv=0
PairPos2: "'kern' Horizontal Kerning in Latin lookup 0 per glyph data 1" J dx=0 dy=0 dh=-70 dv=0 dx=0 dy=0 dh=0 dv=0
PairPos2: "'kern' Horizontal Kerning in Latin lookup 0 per glyph data 1" J dx=0 dy=0 dh=-70 dv=0 dx=0 dy=0 dh=0 dv=0
PairPos2: "'kern' Horizontal Kerning in Latin lookup 0 per glyph data 1" J dx=0 dy=0 dh=-70 dv=0 dx=0 dy=0 dh=0 dv=0
PairPos2: "'kern' Horizontal Kerning in Latin lookup 0 per glyph data 1" J dx=0 dy=0 dh=-70 dv=0 dx=0 dy=0 dh=0 dv=0
PairPos2: "'kern' Horizontal Kerning in Latin lookup 0 per glyph data 1" J dx=0 dy=0 dh=-70 dv=0 dx=0 dy=0 dh=0 dv=0
PairPos2: "'kern' Horizontal Kerning in Latin lookup 0 per glyph data 1" A dx=0 dy=0 dh=-65 dv=0 dx=0 dy=0 dh=0 dv=0
PairPos2: "'kern' Horizontal Kerning in Latin lookup 0 per glyph data 1" A dx=0 dy=0 dh=-65 dv=0 dx=0 dy=0 dh=0 dv=0
PairPos2: "'kern' Horizontal Kerning in Latin lookup 0 per glyph data 1" A dx=0 dy=0 dh=-65 dv=0 dx=0 dy=0 dh=0 dv=0
PairPos2: "'kern' Horizontal Kerning in Latin lookup 0 per glyph data 1" A dx=0 dy=0 dh=-65 dv=0 dx=0 dy=0 dh=0 dv=0
PairPos2: "'kern' Horizontal Kerning in Latin lookup 0 per glyph data 1" A dx=0 dy=0 dh=-65 dv=0 dx=0 dy=0 dh=0 dv=0
PairPos2: "'kern' Horizontal Kerning in Latin lookup 0 per glyph data 1" four dx=0 dy=0 dh=-57 dv=0 dx=0 dy=0 dh=0 dv=0
PairPos2: "'kern' Horizontal Kerning in Latin lookup 0 per glyph data 1" four dx=0 dy=0 dh=-57 dv=0 dx=0 dy=0 dh=0 dv=0
PairPos2: "'kern' Horizontal Kerning in Latin lookup 0 per glyph data 1" four dx=0 dy=0 dh=-57 dv=0 dx=0 dy=0 dh=0 dv=0
PairPos2: "'kern' Horizontal Kerning in Latin lookup 0 per glyph data 1" four dx=0 dy=0 dh=-57 dv=0 dx=0 dy=0 dh=0 dv=0
PairPos2: "'kern' Horizontal Kerning in Latin lookup 0 per glyph data 1" four dx=0 dy=0 dh=-57 dv=0 dx=0 dy=0 dh=0 dv=0
PairPos2: "'kern' Horizontal Kerning in Latin lookup 0 per glyph data 1" slash dx=0 dy=0 dh=-150 dv=0 dx=0 dy=0 dh=0 dv=0
PairPos2: "'kern' Horizontal Kerning in Latin lookup 0 per glyph data 1" slash dx=0 dy=0 dh=-150 dv=0 dx=0 dy=0 dh=0 dv=0
PairPos2: "'kern' Horizontal Kerning in Latin lookup 0 per glyph data 1" slash dx=0 dy=0 dh=-150 dv=0 dx=0 dy=0 dh=0 dv=0
PairPos2: "'kern' Horizontal Kerning in Latin lookup 0 per glyph data 1" slash dx=0 dy=0 dh=-150 dv=0 dx=0 dy=0 dh=0 dv=0
PairPos2: "'kern' Horizontal Kerning in Latin lookup 0 per glyph data 1" slash dx=0 dy=0 dh=-150 dv=0 dx=0 dy=0 dh=0 dv=0
PairPos2: "'kern' Horizontal Kerning in Latin lookup 0 per glyph data 1" period dx=0 dy=0 dh=-213 dv=0 dx=0 dy=0 dh=0 dv=0
PairPos2: "'kern' Horizontal Kerning in Latin lookup 0 per glyph data 1" period dx=0 dy=0 dh=-213 dv=0 dx=0 dy=0 dh=0 dv=0
PairPos2: "'kern' Horizontal Kerning in Latin lookup 0 per glyph data 1" period dx=0 dy=0 dh=-213 dv=0 dx=0 dy=0 dh=0 dv=0
PairPos2: "'kern' Horizontal Kerning in Latin lookup 0 per glyph data 1" period dx=0 dy=0 dh=-213 dv=0 dx=0 dy=0 dh=0 dv=0
PairPos2: "'kern' Horizontal Kerning in Latin lookup 0 per glyph data 1" period dx=0 dy=0 dh=-213 dv=0 dx=0 dy=0 dh=0 dv=0
PairPos2: "'kern' Horizontal Kerning in Latin lookup 0 per glyph data 1" comma dx=0 dy=0 dh=-211 dv=0 dx=0 dy=0 dh=0 dv=0
PairPos2: "'kern' Horizontal Kerning in Latin lookup 0 per glyph data 1" comma dx=0 dy=0 dh=-211 dv=0 dx=0 dy=0 dh=0 dv=0
PairPos2: "'kern' Horizontal Kerning in Latin lookup 0 per glyph data 1" comma dx=0 dy=0 dh=-211 dv=0 dx=0 dy=0 dh=0 dv=0
PairPos2: "'kern' Horizontal Kerning in Latin lookup 0 per glyph data 1" comma dx=0 dy=0 dh=-211 dv=0 dx=0 dy=0 dh=0 dv=0
PairPos2: "'kern' Horizontal Kerning in Latin lookup 0 per glyph data 1" comma dx=0 dy=0 dh=-211 dv=0 dx=0 dy=0 dh=0 dv=0
PairPos2: "'kern' Horizontal Kerning in Latin lookup 0 per glyph data 1" ampersand dx=0 dy=0 dh=-47 dv=0 dx=0 dy=0 dh=0 dv=0
PairPos2: "'kern' Horizontal Kerning in Latin lookup 0 per glyph data 1" ampersand dx=0 dy=0 dh=-47 dv=0 dx=0 dy=0 dh=0 dv=0
PairPos2: "'kern' Horizontal Kerning in Latin lookup 0 per glyph data 1" ampersand dx=0 dy=0 dh=-47 dv=0 dx=0 dy=0 dh=0 dv=0
PairPos2: "'kern' Horizontal Kerning in Latin lookup 0 per glyph data 1" ampersand dx=0 dy=0 dh=-47 dv=0 dx=0 dy=0 dh=0 dv=0
PairPos2: "'kern' Horizontal Kerning in Latin lookup 0 per glyph data 1" ampersand dx=0 dy=0 dh=-47 dv=0 dx=0 dy=0 dh=0 dv=0
EndChar

StartChar: numbersign
Encoding: 35 35 6
Width: 1136
GlyphClass: 2
Flags: W
LayerCount: 2
Fore
SplineSet
1072 874 m 0,0,1
 1072 865 1072 865 1067.5 853 c 128,-1,2
 1063 841 1063 841 1054 831 c 128,-1,3
 1045 821 1045 821 1031 815 c 128,-1,4
 1017 809 1017 809 998 811 c 0,5,6
 975 814 975 814 952 814.5 c 128,-1,7
 929 815 929 815 906 815 c 0,8,9
 863 815 863 815 844.5 806.5 c 128,-1,10
 826 798 826 798 819 782.5 c 128,-1,11
 812 767 812 767 809.5 743.5 c 128,-1,12
 807 720 807 720 795 690 c 0,13,14
 789 675 789 675 781 661 c 128,-1,15
 773 647 773 647 773 633 c 1,16,-1
 775 627 l 1,17,18
 784 619 784 619 796.5 616.5 c 128,-1,19
 809 614 809 614 822 614 c 0,20,21
 845 614 845 614 868 617.5 c 128,-1,22
 891 621 891 621 914 621 c 0,23,24
 927 621 927 621 944.5 617.5 c 128,-1,25
 962 614 962 614 977.5 607 c 128,-1,26
 993 600 993 600 1003.5 588.5 c 128,-1,27
 1014 577 1014 577 1014 561 c 0,28,29
 1014 548 1014 548 1006.5 537 c 128,-1,30
 999 526 999 526 987.5 517.5 c 128,-1,31
 976 509 976 509 963 504.5 c 128,-1,32
 950 500 950 500 938 500 c 0,33,34
 918 500 918 500 900.5 508 c 128,-1,35
 883 516 883 516 863 516 c 0,36,37
 835 516 835 516 807.5 512 c 128,-1,38
 780 508 780 508 752 508 c 1,39,40
 726 494 726 494 717 471 c 128,-1,41
 708 448 708 448 704.5 422.5 c 128,-1,42
 701 397 701 397 698 371 c 128,-1,43
 695 345 695 345 682 326 c 0,44,45
 674 315 674 315 673 308 c 128,-1,46
 672 301 672 301 672 291 c 0,47,48
 672 278 672 278 668 267 c 128,-1,49
 664 256 664 256 659.5 245.5 c 128,-1,50
 655 235 655 235 651.5 225 c 128,-1,51
 648 215 648 215 648 203 c 0,52,53
 648 196 648 196 640.5 178 c 128,-1,54
 633 160 633 160 625 140.5 c 128,-1,55
 617 121 617 121 611.5 106 c 128,-1,56
 606 91 606 91 610 90 c 1,57,58
 610 77 610 77 605.5 60.5 c 128,-1,59
 601 44 601 44 590.5 30 c 128,-1,60
 580 16 580 16 563 6 c 128,-1,61
 546 -4 546 -4 522 -4 c 0,62,63
 504 -4 504 -4 493.5 3.5 c 128,-1,64
 483 11 483 11 477 22.5 c 128,-1,65
 471 34 471 34 469 48.5 c 128,-1,66
 467 63 467 63 467 78 c 0,67,68
 467 102 467 102 471.5 109.5 c 128,-1,69
 476 117 476 117 482.5 121.5 c 128,-1,70
 489 126 489 126 496 133.5 c 128,-1,71
 503 141 503 141 508 164 c 1,72,73
 506 178 506 178 511 191 c 128,-1,74
 516 204 516 204 523 216.5 c 128,-1,75
 530 229 530 229 535.5 241.5 c 128,-1,76
 541 254 541 254 541 267 c 0,77,78
 541 293 541 293 549.5 313.5 c 128,-1,79
 558 334 558 334 558 358 c 0,80,81
 558 375 558 375 562.5 390.5 c 128,-1,82
 567 406 567 406 573 421 c 128,-1,83
 579 436 579 436 585.5 451.5 c 128,-1,84
 592 467 592 467 596 483 c 1,85,86
 586 493 586 493 570.5 496 c 128,-1,87
 555 499 555 499 537 499 c 0,88,89
 520 499 520 499 503.5 497.5 c 128,-1,90
 487 496 487 496 474 496 c 0,91,92
 458 496 458 496 442 498 c 128,-1,93
 426 500 426 500 412 508 c 1,94,95
 405 500 405 500 399 496 c 128,-1,96
 393 492 393 492 388.5 488.5 c 128,-1,97
 384 485 384 485 380 479 c 128,-1,98
 376 473 376 473 373 461 c 0,99,100
 369 449 369 449 367 435.5 c 128,-1,101
 365 422 365 422 361.5 405 c 128,-1,102
 358 388 358 388 351.5 366.5 c 128,-1,103
 345 345 345 345 332 317 c 0,104,105
 326 304 326 304 324 290 c 128,-1,106
 322 276 322 276 321 262 c 128,-1,107
 320 248 320 248 318.5 234 c 128,-1,108
 317 220 317 220 312 207 c 0,109,110
 306 191 306 191 298.5 178 c 128,-1,111
 291 165 291 165 284 153 c 128,-1,112
 277 141 277 141 272.5 129 c 128,-1,113
 268 117 268 117 268 104 c 0,114,115
 268 83 268 83 260.5 64 c 128,-1,116
 253 45 253 45 240 30.5 c 128,-1,117
 227 16 227 16 209 7 c 128,-1,118
 191 -2 191 -2 170 -2 c 0,119,120
 158 -2 158 -2 145 1.5 c 128,-1,121
 132 5 132 5 121 10 c 1,122,123
 118 33 118 33 112.5 56 c 128,-1,124
 107 79 107 79 107 102 c 0,125,126
 107 123 107 123 121 153 c 128,-1,127
 135 183 135 183 152 215 c 128,-1,128
 169 247 169 247 183 275.5 c 128,-1,129
 197 304 197 304 197 322 c 0,130,131
 197 332 197 332 205.5 350 c 128,-1,132
 214 368 214 368 224.5 389 c 128,-1,133
 235 410 235 410 243.5 431.5 c 128,-1,134
 252 453 252 453 252 471 c 256,135,136
 252 489 252 489 232 494 c 128,-1,137
 212 499 212 499 191 499 c 0,138,139
 181 499 181 499 173 498.5 c 128,-1,140
 165 498 165 498 160 498 c 0,141,142
 145 498 145 498 128.5 499.5 c 128,-1,143
 112 501 112 501 97.5 506.5 c 128,-1,144
 83 512 83 512 73.5 523 c 128,-1,145
 64 534 64 534 64 553 c 0,146,147
 64 578 64 578 79 592 c 128,-1,148
 94 606 94 606 116 612.5 c 128,-1,149
 138 619 138 619 162.5 620 c 128,-1,150
 187 621 187 621 205 621 c 0,151,152
 222 621 222 621 239 617.5 c 128,-1,153
 256 614 256 614 275 614 c 0,154,155
 293 614 293 614 302.5 627.5 c 128,-1,156
 312 641 312 641 318 660.5 c 128,-1,157
 324 680 324 680 329 701.5 c 128,-1,158
 334 723 334 723 342 739 c 0,159,160
 348 753 348 753 354.5 764.5 c 128,-1,161
 361 776 361 776 361 791 c 0,162,163
 361 802 361 802 351.5 804.5 c 128,-1,164
 342 807 342 807 332 807 c 0,165,166
 317 807 317 807 308.5 807 c 128,-1,167
 300 807 300 807 293 806.5 c 128,-1,168
 286 806 286 806 277 806 c 128,-1,169
 268 806 268 806 252 806 c 0,170,171
 234 806 234 806 216 809 c 128,-1,172
 198 812 198 812 183.5 819.5 c 128,-1,173
 169 827 169 827 160.5 840 c 128,-1,174
 152 853 152 853 152 873 c 0,175,176
 152 889 152 889 161 901.5 c 128,-1,177
 170 914 170 914 183.5 922.5 c 128,-1,178
 197 931 197 931 212.5 935.5 c 128,-1,179
 228 940 228 940 242 940 c 0,180,181
 249 940 249 940 265 938 c 128,-1,182
 281 936 281 936 300.5 933.5 c 128,-1,183
 320 931 320 931 340 929 c 128,-1,184
 360 927 360 927 375 926 c 0,185,186
 387 926 387 926 394 935.5 c 128,-1,187
 401 945 401 945 405.5 957.5 c 128,-1,188
 410 970 410 970 413 983.5 c 128,-1,189
 416 997 416 997 420 1006 c 0,190,191
 422 1024 422 1024 426.5 1038 c 128,-1,192
 431 1052 431 1052 436.5 1066.5 c 128,-1,193
 442 1081 442 1081 447 1098.5 c 128,-1,194
 452 1116 452 1116 455 1140 c 0,195,196
 455 1153 455 1153 455.5 1169 c 128,-1,197
 456 1185 456 1185 458 1201.5 c 128,-1,198
 460 1218 460 1218 464 1233 c 128,-1,199
 468 1248 468 1248 475 1258 c 1,200,201
 471 1271 471 1271 471 1289 c 0,202,203
 471 1314 471 1314 479.5 1343.5 c 128,-1,204
 488 1373 488 1373 504 1398.5 c 128,-1,205
 520 1424 520 1424 542.5 1441.5 c 128,-1,206
 565 1459 565 1459 594 1459 c 0,207,208
 629 1459 629 1459 647.5 1437 c 128,-1,209
 666 1415 666 1415 666 1381 c 0,210,211
 666 1367 666 1367 668 1357 c 128,-1,212
 670 1347 670 1347 668.5 1336.5 c 128,-1,213
 667 1326 667 1326 660 1311.5 c 128,-1,214
 653 1297 653 1297 636 1273 c 1,215,-1
 601 1134 l 1,216,217
 594 1129 594 1129 583.5 1104 c 128,-1,218
 573 1079 573 1079 563 1049 c 128,-1,219
 553 1019 553 1019 544.5 992.5 c 128,-1,220
 536 966 536 966 533 958 c 1,221,222
 538 940 538 940 550 925.5 c 128,-1,223
 562 911 562 911 586 911 c 0,224,225
 600 911 600 911 614 918 c 128,-1,226
 628 925 628 925 650 925 c 0,227,228
 667 925 667 925 684.5 923.5 c 128,-1,229
 702 922 702 922 719 922 c 0,230,231
 740 922 740 922 749.5 932 c 128,-1,232
 759 942 759 942 763.5 956.5 c 128,-1,233
 768 971 768 971 770.5 987.5 c 128,-1,234
 773 1004 773 1004 779 1018 c 0,235,236
 787 1036 787 1036 792.5 1042.5 c 128,-1,237
 798 1049 798 1049 801 1053.5 c 128,-1,238
 804 1058 804 1058 805.5 1065 c 128,-1,239
 807 1072 807 1072 807 1092 c 0,240,241
 807 1107 807 1107 812 1121.5 c 128,-1,242
 817 1136 817 1136 823.5 1150.5 c 128,-1,243
 830 1165 830 1165 835 1180 c 128,-1,244
 840 1195 840 1195 840 1211 c 0,245,246
 840 1217 840 1217 833.5 1225 c 128,-1,247
 827 1233 827 1233 827 1242 c 0,248,249
 827 1260 827 1260 832.5 1279 c 128,-1,250
 838 1298 838 1298 838 1320 c 0,251,252
 838 1338 838 1338 847.5 1358.5 c 128,-1,253
 857 1379 857 1379 873 1396.5 c 128,-1,254
 889 1414 889 1414 908.5 1425 c 128,-1,255
 928 1436 928 1436 948 1436 c 0,256,257
 970 1436 970 1436 983.5 1420.5 c 128,-1,258
 997 1405 997 1405 1008 1389 c 1,259,-1
 1010 1344 l 2,260,261
 1011 1324 1011 1324 1004.5 1302 c 128,-1,262
 998 1280 998 1280 981 1266 c 1,263,264
 981 1246 981 1246 975 1227.5 c 128,-1,265
 969 1209 969 1209 969 1191 c 256,266,267
 969 1173 969 1173 965.5 1163 c 128,-1,268
 962 1153 962 1153 955.5 1142 c 128,-1,269
 949 1131 949 1131 940 1115 c 128,-1,270
 931 1099 931 1099 920 1069 c 0,271,272
 917 1067 917 1067 909.5 1048 c 128,-1,273
 902 1029 902 1029 894 1005.5 c 128,-1,274
 886 982 886 982 879.5 962.5 c 128,-1,275
 873 943 873 943 873 940 c 0,276,277
 873 934 873 934 881 930 c 128,-1,278
 889 926 889 926 899 924 c 128,-1,279
 909 922 909 922 918.5 921 c 128,-1,280
 928 920 928 920 932 920 c 0,281,282
 949 920 949 920 966 923 c 128,-1,283
 983 926 983 926 1000 926 c 0,284,285
 1011 926 1011 926 1024 922 c 128,-1,286
 1037 918 1037 918 1047.5 911 c 128,-1,287
 1058 904 1058 904 1065 894.5 c 128,-1,288
 1072 885 1072 885 1072 874 c 0,0,1
705 801 m 1,289,290
 699 809 699 809 694.5 811 c 128,-1,291
 690 813 690 813 685 813 c 0,292,293
 672 813 672 813 661 811 c 128,-1,294
 650 809 650 809 639 809 c 0,295,296
 625 809 625 809 611.5 814 c 128,-1,297
 598 819 598 819 584 819 c 0,298,299
 564 819 564 819 544 812 c 128,-1,300
 524 805 524 805 504 805 c 1,301,302
 488 785 488 785 478 761 c 128,-1,303
 468 737 468 737 468 711 c 0,304,305
 468 702 468 702 464 693 c 128,-1,306
 460 684 460 684 455.5 675 c 128,-1,307
 451 666 451 666 447 656 c 128,-1,308
 443 646 443 646 443 635 c 0,309,310
 443 618 443 618 451.5 615 c 128,-1,311
 460 612 460 612 472 612 c 0,312,313
 498 612 498 612 525.5 609 c 128,-1,314
 553 606 553 606 580 606 c 0,315,316
 596 606 596 606 611 608 c 128,-1,317
 626 610 626 610 641 616 c 1,318,319
 649 638 649 638 657.5 651 c 128,-1,320
 666 664 666 664 673.5 676 c 128,-1,321
 681 688 681 688 686 704.5 c 128,-1,322
 691 721 691 721 691 750 c 0,323,324
 691 764 691 764 698 775.5 c 128,-1,325
 705 787 705 787 705 801 c 1,289,290
EndSplineSet
Validated: 1
EndChar

StartChar: dollar
Encoding: 36 36 7
Width: 1079
GlyphClass: 2
Flags: W
LayerCount: 2
Fore
SplineSet
477 1413 m 2,0,1
 477 1415 477 1415 475 1424.5 c 128,-1,2
 473 1434 473 1434 470 1446 c 128,-1,3
 467 1458 467 1458 465 1471 c 128,-1,4
 463 1484 463 1484 463 1494 c 0,5,6
 463 1513 463 1513 467 1532.5 c 128,-1,7
 471 1552 471 1552 471 1570 c 0,8,9
 471 1581 471 1581 466 1591.5 c 128,-1,10
 461 1602 461 1602 461 1613 c 0,11,12
 461 1623 461 1623 463 1632 c 128,-1,13
 465 1641 465 1641 465 1650 c 256,14,15
 465 1659 465 1659 460 1665.5 c 128,-1,16
 455 1672 455 1672 448.5 1678 c 128,-1,17
 442 1684 442 1684 437 1690 c 128,-1,18
 432 1696 432 1696 432 1705 c 0,19,20
 432 1716 432 1716 442 1720 c 128,-1,21
 452 1724 452 1724 457 1732 c 1,22,23
 454 1749 454 1749 451.5 1767 c 128,-1,24
 449 1785 449 1785 449 1802 c 0,25,26
 449 1836 449 1836 465 1859 c 128,-1,27
 481 1882 481 1882 518 1882 c 0,28,29
 554 1882 554 1882 581.5 1861 c 128,-1,30
 609 1840 609 1840 609 1802 c 0,31,32
 609 1768 609 1768 603.5 1734.5 c 128,-1,33
 598 1701 598 1701 598 1666 c 0,34,35
 598 1632 598 1632 600 1598.5 c 128,-1,36
 602 1565 602 1565 602 1531 c 0,37,38
 602 1502 602 1502 594 1474 c 128,-1,39
 586 1446 586 1446 586 1417 c 0,40,41
 586 1398 586 1398 590.5 1389.5 c 128,-1,42
 595 1381 595 1381 604 1379 c 128,-1,43
 613 1377 613 1377 625.5 1378 c 128,-1,44
 638 1379 638 1379 654 1379 c 0,45,46
 659 1379 659 1379 663.5 1379 c 128,-1,47
 668 1379 668 1379 673 1378 c 2,48,-1
 683 1378 l 2,49,50
 702 1378 702 1378 721.5 1373.5 c 128,-1,51
 741 1369 741 1369 760 1363.5 c 128,-1,52
 779 1358 779 1358 797 1353 c 128,-1,53
 815 1348 815 1348 831 1346 c 1,54,55
 850 1329 850 1329 874 1310 c 128,-1,56
 898 1291 898 1291 918 1271 c 128,-1,57
 938 1251 938 1251 952 1229.5 c 128,-1,58
 966 1208 966 1208 966 1186 c 0,59,60
 966 1175 966 1175 961 1166.5 c 128,-1,61
 956 1158 956 1158 956 1147 c 0,62,63
 956 1138 956 1138 959 1128.5 c 128,-1,64
 962 1119 962 1119 962 1110 c 0,65,66
 962 1083 962 1083 952 1054 c 128,-1,67
 942 1025 942 1025 923.5 1001 c 128,-1,68
 905 977 905 977 880 961.5 c 128,-1,69
 855 946 855 946 825 946 c 0,70,71
 784 946 784 946 755.5 973.5 c 128,-1,72
 727 1001 727 1001 727 1064 c 0,73,74
 727 1087 727 1087 733 1111 c 128,-1,75
 739 1135 739 1135 755 1155 c 0,76,77
 757 1161 757 1161 765.5 1167.5 c 128,-1,78
 774 1174 774 1174 783.5 1180 c 128,-1,79
 793 1186 793 1186 800.5 1191 c 128,-1,80
 808 1196 808 1196 808 1198 c 0,81,82
 808 1201 808 1201 800.5 1207 c 128,-1,83
 793 1213 793 1213 783.5 1220 c 128,-1,84
 774 1227 774 1227 765 1232.5 c 128,-1,85
 756 1238 756 1238 753 1239 c 2,86,-1
 636 1276 l 2,87,88
 623 1277 623 1277 613 1277 c 128,-1,89
 603 1277 603 1277 596.5 1267.5 c 128,-1,90
 590 1258 590 1258 586.5 1235 c 128,-1,91
 583 1212 583 1212 583 1167 c 0,92,93
 583 1160 583 1160 583.5 1156.5 c 128,-1,94
 584 1153 584 1153 585 1150 c 128,-1,95
 586 1147 586 1147 586.5 1143.5 c 128,-1,96
 587 1140 587 1140 587 1132 c 0,97,98
 587 1121 587 1121 583 1116.5 c 128,-1,99
 579 1112 579 1112 574.5 1110 c 128,-1,100
 570 1108 570 1108 566.5 1105.5 c 128,-1,101
 563 1103 563 1103 563 1096 c 0,102,103
 563 1091 563 1091 574 1080 c 0,104,105
 578 1075 578 1075 585 1068 c 1,106,107
 587 1030 587 1030 581 996 c 128,-1,108
 575 962 575 962 575 927 c 0,109,110
 575 925 575 925 574 910 c 128,-1,111
 573 895 573 895 572 878 c 0,112,113
 570 858 570 858 569 833 c 0,114,115
 566 817 566 817 579 805 c 128,-1,116
 592 793 592 793 615.5 784 c 128,-1,117
 639 775 639 775 669 768 c 128,-1,118
 699 761 699 761 729.5 757 c 128,-1,119
 760 753 760 753 788 750.5 c 128,-1,120
 816 748 816 748 835 748 c 0,121,122
 862 747 862 747 894 732 c 128,-1,123
 926 717 926 717 953.5 687.5 c 128,-1,124
 981 658 981 658 1000 615 c 128,-1,125
 1019 572 1019 572 1019 516 c 0,126,127
 1019 506 1019 506 1019 488.5 c 128,-1,128
 1019 471 1019 471 1017.5 452.5 c 128,-1,129
 1016 434 1016 434 1012.5 418 c 128,-1,130
 1009 402 1009 402 1003 395 c 1,131,132
 1009 386 1009 386 1009 375 c 0,133,134
 1009 365 1009 365 1005 354.5 c 128,-1,135
 1001 344 1001 344 996.5 332.5 c 128,-1,136
 992 321 992 321 988.5 308.5 c 128,-1,137
 985 296 985 296 985 283 c 0,138,139
 985 273 985 273 982.5 268 c 128,-1,140
 980 263 980 263 976 260 c 128,-1,141
 972 257 972 257 966.5 254.5 c 128,-1,142
 961 252 961 252 956 246 c 0,143,144
 949 238 949 238 945.5 230 c 128,-1,145
 942 222 942 222 939 213.5 c 128,-1,146
 936 205 936 205 932 197.5 c 128,-1,147
 928 190 928 190 919 184 c 0,148,149
 913 179 913 179 904.5 178 c 128,-1,150
 896 177 896 177 888 174 c 0,151,152
 869 167 869 167 855 158 c 128,-1,153
 841 149 841 149 827 140.5 c 128,-1,154
 813 132 813 132 797 124.5 c 128,-1,155
 781 117 781 117 759 113 c 0,156,157
 739 111 739 111 709.5 105 c 128,-1,158
 680 99 680 99 652 86.5 c 128,-1,159
 624 74 624 74 604.5 54.5 c 128,-1,160
 585 35 585 35 585 5 c 0,161,162
 585 -51 585 -51 589 -96.5 c 128,-1,163
 593 -142 593 -142 593 -196 c 0,164,165
 593 -211 593 -211 597 -225.5 c 128,-1,166
 601 -240 601 -240 605.5 -254.5 c 128,-1,167
 610 -269 610 -269 614 -284 c 128,-1,168
 618 -299 618 -299 618 -314 c 0,169,170
 618 -348 618 -348 600.5 -371.5 c 128,-1,171
 583 -395 583 -395 554 -411 c 1,172,-1
 540 -408 l 1,173,-1
 507 -411 l 1,174,175
 490 -402 490 -402 480 -387.5 c 128,-1,176
 470 -373 470 -373 464.5 -355.5 c 128,-1,177
 459 -338 459 -338 457.5 -318.5 c 128,-1,178
 456 -299 456 -299 456 -281 c 0,179,180
 456 -243 456 -243 457 -217.5 c 128,-1,181
 458 -192 458 -192 462 -163 c 0,182,183
 464 -144 464 -144 470.5 -127 c 128,-1,184
 477 -110 477 -110 477 -91 c 0,185,186
 477 -71 477 -71 468.5 -53.5 c 128,-1,187
 460 -36 460 -36 460 -17 c 0,188,189
 460 18 460 18 442.5 40.5 c 128,-1,190
 425 63 425 63 398 77 c 128,-1,191
 371 91 371 91 339 99 c 128,-1,192
 307 107 307 107 278 113.5 c 128,-1,193
 249 120 249 120 227 127 c 128,-1,194
 205 134 205 134 198 147 c 0,195,196
 183 168 183 168 166 186.5 c 128,-1,197
 149 205 149 205 134 224 c 128,-1,198
 119 243 119 243 107 264 c 128,-1,199
 95 285 95 285 90 311 c 1,200,201
 65 342 65 342 65 381 c 0,202,203
 65 406 65 406 77 424 c 1,204,205
 73 433 73 433 73 451 c 0,206,207
 73 470 73 470 81 486 c 128,-1,208
 89 502 89 502 101 516 c 128,-1,209
 113 530 113 530 127 542.5 c 128,-1,210
 141 555 141 555 153 567 c 1,211,-1
 198 565 l 1,212,-1
 235 567 l 1,213,214
 263 555 263 555 285 532 c 128,-1,215
 307 509 307 509 307 477 c 0,216,217
 307 440 307 440 288.5 421 c 128,-1,218
 270 402 270 402 248.5 391 c 128,-1,219
 227 380 227 380 208.5 371 c 128,-1,220
 190 362 190 362 190 346 c 0,221,222
 190 332 190 332 204.5 314.5 c 128,-1,223
 219 297 219 297 239 282 c 128,-1,224
 259 267 259 267 280 256.5 c 128,-1,225
 301 246 301 246 313 246 c 1,226,227
 398 209 398 209 438.5 210 c 128,-1,228
 479 211 479 211 484 235 c 0,229,230
 487 250 487 250 488.5 273 c 128,-1,231
 490 296 490 296 491.5 319.5 c 128,-1,232
 493 343 493 343 495.5 362.5 c 128,-1,233
 498 382 498 382 504 390 c 0,234,235
 507 394 507 394 507 398 c 0,236,237
 507 403 507 403 502 411.5 c 128,-1,238
 497 420 497 420 497 450 c 0,239,240
 497 469 497 469 497.5 478.5 c 128,-1,241
 498 488 498 488 498.5 497 c 128,-1,242
 499 506 499 506 499.5 518.5 c 128,-1,243
 500 531 500 531 500 555 c 2,244,-1
 500 567 l 2,245,246
 499 570 499 570 497.5 586.5 c 128,-1,247
 496 603 496 603 494.5 621 c 128,-1,248
 493 639 493 639 492 654 c 128,-1,249
 491 669 491 669 491 670 c 0,250,251
 493 685 493 685 476.5 698 c 128,-1,252
 460 711 460 711 433.5 721.5 c 128,-1,253
 407 732 407 732 374.5 741 c 128,-1,254
 342 750 342 750 312 758.5 c 128,-1,255
 282 767 282 767 258 774.5 c 128,-1,256
 234 782 234 782 225 791 c 1,257,-1
 206 791 l 2,258,259
 196 791 196 791 178.5 807 c 128,-1,260
 161 823 161 823 143 844.5 c 128,-1,261
 125 866 125 866 110.5 887 c 128,-1,262
 96 908 96 908 92 918 c 0,263,264
 86 932 86 932 84.5 946.5 c 128,-1,265
 83 961 83 961 83 978 c 0,266,267
 83 989 83 989 83 1012 c 128,-1,268
 83 1035 83 1035 85 1060 c 128,-1,269
 87 1085 87 1085 93.5 1106 c 128,-1,270
 100 1127 100 1127 114 1133 c 1,271,-1
 114 1153 l 2,272,273
 114 1169 114 1169 119 1184 c 128,-1,274
 124 1199 124 1199 131.5 1212.5 c 128,-1,275
 139 1226 139 1226 147 1236.5 c 128,-1,276
 155 1247 155 1247 161 1253 c 0,277,278
 166 1263 166 1263 169.5 1273.5 c 128,-1,279
 173 1284 173 1284 182 1294 c 0,280,281
 193 1306 193 1306 218 1319 c 128,-1,282
 243 1332 243 1332 276 1343.5 c 128,-1,283
 309 1355 309 1355 347 1362.5 c 128,-1,284
 385 1370 385 1370 422 1370 c 0,285,286
 432 1370 432 1370 441.5 1370 c 128,-1,287
 451 1370 451 1370 458.5 1373.5 c 128,-1,288
 466 1377 466 1377 471 1385.5 c 128,-1,289
 476 1394 476 1394 477 1412 c 2,290,-1
 477 1413 l 2,0,1
588 424 m 0,291,292
 588 384 588 384 586.5 344.5 c 128,-1,293
 585 305 585 305 588.5 273 c 128,-1,294
 592 241 592 241 603 220.5 c 128,-1,295
 614 200 614 200 638 199 c 1,296,297
 655 207 655 207 672 214 c 0,298,299
 686 220 686 220 703 225.5 c 128,-1,300
 720 231 720 231 735 233 c 0,301,302
 757 236 757 236 772.5 245.5 c 128,-1,303
 788 255 788 255 800.5 267 c 128,-1,304
 813 279 813 279 825.5 291 c 128,-1,305
 838 303 838 303 853 311 c 1,306,307
 855 325 855 325 862 341.5 c 128,-1,308
 869 358 869 358 876.5 374.5 c 128,-1,309
 884 391 884 391 890 407.5 c 128,-1,310
 896 424 896 424 896 438 c 0,311,312
 896 448 896 448 892 457 c 128,-1,313
 888 466 888 466 888 475 c 256,314,315
 888 484 888 484 891 493.5 c 128,-1,316
 894 503 894 503 894 512 c 0,317,318
 894 524 894 524 889 537.5 c 128,-1,319
 884 551 884 551 876 564.5 c 128,-1,320
 868 578 868 578 858.5 589.5 c 128,-1,321
 849 601 849 601 841 608 c 0,322,323
 831 616 831 616 819 620.5 c 128,-1,324
 807 625 807 625 794.5 628 c 128,-1,325
 782 631 782 631 769.5 634.5 c 128,-1,326
 757 638 757 638 745 645 c 1,327,328
 723 650 723 650 692.5 664 c 128,-1,329
 662 678 662 678 634.5 685.5 c 128,-1,330
 607 693 607 693 588 687 c 128,-1,331
 569 681 569 681 569 647 c 0,332,333
 569 634 569 634 569.5 612 c 128,-1,334
 570 590 570 590 571 569 c 128,-1,335
 572 548 572 548 572.5 532.5 c 128,-1,336
 573 517 573 517 573 516 c 256,337,338
 573 515 573 515 575.5 507.5 c 128,-1,339
 578 500 578 500 581 489.5 c 128,-1,340
 584 479 584 479 586.5 467 c 128,-1,341
 589 455 589 455 589 445 c 0,342,343
 589 440 589 440 588.5 436 c 128,-1,344
 588 432 588 432 588 424 c 0,291,292
502 1239 m 0,345,346
 502 1253 502 1253 497 1259.5 c 128,-1,347
 492 1266 492 1266 466 1266 c 0,348,349
 414 1265 414 1265 379 1259 c 128,-1,350
 344 1253 344 1253 321.5 1243 c 128,-1,351
 299 1233 299 1233 286.5 1222 c 128,-1,352
 274 1211 274 1211 266.5 1201 c 128,-1,353
 259 1191 259 1191 255 1183.5 c 128,-1,354
 251 1176 251 1176 245 1174 c 1,355,-1
 245 1161 l 2,356,357
 245 1152 245 1152 241 1146 c 128,-1,358
 237 1140 237 1140 231.5 1134.5 c 128,-1,359
 226 1129 226 1129 220 1123.5 c 128,-1,360
 214 1118 214 1118 210 1110 c 0,361,362
 205 1101 205 1101 203.5 1091 c 128,-1,363
 202 1081 202 1081 199 1071.5 c 128,-1,364
 196 1062 196 1062 191 1053.5 c 128,-1,365
 186 1045 186 1045 176 1040 c 1,366,367
 180 1019 180 1019 189 998.5 c 128,-1,368
 198 978 198 978 198 955 c 2,369,-1
 198 948 l 1,370,371
 204 937 204 937 219 921.5 c 128,-1,372
 234 906 234 906 252.5 891.5 c 128,-1,373
 271 877 271 877 289.5 866 c 128,-1,374
 308 855 308 855 321 852 c 2,375,-1
 477 818 l 1,376,377
 486 811 486 811 491 821 c 128,-1,378
 496 831 496 831 498 849.5 c 128,-1,379
 500 868 500 868 499.5 891.5 c 128,-1,380
 499 915 499 915 498 934.5 c 128,-1,381
 497 954 497 954 496 966 c 128,-1,382
 495 978 495 978 495 973 c 1,383,384
 495 986 495 986 493.5 1003 c 128,-1,385
 492 1020 492 1020 490.5 1037 c 128,-1,386
 489 1054 489 1054 487.5 1069 c 128,-1,387
 486 1084 486 1084 486 1094 c 0,388,389
 486 1096 486 1096 489 1107.5 c 128,-1,390
 492 1119 492 1119 495 1132.5 c 128,-1,391
 498 1146 498 1146 501 1158.5 c 128,-1,392
 504 1171 504 1171 504 1176 c 256,393,394
 504 1181 504 1181 503 1199 c 128,-1,395
 502 1217 502 1217 502 1239 c 0,345,346
EndSplineSet
Validated: 33
EndChar

StartChar: percent
Encoding: 37 37 8
Width: 1366
GlyphClass: 3
Flags: W
LayerCount: 2
Fore
SplineSet
1313 1687 m 0,0,1
 1313 1669 1313 1669 1305.5 1657.5 c 128,-1,2
 1298 1646 1298 1646 1298 1628 c 0,3,4
 1298 1621 1298 1621 1299 1618 c 0,5,6
 1287 1598 1287 1598 1271.5 1580 c 128,-1,7
 1256 1562 1256 1562 1240.5 1544 c 128,-1,8
 1225 1526 1225 1526 1211 1506.5 c 128,-1,9
 1197 1487 1197 1487 1188 1464 c 1,10,11
 1174 1454 1174 1454 1163.5 1440.5 c 128,-1,12
 1153 1427 1153 1427 1143 1412.5 c 128,-1,13
 1133 1398 1133 1398 1123 1384.5 c 128,-1,14
 1113 1371 1113 1371 1100 1360 c 1,15,16
 1095 1339 1095 1339 1090.5 1321.5 c 128,-1,17
 1086 1304 1086 1304 1079.5 1289 c 128,-1,18
 1073 1274 1073 1274 1063 1259.5 c 128,-1,19
 1053 1245 1053 1245 1037 1229 c 0,20,21
 1012 1203 1012 1203 996 1171.5 c 128,-1,22
 980 1140 980 1140 965.5 1107.5 c 128,-1,23
 951 1075 951 1075 934 1044 c 128,-1,24
 917 1013 917 1013 891 989 c 0,25,26
 871 971 871 971 862.5 954 c 128,-1,27
 854 937 854 937 848.5 922.5 c 128,-1,28
 843 908 843 908 837.5 896 c 128,-1,29
 832 884 832 884 818 876 c 1,30,31
 814 852 814 852 803 830.5 c 128,-1,32
 792 809 792 809 777 790 c 1,33,34
 779 786 779 786 779 781 c 0,35,36
 779 770 779 770 775.5 760.5 c 128,-1,37
 772 751 772 751 767.5 742 c 128,-1,38
 763 733 763 733 759.5 723.5 c 128,-1,39
 756 714 756 714 756 704 c 0,40,41
 756 696 756 696 759 689 c 128,-1,42
 762 682 762 682 762 674 c 0,43,44
 762 644 762 644 741 625 c 128,-1,45
 720 606 720 606 699 592 c 0,46,47
 673 574 673 574 659 555 c 128,-1,48
 645 536 645 536 636 515.5 c 128,-1,49
 627 495 627 495 619 474 c 128,-1,50
 611 453 611 453 596 432 c 0,51,52
 588 420 588 420 581 410.5 c 128,-1,53
 574 401 574 401 568 389 c 0,54,55
 554 363 554 363 544.5 334.5 c 128,-1,56
 535 306 535 306 514 285 c 1,57,-1
 514 278 l 2,58,59
 514 268 514 268 511 261.5 c 128,-1,60
 508 255 508 255 504 250 c 128,-1,61
 500 245 500 245 496 239.5 c 128,-1,62
 492 234 492 234 490 227 c 2,63,-1
 490 215 l 2,64,65
 489 203 489 203 487.5 197.5 c 128,-1,66
 486 192 486 192 484 187.5 c 128,-1,67
 482 183 482 183 478 179 c 128,-1,68
 474 175 474 175 467 166 c 0,69,70
 457 154 457 154 454 140 c 128,-1,71
 451 126 451 126 445 115 c 0,72,73
 433 91 433 91 420 76.5 c 128,-1,74
 407 62 407 62 396.5 48.5 c 128,-1,75
 386 35 386 35 379.5 18 c 128,-1,76
 373 1 373 1 373 -29 c 2,77,-1
 373 -37 l 1,78,79
 364 -46 364 -46 352 -66.5 c 128,-1,80
 340 -87 340 -87 327.5 -113.5 c 128,-1,81
 315 -140 315 -140 302.5 -170 c 128,-1,82
 290 -200 290 -200 280 -228.5 c 128,-1,83
 270 -257 270 -257 262.5 -280.5 c 128,-1,84
 255 -304 255 -304 252 -318 c 1,85,86
 232 -340 232 -340 210.5 -359.5 c 128,-1,87
 189 -379 189 -379 156 -379 c 0,88,89
 147 -379 147 -379 138 -378 c 128,-1,90
 129 -377 129 -377 121 -377 c 1,91,92
 114 -367 114 -367 104.5 -358 c 128,-1,93
 95 -349 95 -349 86.5 -340 c 128,-1,94
 78 -331 78 -331 72 -321 c 128,-1,95
 66 -311 66 -311 66 -297 c 0,96,97
 66 -288 66 -288 69 -280.5 c 128,-1,98
 72 -273 72 -273 75 -267 c 128,-1,99
 78 -261 78 -261 81 -255 c 128,-1,100
 84 -249 84 -249 84 -242 c 2,101,-1
 84 -236 l 1,102,103
 93 -218 93 -218 106 -201 c 128,-1,104
 119 -184 119 -184 131 -166.5 c 128,-1,105
 143 -149 143 -149 152 -130 c 128,-1,106
 161 -111 161 -111 162 -90 c 1,107,108
 178 -75 178 -75 192 -57 c 128,-1,109
 206 -39 206 -39 222 -25 c 1,110,111
 225 -6 225 -6 236 6.5 c 128,-1,112
 247 19 247 19 258 35 c 0,113,114
 277 63 277 63 289 94.5 c 128,-1,115
 301 126 301 126 312 158 c 128,-1,116
 323 190 323 190 336 222 c 128,-1,117
 349 254 349 254 371 283 c 0,118,119
 380 295 380 295 382.5 302.5 c 128,-1,120
 385 310 385 310 387.5 317 c 128,-1,121
 390 324 390 324 396.5 331 c 128,-1,122
 403 338 403 338 420 350 c 1,123,124
 422 373 422 373 432 392.5 c 128,-1,125
 442 412 442 412 455 430 c 128,-1,126
 468 448 468 448 481 466 c 128,-1,127
 494 484 494 484 502 504 c 0,128,129
 514 530 514 530 525 562 c 128,-1,130
 536 594 536 594 553 616 c 0,131,132
 562 627 562 627 568 633 c 128,-1,133
 574 639 574 639 578.5 645 c 128,-1,134
 583 651 583 651 586 659 c 128,-1,135
 589 667 589 667 592 682 c 0,136,137
 596 700 596 700 600 712 c 128,-1,138
 604 724 604 724 609.5 734 c 128,-1,139
 615 744 615 744 623 753 c 128,-1,140
 631 762 631 762 643 774 c 0,141,142
 666 796 666 796 673 809 c 128,-1,143
 680 822 680 822 684.5 834 c 128,-1,144
 689 846 689 846 697 860.5 c 128,-1,145
 705 875 705 875 730 901 c 0,146,147
 738 910 738 910 743 920.5 c 128,-1,148
 748 931 748 931 751 942.5 c 128,-1,149
 754 954 754 954 757.5 966 c 128,-1,150
 761 978 761 978 766 989 c 0,151,152
 775 1009 775 1009 791 1039 c 128,-1,153
 807 1069 807 1069 823 1097 c 128,-1,154
 839 1125 839 1125 850.5 1146.5 c 128,-1,155
 862 1168 862 1168 862 1171 c 0,156,157
 862 1179 862 1179 861 1182 c 0,158,159
 876 1205 876 1205 892.5 1225.5 c 128,-1,160
 909 1246 909 1246 924 1268 c 1,161,-1
 924 1278 l 2,162,163
 924 1299 924 1299 932.5 1311.5 c 128,-1,164
 941 1324 941 1324 950.5 1335 c 128,-1,165
 960 1346 960 1346 968.5 1357 c 128,-1,166
 977 1368 977 1368 977 1386 c 1,167,168
 939 1378 939 1378 906.5 1360.5 c 128,-1,169
 874 1343 874 1343 842 1323 c 0,170,171
 800 1297 800 1297 753.5 1286.5 c 128,-1,172
 707 1276 707 1276 662 1259 c 0,173,174
 656 1253 656 1253 656 1243 c 0,175,176
 656 1223 656 1223 666.5 1203 c 128,-1,177
 677 1183 677 1183 682 1163 c 1,178,179
 670 1146 670 1146 667 1125.5 c 128,-1,180
 664 1105 664 1105 664 1084 c 2,181,-1
 664 1053 l 2,182,183
 664 1028 664 1028 659.5 1005 c 128,-1,184
 655 982 655 982 637 964 c 1,185,-1
 637 956 l 2,186,187
 637 940 637 940 632.5 930.5 c 128,-1,188
 628 921 628 921 621 914.5 c 128,-1,189
 614 908 614 908 604 902 c 128,-1,190
 594 896 594 896 584 887 c 0,191,192
 562 867 562 867 544 845.5 c 128,-1,193
 526 824 526 824 506.5 806 c 128,-1,194
 487 788 487 788 463 776 c 128,-1,195
 439 764 439 764 406 764 c 0,196,197
 374 764 374 764 342.5 754.5 c 128,-1,198
 311 745 311 745 279 745 c 0,199,200
 256 745 256 745 247 750.5 c 128,-1,201
 238 756 238 756 222 770 c 0,202,203
 208 783 208 783 192.5 791 c 128,-1,204
 177 799 177 799 164 813 c 0,205,206
 154 824 154 824 145 846 c 128,-1,207
 136 868 136 868 129.5 893 c 128,-1,208
 123 918 123 918 119 942 c 128,-1,209
 115 966 115 966 115 981 c 0,210,211
 115 1024 115 1024 119.5 1050 c 128,-1,212
 124 1076 124 1076 132 1097.5 c 128,-1,213
 140 1119 140 1119 151.5 1141.5 c 128,-1,214
 163 1164 163 1164 177 1200 c 0,215,216
 185 1222 185 1222 190 1243.5 c 128,-1,217
 195 1265 195 1265 209 1284 c 0,218,219
 222 1299 222 1299 247.5 1316 c 128,-1,220
 273 1333 273 1333 302 1346.5 c 128,-1,221
 331 1360 331 1360 360 1369 c 128,-1,222
 389 1378 389 1378 410 1378 c 0,223,224
 425 1378 425 1378 439 1374.5 c 128,-1,225
 453 1371 453 1371 467.5 1367 c 128,-1,226
 482 1363 482 1363 497 1359.5 c 128,-1,227
 512 1356 512 1356 527 1356 c 0,228,229
 538 1356 538 1356 551.5 1365.5 c 128,-1,230
 565 1375 565 1375 576 1380 c 1,231,-1
 590 1380 l 2,232,233
 604 1380 604 1380 631 1389 c 128,-1,234
 658 1398 658 1398 691 1412 c 128,-1,235
 724 1426 724 1426 759.5 1444 c 128,-1,236
 795 1462 795 1462 826 1480.5 c 128,-1,237
 857 1499 857 1499 879 1516 c 128,-1,238
 901 1533 901 1533 908 1546 c 1,239,240
 930 1564 930 1564 944.5 1591 c 128,-1,241
 959 1618 959 1618 979 1638 c 0,242,243
 994 1653 994 1653 1014 1660 c 128,-1,244
 1034 1667 1034 1667 1053 1672 c 128,-1,245
 1072 1677 1072 1677 1088 1685.5 c 128,-1,246
 1104 1694 1104 1694 1112 1712 c 0,247,248
 1121 1733 1121 1733 1128 1746.5 c 128,-1,249
 1135 1760 1135 1760 1145.5 1768.5 c 128,-1,250
 1156 1777 1156 1777 1171.5 1780.5 c 128,-1,251
 1187 1784 1187 1784 1211 1784 c 0,252,253
 1225 1784 1225 1784 1242.5 1774.5 c 128,-1,254
 1260 1765 1260 1765 1276 1750.5 c 128,-1,255
 1292 1736 1292 1736 1302.5 1719 c 128,-1,256
 1313 1702 1313 1702 1313 1687 c 0,0,1
1207 409 m 0,257,258
 1207 388 1207 388 1206 366.5 c 128,-1,259
 1205 345 1205 345 1205 323 c 1,260,261
 1195 312 1195 312 1189 298 c 128,-1,262
 1183 284 1183 284 1177 270 c 128,-1,263
 1171 256 1171 256 1163.5 242.5 c 128,-1,264
 1156 229 1156 229 1143 219 c 1,265,266
 1139 198 1139 198 1129 181 c 128,-1,267
 1119 164 1119 164 1105 149.5 c 128,-1,268
 1091 135 1091 135 1074.5 122.5 c 128,-1,269
 1058 110 1058 110 1041 98 c 1,270,-1
 1036 98 l 2,271,272
 1018 98 1018 98 1001 92 c 128,-1,273
 984 86 984 86 966.5 78.5 c 128,-1,274
 949 71 949 71 931 65 c 128,-1,275
 913 59 913 59 893 59 c 0,276,277
 860 59 860 59 830.5 70 c 128,-1,278
 801 81 801 81 775.5 99.5 c 128,-1,279
 750 118 750 118 729 142.5 c 128,-1,280
 708 167 708 167 691 194 c 1,281,282
 691 204 691 204 692 213 c 128,-1,283
 693 222 693 222 693 231 c 0,284,285
 693 254 693 254 685.5 277 c 128,-1,286
 678 300 678 300 678 323 c 0,287,288
 678 337 678 337 682 350 c 128,-1,289
 686 363 686 363 691.5 376 c 128,-1,290
 697 389 697 389 701 402 c 128,-1,291
 705 415 705 415 705 430 c 0,292,293
 705 442 705 442 707.5 449.5 c 128,-1,294
 710 457 710 457 714.5 463 c 128,-1,295
 719 469 719 469 724 475 c 128,-1,296
 729 481 729 481 734 489 c 0,297,298
 754 521 754 521 777 555.5 c 128,-1,299
 800 590 800 590 828.5 618.5 c 128,-1,300
 857 647 857 647 891.5 665.5 c 128,-1,301
 926 684 926 684 969 684 c 0,302,303
 995 684 995 684 1019.5 678.5 c 128,-1,304
 1044 673 1044 673 1069 673 c 0,305,306
 1081 673 1081 673 1084 674 c 0,307,308
 1117 651 1117 651 1140.5 621.5 c 128,-1,309
 1164 592 1164 592 1178.5 557.5 c 128,-1,310
 1193 523 1193 523 1200 485.5 c 128,-1,311
 1207 448 1207 448 1207 409 c 0,257,258
545 1104 m 0,312,313
 545 1132 545 1132 538.5 1160 c 128,-1,314
 532 1188 532 1188 517 1212 c 1,315,316
 506 1218 506 1218 493 1220.5 c 128,-1,317
 480 1223 480 1223 467 1223 c 0,318,319
 429 1223 429 1223 392 1205.5 c 128,-1,320
 355 1188 355 1188 330 1159 c 1,321,322
 327 1132 327 1132 316 1113 c 128,-1,323
 305 1094 305 1094 293.5 1074 c 128,-1,324
 282 1054 282 1054 272.5 1028 c 128,-1,325
 263 1002 263 1002 263 960 c 0,326,327
 263 941 263 941 268 922.5 c 128,-1,328
 273 904 273 904 283.5 890 c 128,-1,329
 294 876 294 876 310 867 c 128,-1,330
 326 858 326 858 349 858 c 0,331,332
 363 858 363 858 376.5 864.5 c 128,-1,333
 390 871 390 871 404 879.5 c 128,-1,334
 418 888 418 888 432.5 895 c 128,-1,335
 447 902 447 902 463 903 c 1,336,337
 469 914 469 914 477.5 923.5 c 128,-1,338
 486 933 486 933 492 944 c 1,339,340
 492 962 492 962 496 973 c 1,341,342
 522 999 522 999 533.5 1034 c 128,-1,343
 545 1069 545 1069 545 1104 c 0,312,313
1102 444 m 0,344,345
 1102 473 1102 473 1088.5 498.5 c 128,-1,346
 1075 524 1075 524 1059 547 c 1,347,348
 1042 552 1042 552 1025.5 563.5 c 128,-1,349
 1009 575 1009 575 992 575 c 0,350,351
 980 575 980 575 969 570 c 128,-1,352
 958 565 958 565 947.5 558.5 c 128,-1,353
 937 552 937 552 926 545.5 c 128,-1,354
 915 539 915 539 904 536 c 1,355,356
 891 515 891 515 867 502 c 1,357,358
 862 477 862 477 850 460 c 128,-1,359
 838 443 838 443 825 422.5 c 128,-1,360
 812 402 812 402 802.5 374 c 128,-1,361
 793 346 793 346 793 299 c 0,362,363
 793 282 793 282 799.5 263 c 128,-1,364
 806 244 806 244 817 228.5 c 128,-1,365
 828 213 828 213 844 202.5 c 128,-1,366
 860 192 860 192 879 192 c 0,367,368
 903 192 903 192 921 195.5 c 128,-1,369
 939 199 939 199 954.5 206 c 128,-1,370
 970 213 970 213 986 222.5 c 128,-1,371
 1002 232 1002 232 1022 244 c 1,372,373
 1029 271 1029 271 1046 292.5 c 128,-1,374
 1063 314 1063 314 1082 334 c 0,375,376
 1080 336 1080 336 1080 342 c 0,377,378
 1080 357 1080 357 1083.5 369 c 128,-1,379
 1087 381 1087 381 1091 393 c 128,-1,380
 1095 405 1095 405 1098.5 417.5 c 128,-1,381
 1102 430 1102 430 1102 444 c 0,344,345
EndSplineSet
Validated: 1
Ligature2: "Ligature Substitution lookup 7 subtable" zero slash zero
EndChar

StartChar: ampersand
Encoding: 38 38 9
Width: 1385
GlyphClass: 2
Flags: W
LayerCount: 2
Fore
SplineSet
1319 287 m 0,0,1
 1319 249 1319 249 1308 211.5 c 128,-1,2
 1297 174 1297 174 1279.5 141 c 128,-1,3
 1262 108 1262 108 1241 81.5 c 128,-1,4
 1220 55 1220 55 1201 40 c 1,5,-1
 1177 40 l 2,6,7
 1167 40 1167 40 1158 32.5 c 128,-1,8
 1149 25 1149 25 1139 16 c 1,9,10
 1121 11 1121 11 1102 8.5 c 128,-1,11
 1083 6 1083 6 1063 6 c 0,12,13
 992 6 992 6 934.5 38.5 c 128,-1,14
 877 71 877 71 829 118 c 1,15,16
 811 108 811 108 790 97 c 128,-1,17
 769 86 769 86 751 78 c 2,18,-1
 738 72 l 1,19,-1
 739 72 l 1,20,21
 729 67 729 67 720.5 60.5 c 128,-1,22
 712 54 712 54 705 48 c 0,23,24
 683 28 683 28 660 20 c 128,-1,25
 637 12 637 12 614 9 c 128,-1,26
 591 6 591 6 568.5 5 c 128,-1,27
 546 4 546 4 525 -2 c 1,28,-1
 526 -1 l 1,29,-1
 501 12 l 1,30,-1
 490 6 l 2,31,32
 486 4 486 4 487 1.5 c 128,-1,33
 488 -1 488 -1 490 -3.5 c 128,-1,34
 492 -6 492 -6 493 -8 c 128,-1,35
 494 -10 494 -10 491 -10 c 0,36,37
 476 -10 476 -10 463 -4 c 128,-1,38
 450 2 450 2 435 2 c 0,39,40
 421 2 421 2 406.5 0 c 128,-1,41
 392 -2 392 -2 378 -2 c 0,42,43
 361 -2 361 -2 346.5 4 c 128,-1,44
 332 10 332 10 318 17 c 128,-1,45
 304 24 304 24 290.5 30 c 128,-1,46
 277 36 277 36 263 36 c 0,47,48
 252 36 252 36 236.5 46.5 c 128,-1,49
 221 57 221 57 206 72 c 128,-1,50
 191 87 191 87 179.5 103.5 c 128,-1,51
 168 120 168 120 166 132 c 1,52,53
 155 138 155 138 144.5 144.5 c 128,-1,54
 134 151 134 151 124 159 c 1,55,-1
 119 176 l 1,56,-1
 119 175 l 1,57,58
 114 190 114 190 110 206.5 c 128,-1,59
 106 223 106 223 105 243 c 1,60,61
 85 269 85 269 77 300 c 128,-1,62
 69 331 69 331 69 363 c 0,63,64
 69 402 69 402 83 433 c 1,65,66
 79 441 79 441 74.5 448 c 128,-1,67
 70 455 70 455 65 463 c 1,68,69
 70 514 70 514 88 562.5 c 128,-1,70
 106 611 106 611 136 650.5 c 128,-1,71
 166 690 166 690 208 719.5 c 128,-1,72
 250 749 250 749 304 763 c 0,73,74
 329 770 329 770 348 777.5 c 128,-1,75
 367 785 367 785 383.5 794 c 128,-1,76
 400 803 400 803 414.5 813 c 128,-1,77
 429 823 429 823 444 836 c 1,78,79
 443 856 443 856 436 868.5 c 128,-1,80
 429 881 429 881 420 896 c 0,81,82
 414 905 414 905 405.5 923 c 128,-1,83
 397 941 397 941 388 960 c 128,-1,84
 379 979 379 979 369.5 996 c 128,-1,85
 360 1013 360 1013 353 1021 c 2,86,-1
 344 1030 l 2,87,88
 333 1040 333 1040 325 1050 c 0,89,90
 322 1055 322 1055 317.5 1071.5 c 128,-1,91
 313 1088 313 1088 309.5 1107.5 c 128,-1,92
 306 1127 306 1127 303 1144.5 c 128,-1,93
 300 1162 300 1162 300 1169 c 0,94,95
 300 1220 300 1220 311 1246 c 128,-1,96
 322 1272 322 1272 337.5 1289 c 128,-1,97
 353 1306 353 1306 370.5 1322.5 c 128,-1,98
 388 1339 388 1339 402 1372 c 1,99,100
 426 1390 426 1390 456.5 1401 c 128,-1,101
 487 1412 487 1412 520.5 1418.5 c 128,-1,102
 554 1425 554 1425 588.5 1429 c 128,-1,103
 623 1433 623 1433 655 1436 c 2,104,-1
 716 1442 l 1,105,106
 734 1437 734 1437 754 1423 c 128,-1,107
 774 1409 774 1409 792.5 1388.5 c 128,-1,108
 811 1368 811 1368 828 1343.5 c 128,-1,109
 845 1319 845 1319 858 1295 c 128,-1,110
 871 1271 871 1271 878.5 1249 c 128,-1,111
 886 1227 886 1227 886 1211 c 0,112,113
 886 1191 886 1191 882.5 1164.5 c 128,-1,114
 879 1138 879 1138 873 1111 c 128,-1,115
 867 1084 867 1084 858 1059 c 128,-1,116
 849 1034 849 1034 838 1018 c 0,117,118
 834 1013 834 1013 831.5 1006.5 c 128,-1,119
 829 1000 829 1000 827 995 c 1,120,-1
 828 995 l 1,121,122
 824 983 824 983 819 972 c 128,-1,123
 814 961 814 961 803 955 c 0,124,125
 783 945 783 945 778 936.5 c 128,-1,126
 773 928 773 928 771 919.5 c 128,-1,127
 769 911 769 911 763 902 c 128,-1,128
 757 893 757 893 735 881 c 0,129,130
 721 872 721 872 711 866 c 128,-1,131
 701 860 701 860 691 854.5 c 128,-1,132
 681 849 681 849 669.5 844 c 128,-1,133
 658 839 658 839 642 833 c 1,134,-1
 642 832 l 2,135,136
 640 821 640 821 637.5 813 c 128,-1,137
 635 805 635 805 627 797 c 1,138,139
 634 784 634 784 645 762.5 c 128,-1,140
 656 741 656 741 661 727 c 2,141,-1
 668 708 l 1,142,-1
 668 709 l 2,143,144
 671 698 671 698 678 690.5 c 128,-1,145
 685 683 685 683 693 675 c 2,146,-1
 703 664 l 2,147,148
 716 645 716 645 721 628 c 128,-1,149
 726 611 726 611 728.5 595 c 128,-1,150
 731 579 731 579 733.5 565 c 128,-1,151
 736 551 736 551 744 539 c 1,152,-1
 744 540 l 1,153,154
 749 532 749 532 759 516.5 c 128,-1,155
 769 501 769 501 780 484 c 128,-1,156
 791 467 791 467 802.5 451.5 c 128,-1,157
 814 436 814 436 823 429 c 1,158,159
 832 441 832 441 834 451.5 c 128,-1,160
 836 462 836 462 836 472.5 c 128,-1,161
 836 483 836 483 836.5 496 c 128,-1,162
 837 509 837 509 843 526 c 1,163,-1
 842 526 l 2,164,165
 843 529 843 529 845.5 529.5 c 128,-1,166
 848 530 848 530 851 529.5 c 128,-1,167
 854 529 854 529 856.5 529 c 128,-1,168
 859 529 859 529 860 531 c 2,169,-1
 860 544 l 2,170,171
 862 546 862 546 859.5 551.5 c 128,-1,172
 857 557 857 557 857 556 c 2,173,-1
 857 555 l 2,174,175
 860 561 860 561 864.5 580.5 c 128,-1,176
 869 600 869 600 873.5 623.5 c 128,-1,177
 878 647 878 647 881.5 667.5 c 128,-1,178
 885 688 885 688 886 695 c 0,179,180
 891 701 891 701 893 709.5 c 128,-1,181
 895 718 895 718 895.5 728 c 128,-1,182
 896 738 896 738 897.5 747.5 c 128,-1,183
 899 757 899 757 902 763 c 0,184,185
 916 789 916 789 930 805.5 c 128,-1,186
 944 822 944 822 968 838 c 0,187,188
 996 852 996 852 1008.5 862.5 c 128,-1,189
 1021 873 1021 873 1033.5 880 c 128,-1,190
 1046 887 1046 887 1066.5 890.5 c 128,-1,191
 1087 894 1087 894 1131 894 c 0,192,193
 1164 894 1164 894 1189 891 c 128,-1,194
 1214 888 1214 888 1233.5 876 c 128,-1,195
 1253 864 1253 864 1268.5 840 c 128,-1,196
 1284 816 1284 816 1298 774 c 1,197,-1
 1297 775 l 1,198,199
 1304 758 1304 758 1304 741 c 0,200,201
 1304 726 1304 726 1302.5 716.5 c 128,-1,202
 1301 707 1301 707 1298 701 c 128,-1,203
 1295 695 1295 695 1290 691 c 128,-1,204
 1285 687 1285 687 1279 682 c 0,205,206
 1263 670 1263 670 1257.5 658.5 c 128,-1,207
 1252 647 1252 647 1247.5 639 c 128,-1,208
 1243 631 1243 631 1234.5 626 c 128,-1,209
 1226 621 1226 621 1204 621 c 0,210,211
 1180 621 1180 621 1154.5 630.5 c 128,-1,212
 1129 640 1129 640 1107 652 c 128,-1,213
 1085 664 1085 664 1069.5 673.5 c 128,-1,214
 1054 683 1054 683 1051 683 c 0,215,216
 1030 683 1030 683 1009 658.5 c 128,-1,217
 988 634 988 634 969.5 600.5 c 128,-1,218
 951 567 951 567 937.5 533 c 128,-1,219
 924 499 924 499 918 481 c 1,220,221
 922 470 922 470 922 455 c 0,222,223
 922 436 922 436 921 423 c 128,-1,224
 920 410 920 410 917.5 397.5 c 128,-1,225
 915 385 915 385 911.5 370.5 c 128,-1,226
 908 356 908 356 904 335 c 0,227,228
 905 330 905 330 908.5 320 c 128,-1,229
 912 310 912 310 916.5 299.5 c 128,-1,230
 921 289 921 289 925.5 279.5 c 128,-1,231
 930 270 930 270 932 266 c 2,232,-1
 932 267 l 1,233,234
 938 256 938 256 943.5 245 c 128,-1,235
 949 234 949 234 951 220 c 1,236,237
 976 203 976 203 1002.5 192.5 c 128,-1,238
 1029 182 1029 182 1061 182 c 0,239,240
 1110 182 1110 182 1139 217 c 1,241,242
 1144 235 1144 235 1147 261.5 c 128,-1,243
 1150 288 1150 288 1158.5 313.5 c 128,-1,244
 1167 339 1167 339 1185.5 357 c 128,-1,245
 1204 375 1204 375 1240 375 c 0,246,247
 1287 375 1287 375 1303 353 c 128,-1,248
 1319 331 1319 331 1319 287 c 0,0,1
735 1210 m 1,249,-1
 735 1209 l 1,250,251
 725 1226 725 1226 715 1242 c 128,-1,252
 705 1258 705 1258 692 1270.5 c 128,-1,253
 679 1283 679 1283 662 1290.5 c 128,-1,254
 645 1298 645 1298 623 1298 c 256,255,256
 601 1298 601 1298 575.5 1289 c 128,-1,257
 550 1280 550 1280 528 1264.5 c 128,-1,258
 506 1249 506 1249 491 1229 c 128,-1,259
 476 1209 476 1209 476 1187 c 2,260,-1
 476 1181 l 2,261,262
 476 1154 476 1154 486.5 1128 c 128,-1,263
 497 1102 497 1102 497 1075 c 2,264,-1
 497 1072 l 1,265,266
 509 1058 509 1058 516.5 1030.5 c 128,-1,267
 524 1003 524 1003 532.5 975.5 c 128,-1,268
 541 948 541 948 552.5 927.5 c 128,-1,269
 564 907 564 907 585 907 c 0,270,271
 596 907 596 907 604.5 914 c 128,-1,272
 613 921 613 921 621 929 c 2,273,-1
 624 932 l 2,274,275
 631 940 631 940 638.5 952 c 128,-1,276
 646 964 646 964 653.5 976 c 128,-1,277
 661 988 661 988 669.5 997.5 c 128,-1,278
 678 1007 678 1007 687 1011 c 1,279,280
 694 1032 694 1032 703 1053 c 128,-1,281
 712 1074 712 1074 721 1096.5 c 128,-1,282
 730 1119 730 1119 737 1141.5 c 128,-1,283
 744 1164 744 1164 747 1188 c 1,284,-1
 735 1210 l 1,249,-1
639 213 m 0,285,286
 658 220 658 220 678.5 228.5 c 128,-1,287
 699 237 699 237 715.5 247 c 128,-1,288
 732 257 732 257 742.5 268.5 c 128,-1,289
 753 280 753 280 753 294 c 0,290,291
 750 315 750 315 730 333 c 2,292,-1
 720 342 l 2,293,294
 709 354 709 354 702 367.5 c 128,-1,295
 695 381 695 381 688 395.5 c 128,-1,296
 681 410 681 410 673 426 c 128,-1,297
 665 442 665 442 653 459 c 1,298,299
 648 488 648 488 635.5 513.5 c 128,-1,300
 623 539 623 539 608.5 563 c 128,-1,301
 594 587 594 587 580.5 609.5 c 128,-1,302
 567 632 567 632 559 656 c 2,303,-1
 552 677 l 2,304,305
 549 686 549 686 546 695 c 128,-1,306
 543 704 543 704 538.5 711 c 128,-1,307
 534 718 534 718 525.5 722.5 c 128,-1,308
 517 727 517 727 504 727 c 0,309,310
 480 727 480 727 458 718 c 128,-1,311
 436 709 436 709 415 697.5 c 128,-1,312
 394 686 394 686 372.5 675.5 c 128,-1,313
 351 665 351 665 329 661 c 1,314,315
 296 648 296 648 283 631 c 128,-1,316
 270 614 270 614 265 595 c 128,-1,317
 260 576 260 576 257.5 556.5 c 128,-1,318
 255 537 255 537 243 521 c 1,319,-1
 243 522 l 1,320,321
 237 511 237 511 230.5 503 c 128,-1,322
 224 495 224 495 217 485 c 0,323,324
 217 482 217 482 209.5 479.5 c 128,-1,325
 202 477 202 477 192.5 473.5 c 128,-1,326
 183 470 183 470 175 464.5 c 128,-1,327
 167 459 167 459 166 450 c 0,328,329
 169 431 169 431 177.5 424 c 128,-1,330
 186 417 186 417 194.5 415.5 c 128,-1,331
 203 414 203 414 210 415 c 128,-1,332
 217 416 217 416 217 412 c 0,333,334
 217 395 217 395 222.5 378.5 c 128,-1,335
 228 362 228 362 234 346 c 128,-1,336
 240 330 240 330 245.5 315.5 c 128,-1,337
 251 301 251 301 251 288 c 2,338,-1
 251 287 l 1,339,340
 255 283 255 283 259.5 280 c 128,-1,341
 264 277 264 277 268 272 c 1,342,-1
 267 272 l 1,343,344
 293 243 293 243 320 219 c 128,-1,345
 347 195 347 195 381 182 c 1,346,347
 391 183 391 183 404 183 c 128,-1,348
 417 183 417 183 428 183 c 256,349,350
 439 183 439 183 451 182.5 c 128,-1,351
 463 182 463 182 475 182 c 2,352,-1
 571 182 l 1,353,354
 583 190 583 190 601 197.5 c 128,-1,355
 619 205 619 205 639 213 c 0,285,286
815 153 m 0,356,357
 815 169 815 169 808.5 181 c 128,-1,358
 802 193 802 193 785 195 c 1,359,360
 785 191 785 191 784.5 187.5 c 128,-1,361
 784 184 784 184 784 180 c 0,362,363
 784 164 784 164 783 155 c 128,-1,364
 782 146 782 146 799 144 c 1,365,366
 799 148 799 148 807 148.5 c 128,-1,367
 815 149 815 149 815 153 c 0,356,357
EndSplineSet
Validated: 5
EndChar

StartChar: quotesingle
Encoding: 39 39 10
Width: 402
GlyphClass: 2
Flags: W
LayerCount: 2
Fore
SplineSet
219 920 m 1,0,1
 201 920 201 920 187 935 c 128,-1,2
 173 950 173 950 164 970 c 128,-1,3
 155 990 155 990 152 1010 c 128,-1,4
 149 1030 149 1030 154 1041 c 0,5,6
 151 1043 151 1043 150 1050 c 128,-1,7
 149 1057 149 1057 148 1065 c 128,-1,8
 147 1073 147 1073 147 1080.5 c 128,-1,9
 147 1088 147 1088 147 1092 c 0,10,11
 147 1099 147 1099 152.5 1101 c 128,-1,12
 158 1103 158 1103 163 1111 c 0,13,14
 167 1118 167 1118 161.5 1124.5 c 128,-1,15
 156 1131 156 1131 147.5 1135.5 c 128,-1,16
 139 1140 139 1140 130.5 1143.5 c 128,-1,17
 122 1147 122 1147 122 1148 c 0,18,19
 125 1172 125 1172 122 1192.5 c 128,-1,20
 119 1213 119 1213 114.5 1230.5 c 128,-1,21
 110 1248 110 1248 106 1262 c 128,-1,22
 102 1276 102 1276 102 1288 c 0,23,24
 102 1304 102 1304 100 1323.5 c 128,-1,25
 98 1343 98 1343 98.5 1361.5 c 128,-1,26
 99 1380 99 1380 103.5 1396 c 128,-1,27
 108 1412 108 1412 121 1422 c 0,28,29
 131 1429 131 1429 149 1433.5 c 128,-1,30
 167 1438 167 1438 187 1438.5 c 128,-1,31
 207 1439 207 1439 226 1436.5 c 128,-1,32
 245 1434 245 1434 256 1427 c 0,33,34
 274 1416 274 1416 281.5 1401 c 128,-1,35
 289 1386 289 1386 291 1369.5 c 128,-1,36
 293 1353 293 1353 291.5 1337 c 128,-1,37
 290 1321 290 1321 290 1309 c 0,38,39
 290 1285 290 1285 283.5 1261 c 128,-1,40
 277 1237 277 1237 277 1213 c 0,41,42
 277 1191 277 1191 276 1173.5 c 128,-1,43
 275 1156 275 1156 275 1134 c 0,44,45
 275 1115 275 1115 268 1087.5 c 128,-1,46
 261 1060 261 1060 261 1041 c 0,47,48
 261 1029 261 1029 260 1010.5 c 128,-1,49
 259 992 259 992 255 973.5 c 128,-1,50
 251 955 251 955 242.5 940 c 128,-1,51
 234 925 234 925 219 920 c 1,0,1
EndSplineSet
Validated: 1
PairPos2: "'kern' Horizontal Kerning in Latin lookup 0 per glyph data 1" ellipsis dx=0 dy=0 dh=-200 dv=0 dx=0 dy=0 dh=0 dv=0
PairPos2: "'kern' Horizontal Kerning in Latin lookup 0 per glyph data 1" ellipsis dx=0 dy=0 dh=-200 dv=0 dx=0 dy=0 dh=0 dv=0
PairPos2: "'kern' Horizontal Kerning in Latin lookup 0 per glyph data 1" ellipsis dx=0 dy=0 dh=-200 dv=0 dx=0 dy=0 dh=0 dv=0
PairPos2: "'kern' Horizontal Kerning in Latin lookup 0 per glyph data 1" ellipsis dx=0 dy=0 dh=-200 dv=0 dx=0 dy=0 dh=0 dv=0
PairPos2: "'kern' Horizontal Kerning in Latin lookup 0 per glyph data 1" ellipsis dx=0 dy=0 dh=-200 dv=0 dx=0 dy=0 dh=0 dv=0
PairPos2: "'kern' Horizontal Kerning in Latin lookup 0 per glyph data 1" quotedblbase dx=0 dy=0 dh=-200 dv=0 dx=0 dy=0 dh=0 dv=0
PairPos2: "'kern' Horizontal Kerning in Latin lookup 0 per glyph data 1" quotedblbase dx=0 dy=0 dh=-200 dv=0 dx=0 dy=0 dh=0 dv=0
PairPos2: "'kern' Horizontal Kerning in Latin lookup 0 per glyph data 1" quotedblbase dx=0 dy=0 dh=-200 dv=0 dx=0 dy=0 dh=0 dv=0
PairPos2: "'kern' Horizontal Kerning in Latin lookup 0 per glyph data 1" quotedblbase dx=0 dy=0 dh=-200 dv=0 dx=0 dy=0 dh=0 dv=0
PairPos2: "'kern' Horizontal Kerning in Latin lookup 0 per glyph data 1" quotedblbase dx=0 dy=0 dh=-200 dv=0 dx=0 dy=0 dh=0 dv=0
PairPos2: "'kern' Horizontal Kerning in Latin lookup 0 per glyph data 1" quotesinglbase dx=0 dy=0 dh=-200 dv=0 dx=0 dy=0 dh=0 dv=0
PairPos2: "'kern' Horizontal Kerning in Latin lookup 0 per glyph data 1" quotesinglbase dx=0 dy=0 dh=-200 dv=0 dx=0 dy=0 dh=0 dv=0
PairPos2: "'kern' Horizontal Kerning in Latin lookup 0 per glyph data 1" quotesinglbase dx=0 dy=0 dh=-200 dv=0 dx=0 dy=0 dh=0 dv=0
PairPos2: "'kern' Horizontal Kerning in Latin lookup 0 per glyph data 1" quotesinglbase dx=0 dy=0 dh=-200 dv=0 dx=0 dy=0 dh=0 dv=0
PairPos2: "'kern' Horizontal Kerning in Latin lookup 0 per glyph data 1" quotesinglbase dx=0 dy=0 dh=-200 dv=0 dx=0 dy=0 dh=0 dv=0
PairPos2: "'kern' Horizontal Kerning in Latin lookup 0 per glyph data 1" J dx=0 dy=0 dh=-70 dv=0 dx=0 dy=0 dh=0 dv=0
PairPos2: "'kern' Horizontal Kerning in Latin lookup 0 per glyph data 1" J dx=0 dy=0 dh=-70 dv=0 dx=0 dy=0 dh=0 dv=0
PairPos2: "'kern' Horizontal Kerning in Latin lookup 0 per glyph data 1" J dx=0 dy=0 dh=-70 dv=0 dx=0 dy=0 dh=0 dv=0
PairPos2: "'kern' Horizontal Kerning in Latin lookup 0 per glyph data 1" J dx=0 dy=0 dh=-70 dv=0 dx=0 dy=0 dh=0 dv=0
PairPos2: "'kern' Horizontal Kerning in Latin lookup 0 per glyph data 1" J dx=0 dy=0 dh=-70 dv=0 dx=0 dy=0 dh=0 dv=0
PairPos2: "'kern' Horizontal Kerning in Latin lookup 0 per glyph data 1" A dx=0 dy=0 dh=-65 dv=0 dx=0 dy=0 dh=0 dv=0
PairPos2: "'kern' Horizontal Kerning in Latin lookup 0 per glyph data 1" A dx=0 dy=0 dh=-65 dv=0 dx=0 dy=0 dh=0 dv=0
PairPos2: "'kern' Horizontal Kerning in Latin lookup 0 per glyph data 1" A dx=0 dy=0 dh=-65 dv=0 dx=0 dy=0 dh=0 dv=0
PairPos2: "'kern' Horizontal Kerning in Latin lookup 0 per glyph data 1" A dx=0 dy=0 dh=-65 dv=0 dx=0 dy=0 dh=0 dv=0
PairPos2: "'kern' Horizontal Kerning in Latin lookup 0 per glyph data 1" A dx=0 dy=0 dh=-65 dv=0 dx=0 dy=0 dh=0 dv=0
PairPos2: "'kern' Horizontal Kerning in Latin lookup 0 per glyph data 1" four dx=0 dy=0 dh=-57 dv=0 dx=0 dy=0 dh=0 dv=0
PairPos2: "'kern' Horizontal Kerning in Latin lookup 0 per glyph data 1" four dx=0 dy=0 dh=-57 dv=0 dx=0 dy=0 dh=0 dv=0
PairPos2: "'kern' Horizontal Kerning in Latin lookup 0 per glyph data 1" four dx=0 dy=0 dh=-57 dv=0 dx=0 dy=0 dh=0 dv=0
PairPos2: "'kern' Horizontal Kerning in Latin lookup 0 per glyph data 1" four dx=0 dy=0 dh=-57 dv=0 dx=0 dy=0 dh=0 dv=0
PairPos2: "'kern' Horizontal Kerning in Latin lookup 0 per glyph data 1" four dx=0 dy=0 dh=-57 dv=0 dx=0 dy=0 dh=0 dv=0
PairPos2: "'kern' Horizontal Kerning in Latin lookup 0 per glyph data 1" slash dx=0 dy=0 dh=-150 dv=0 dx=0 dy=0 dh=0 dv=0
PairPos2: "'kern' Horizontal Kerning in Latin lookup 0 per glyph data 1" slash dx=0 dy=0 dh=-150 dv=0 dx=0 dy=0 dh=0 dv=0
PairPos2: "'kern' Horizontal Kerning in Latin lookup 0 per glyph data 1" slash dx=0 dy=0 dh=-150 dv=0 dx=0 dy=0 dh=0 dv=0
PairPos2: "'kern' Horizontal Kerning in Latin lookup 0 per glyph data 1" slash dx=0 dy=0 dh=-150 dv=0 dx=0 dy=0 dh=0 dv=0
PairPos2: "'kern' Horizontal Kerning in Latin lookup 0 per glyph data 1" slash dx=0 dy=0 dh=-150 dv=0 dx=0 dy=0 dh=0 dv=0
PairPos2: "'kern' Horizontal Kerning in Latin lookup 0 per glyph data 1" period dx=0 dy=0 dh=-200 dv=0 dx=0 dy=0 dh=0 dv=0
PairPos2: "'kern' Horizontal Kerning in Latin lookup 0 per glyph data 1" period dx=0 dy=0 dh=-200 dv=0 dx=0 dy=0 dh=0 dv=0
PairPos2: "'kern' Horizontal Kerning in Latin lookup 0 per glyph data 1" period dx=0 dy=0 dh=-200 dv=0 dx=0 dy=0 dh=0 dv=0
PairPos2: "'kern' Horizontal Kerning in Latin lookup 0 per glyph data 1" period dx=0 dy=0 dh=-200 dv=0 dx=0 dy=0 dh=0 dv=0
PairPos2: "'kern' Horizontal Kerning in Latin lookup 0 per glyph data 1" period dx=0 dy=0 dh=-200 dv=0 dx=0 dy=0 dh=0 dv=0
PairPos2: "'kern' Horizontal Kerning in Latin lookup 0 per glyph data 1" comma dx=0 dy=0 dh=-200 dv=0 dx=0 dy=0 dh=0 dv=0
PairPos2: "'kern' Horizontal Kerning in Latin lookup 0 per glyph data 1" comma dx=0 dy=0 dh=-200 dv=0 dx=0 dy=0 dh=0 dv=0
PairPos2: "'kern' Horizontal Kerning in Latin lookup 0 per glyph data 1" comma dx=0 dy=0 dh=-200 dv=0 dx=0 dy=0 dh=0 dv=0
PairPos2: "'kern' Horizontal Kerning in Latin lookup 0 per glyph data 1" comma dx=0 dy=0 dh=-200 dv=0 dx=0 dy=0 dh=0 dv=0
PairPos2: "'kern' Horizontal Kerning in Latin lookup 0 per glyph data 1" comma dx=0 dy=0 dh=-200 dv=0 dx=0 dy=0 dh=0 dv=0
PairPos2: "'kern' Horizontal Kerning in Latin lookup 0 per glyph data 1" ampersand dx=0 dy=0 dh=-47 dv=0 dx=0 dy=0 dh=0 dv=0
PairPos2: "'kern' Horizontal Kerning in Latin lookup 0 per glyph data 1" ampersand dx=0 dy=0 dh=-47 dv=0 dx=0 dy=0 dh=0 dv=0
PairPos2: "'kern' Horizontal Kerning in Latin lookup 0 per glyph data 1" ampersand dx=0 dy=0 dh=-47 dv=0 dx=0 dy=0 dh=0 dv=0
PairPos2: "'kern' Horizontal Kerning in Latin lookup 0 per glyph data 1" ampersand dx=0 dy=0 dh=-47 dv=0 dx=0 dy=0 dh=0 dv=0
PairPos2: "'kern' Horizontal Kerning in Latin lookup 0 per glyph data 1" ampersand dx=0 dy=0 dh=-47 dv=0 dx=0 dy=0 dh=0 dv=0
EndChar

StartChar: parenleft
Encoding: 40 40 11
Width: 572
GlyphClass: 2
Flags: W
LayerCount: 2
Fore
SplineSet
496 1479 m 0,0,1
 496 1458 496 1458 490 1443 c 128,-1,2
 484 1428 484 1428 474.5 1415.5 c 128,-1,3
 465 1403 465 1403 454.5 1391.5 c 128,-1,4
 444 1380 444 1380 435 1366 c 0,5,6
 422 1347 422 1347 413.5 1325.5 c 128,-1,7
 405 1304 405 1304 397.5 1282 c 128,-1,8
 390 1260 390 1260 381.5 1238.5 c 128,-1,9
 373 1217 373 1217 359 1198 c 0,10,11
 338 1173 338 1173 326 1143 c 128,-1,12
 314 1113 314 1113 308.5 1081 c 128,-1,13
 303 1049 303 1049 301.5 1016 c 128,-1,14
 300 983 300 983 300 951 c 0,15,16
 300 940 300 940 298 915 c 128,-1,17
 296 890 296 890 292.5 861 c 128,-1,18
 289 832 289 832 284 804.5 c 128,-1,19
 279 777 279 777 273 762 c 2,20,-1
 261 735 l 2,21,22
 258 721 258 721 258 709 c 0,23,24
 258 692 258 692 260.5 675 c 128,-1,25
 263 658 263 658 263 641 c 0,26,27
 263 616 263 616 254 594 c 128,-1,28
 245 572 245 572 245 547 c 0,29,30
 245 535 245 535 250 525.5 c 128,-1,31
 255 516 255 516 261 506 c 128,-1,32
 267 496 267 496 272 485 c 128,-1,33
 277 474 277 474 277 459 c 0,34,35
 277 443 277 443 275 428 c 128,-1,36
 273 413 273 413 273 399 c 0,37,38
 273 369 273 369 280 352.5 c 128,-1,39
 287 336 287 336 296.5 324.5 c 128,-1,40
 306 313 306 313 315 301 c 128,-1,41
 324 289 324 289 328 268 c 0,42,43
 333 250 333 250 332.5 232.5 c 128,-1,44
 332 215 332 215 335 197 c 0,45,46
 337 182 337 182 342 168.5 c 128,-1,47
 347 155 347 155 352 141.5 c 128,-1,48
 357 128 357 128 361 113.5 c 128,-1,49
 365 99 365 99 365 84 c 0,50,51
 365 76 365 76 370 67.5 c 128,-1,52
 375 59 375 59 382 51.5 c 128,-1,53
 389 44 389 44 396.5 37 c 128,-1,54
 404 30 404 30 408 25 c 0,55,56
 417 13 417 13 419.5 -0.5 c 128,-1,57
 422 -14 422 -14 423.5 -27.5 c 128,-1,58
 425 -41 425 -41 428.5 -54.5 c 128,-1,59
 432 -68 432 -68 443 -80 c 0,60,61
 448 -83 448 -83 452 -86 c 128,-1,62
 456 -89 456 -89 458 -94 c 2,63,-1
 464 -109 l 2,64,65
 464 -116 464 -116 456.5 -122.5 c 128,-1,66
 449 -129 449 -129 439 -134 c 128,-1,67
 429 -139 429 -139 418.5 -142 c 128,-1,68
 408 -145 408 -145 402 -145 c 0,69,70
 400 -145 400 -145 389.5 -135 c 128,-1,71
 379 -125 379 -125 367 -112.5 c 128,-1,72
 355 -100 355 -100 343.5 -88 c 128,-1,73
 332 -76 332 -76 328 -72 c 0,74,75
 325 -52 325 -52 321 -43.5 c 128,-1,76
 317 -35 317 -35 308 -18 c 0,77,78
 302 -6 302 -6 300.5 7.5 c 128,-1,79
 299 21 299 21 296 35 c 0,80,81
 291 58 291 58 277.5 76.5 c 128,-1,82
 264 95 264 95 253 115 c 0,83,84
 236 147 236 147 225.5 183 c 128,-1,85
 215 219 215 219 206 254 c 0,86,87
 200 278 200 278 193.5 290.5 c 128,-1,88
 187 303 187 303 181.5 314.5 c 128,-1,89
 176 326 176 326 172.5 341.5 c 128,-1,90
 169 357 169 357 169 387 c 0,91,92
 169 399 169 399 165 411.5 c 128,-1,93
 161 424 161 424 161 436 c 0,94,95
 161 444 161 444 164 452.5 c 128,-1,96
 167 461 167 461 167 469 c 0,97,98
 167 484 167 484 161.5 497 c 128,-1,99
 156 510 156 510 154 524 c 0,100,101
 149 550 149 550 147 575.5 c 128,-1,102
 145 601 145 601 143 626.5 c 128,-1,103
 141 652 141 652 136.5 676.5 c 128,-1,104
 132 701 132 701 122 725 c 1,105,106
 122 739 122 739 127 751.5 c 128,-1,107
 132 764 132 764 132 778 c 0,108,109
 132 807 132 807 122.5 835.5 c 128,-1,110
 113 864 113 864 113 893 c 0,111,112
 113 904 113 904 121.5 921 c 128,-1,113
 130 938 130 938 140 957 c 128,-1,114
 150 976 150 976 158.5 994.5 c 128,-1,115
 167 1013 167 1013 167 1028 c 0,116,117
 167 1037 167 1037 164 1045.5 c 128,-1,118
 161 1054 161 1054 161 1063 c 0,119,120
 161 1075 161 1075 166 1084.5 c 128,-1,121
 171 1094 171 1094 177 1103 c 128,-1,122
 183 1112 183 1112 188 1121.5 c 128,-1,123
 193 1131 193 1131 193 1143 c 256,124,125
 193 1155 193 1155 189 1167.5 c 128,-1,126
 185 1180 185 1180 185 1192 c 1,127,128
 201 1198 201 1198 212.5 1211 c 128,-1,129
 224 1224 224 1224 224 1241 c 0,130,131
 224 1250 224 1250 221 1259.5 c 128,-1,132
 218 1269 218 1269 218 1278 c 0,133,134
 218 1289 218 1289 222 1305 c 128,-1,135
 226 1321 226 1321 231.5 1338 c 128,-1,136
 237 1355 237 1355 243.5 1371 c 128,-1,137
 250 1387 250 1387 255 1397 c 0,138,139
 263 1412 263 1412 265 1428 c 128,-1,140
 267 1444 267 1444 275 1460 c 0,141,142
 284 1480 284 1480 300 1496.5 c 128,-1,143
 316 1513 316 1513 336 1525 c 128,-1,144
 356 1537 356 1537 378.5 1543.5 c 128,-1,145
 401 1550 401 1550 423 1550 c 0,146,147
 457 1550 457 1550 476.5 1531.5 c 128,-1,148
 496 1513 496 1513 496 1479 c 0,0,1
EndSplineSet
Validated: 1
EndChar

StartChar: parenright
Encoding: 41 41 12
Width: 577
GlyphClass: 2
Flags: W
LayerCount: 2
Fore
SplineSet
468 760 m 0,0,1
 468 734 468 734 458 711 c 128,-1,2
 448 688 448 688 448 662 c 0,3,4
 448 648 448 648 453 636.5 c 128,-1,5
 458 625 458 625 458 612 c 0,6,7
 458 601 458 601 451.5 565.5 c 128,-1,8
 445 530 445 530 436 489.5 c 128,-1,9
 427 449 427 449 418 414.5 c 128,-1,10
 409 380 409 380 405 371 c 0,11,12
 395 353 395 353 382.5 339 c 128,-1,13
 370 325 370 325 370 305 c 0,14,15
 370 294 370 294 373 284.5 c 128,-1,16
 376 275 376 275 376 264 c 0,17,18
 376 255 376 255 370 246 c 128,-1,19
 364 237 364 237 357.5 227 c 128,-1,20
 351 217 351 217 345 205.5 c 128,-1,21
 339 194 339 194 339 180 c 0,22,23
 339 172 339 172 341 166 c 128,-1,24
 343 160 343 160 345 152 c 1,25,26
 329 139 329 139 322 127 c 128,-1,27
 315 115 315 115 312 103 c 128,-1,28
 309 91 309 91 307.5 78.5 c 128,-1,29
 306 66 306 66 302 53 c 0,30,31
 298 35 298 35 282.5 6 c 128,-1,32
 267 -23 267 -23 246 -50.5 c 128,-1,33
 225 -78 225 -78 201.5 -98.5 c 128,-1,34
 178 -119 178 -119 157 -119 c 0,35,36
 143 -119 143 -119 129.5 -113.5 c 128,-1,37
 116 -108 116 -108 105 -98.5 c 128,-1,38
 94 -89 94 -89 87.5 -76.5 c 128,-1,39
 81 -64 81 -64 81 -49 c 0,40,41
 81 -21 81 -21 97 1 c 128,-1,42
 113 23 113 23 134 45 c 128,-1,43
 155 67 155 67 175 91 c 128,-1,44
 195 115 195 115 202 147 c 0,45,46
 206 166 206 166 209.5 177 c 128,-1,47
 213 188 213 188 217.5 196 c 128,-1,48
 222 204 222 204 228 212.5 c 128,-1,49
 234 221 234 221 243 236 c 0,50,51
 271 291 271 291 283.5 355.5 c 128,-1,52
 296 420 296 420 296 483 c 0,53,54
 296 508 296 508 302 531.5 c 128,-1,55
 308 555 308 555 314.5 578.5 c 128,-1,56
 321 602 321 602 327 625.5 c 128,-1,57
 333 649 333 649 333 674 c 0,58,59
 333 708 333 708 330 745 c 128,-1,60
 327 782 327 782 315 813 c 0,61,62
 311 821 311 821 307.5 827.5 c 128,-1,63
 304 834 304 834 304 842 c 0,64,65
 304 857 304 857 310.5 871.5 c 128,-1,66
 317 886 317 886 317 901 c 0,67,68
 317 915 317 915 310 927.5 c 128,-1,69
 303 940 303 940 300 952 c 0,70,71
 290 979 290 979 288 1007.5 c 128,-1,72
 286 1036 286 1036 283 1063.5 c 128,-1,73
 280 1091 280 1091 270 1116 c 128,-1,74
 260 1141 260 1141 233 1161 c 0,75,76
 231 1164 231 1164 231 1167.5 c 128,-1,77
 231 1171 231 1171 231 1174 c 2,78,-1
 231 1184 l 2,79,80
 231 1199 231 1199 223.5 1212.5 c 128,-1,81
 216 1226 216 1226 216 1241 c 0,82,83
 216 1264 216 1264 203.5 1280 c 128,-1,84
 191 1296 191 1296 177 1313 c 0,85,86
 165 1327 165 1327 160 1344 c 128,-1,87
 155 1361 155 1361 147 1376 c 0,88,89
 137 1393 137 1393 124.5 1407 c 128,-1,90
 112 1421 112 1421 101.5 1436 c 128,-1,91
 91 1451 91 1451 84 1470 c 128,-1,92
 77 1489 77 1489 77 1516 c 0,93,94
 77 1533 77 1533 85.5 1544.5 c 128,-1,95
 94 1556 94 1556 107 1562.5 c 128,-1,96
 120 1569 120 1569 135.5 1572 c 128,-1,97
 151 1575 151 1575 165 1575 c 0,98,99
 197 1575 197 1575 218 1561.5 c 128,-1,100
 239 1548 239 1548 255 1527 c 128,-1,101
 271 1506 271 1506 283.5 1481 c 128,-1,102
 296 1456 296 1456 310 1434 c 0,103,104
 320 1417 320 1417 332.5 1401.5 c 128,-1,105
 345 1386 345 1386 356 1369 c 128,-1,106
 367 1352 367 1352 374.5 1333.5 c 128,-1,107
 382 1315 382 1315 382 1292 c 0,108,109
 382 1274 382 1274 387.5 1258 c 128,-1,110
 393 1242 393 1242 401 1225 c 0,111,112
 434 1146 434 1146 444 1063 c 128,-1,113
 454 980 454 980 454 895 c 0,114,115
 454 884 454 884 453.5 873.5 c 128,-1,116
 453 863 453 863 453 852 c 0,117,118
 453 827 453 827 460.5 803.5 c 128,-1,119
 468 780 468 780 468 760 c 0,0,1
EndSplineSet
Validated: 1
EndChar

StartChar: asterisk
Encoding: 42 42 13
Width: 1071
GlyphClass: 2
Flags: W
LayerCount: 2
Fore
SplineSet
811 668 m 0,0,1
 811 647 811 647 806.5 634.5 c 128,-1,2
 802 622 802 622 794 613.5 c 128,-1,3
 786 605 786 605 773 598.5 c 128,-1,4
 760 592 760 592 744 584 c 0,5,6
 734 579 734 579 724.5 573 c 128,-1,7
 715 567 715 567 703 567 c 256,8,9
 691 567 691 567 677 580 c 128,-1,10
 663 593 663 593 650.5 611 c 128,-1,11
 638 629 638 629 628 647 c 128,-1,12
 618 665 618 665 615 674 c 0,13,14
 610 689 610 689 610 705.5 c 128,-1,15
 610 722 610 722 607 737 c 0,16,17
 603 755 603 755 595.5 778 c 128,-1,18
 588 801 588 801 582 823 c 128,-1,19
 576 845 576 845 574.5 863 c 128,-1,20
 573 881 573 881 580 890 c 2,21,-1
 593 906 l 1,22,23
 590 910 590 910 583.5 910.5 c 128,-1,24
 577 911 577 911 569.5 909.5 c 128,-1,25
 562 908 562 908 555.5 906 c 128,-1,26
 549 904 549 904 546 904 c 0,27,28
 532 904 532 904 518 883.5 c 128,-1,29
 504 863 504 863 493 839 c 128,-1,30
 482 815 482 815 475 794.5 c 128,-1,31
 468 774 468 774 467 774 c 1,32,33
 467 762 467 762 462.5 753 c 128,-1,34
 458 744 458 744 451.5 735.5 c 128,-1,35
 445 727 445 727 438.5 718.5 c 128,-1,36
 432 710 432 710 428 700 c 0,37,38
 425 692 425 692 425 684 c 128,-1,39
 425 676 425 676 422 670 c 0,40,41
 419 662 419 662 413 656.5 c 128,-1,42
 407 651 407 651 402 645 c 0,43,44
 393 631 393 631 387.5 621.5 c 128,-1,45
 382 612 382 612 375 606.5 c 128,-1,46
 368 601 368 601 357.5 598.5 c 128,-1,47
 347 596 347 596 328 596 c 0,48,49
 308 596 308 596 293 605 c 128,-1,50
 278 614 278 614 267.5 628.5 c 128,-1,51
 257 643 257 643 251.5 660.5 c 128,-1,52
 246 678 246 678 246 696 c 0,53,54
 246 713 246 713 248 721 c 128,-1,55
 250 729 250 729 254.5 734 c 128,-1,56
 259 739 259 739 265.5 744 c 128,-1,57
 272 749 272 749 281 760 c 0,58,59
 287 766 287 766 289.5 774 c 128,-1,60
 292 782 292 782 297 788 c 0,61,62
 306 799 306 799 318 805 c 128,-1,63
 330 811 330 811 338 823 c 0,64,65
 345 833 345 833 349 843 c 128,-1,66
 353 853 353 853 361 862 c 0,67,68
 368 870 368 870 376.5 873.5 c 128,-1,69
 385 877 385 877 392 885 c 0,70,71
 398 892 398 892 402.5 904 c 128,-1,72
 407 916 407 916 410.5 928 c 128,-1,73
 414 940 414 940 415.5 949.5 c 128,-1,74
 417 959 417 959 417 962 c 0,75,76
 417 974 417 974 411 976 c 128,-1,77
 405 978 405 978 400 978 c 0,78,79
 372 978 372 978 343.5 971 c 128,-1,80
 315 964 315 964 286.5 956 c 128,-1,81
 258 948 258 948 229 941 c 128,-1,82
 200 934 200 934 170 934 c 0,83,84
 152 934 152 934 133.5 940.5 c 128,-1,85
 115 947 115 947 100 958.5 c 128,-1,86
 85 970 85 970 75.5 986 c 128,-1,87
 66 1002 66 1002 66 1022 c 0,88,89
 66 1062 66 1062 88 1087 c 128,-1,90
 110 1112 110 1112 152 1112 c 0,91,92
 171 1112 171 1112 188 1104 c 128,-1,93
 205 1096 205 1096 224 1096 c 0,94,95
 235 1096 235 1096 246 1098 c 128,-1,96
 257 1100 257 1100 269 1100 c 0,97,98
 299 1100 299 1100 332.5 1093.5 c 128,-1,99
 366 1087 366 1087 387 1087 c 0,100,101
 403 1087 403 1087 411 1090.5 c 128,-1,102
 419 1094 419 1094 419 1105 c 0,103,104
 419 1113 419 1113 413.5 1126 c 128,-1,105
 408 1139 408 1139 394 1159 c 0,106,107
 388 1167 388 1167 378.5 1172.5 c 128,-1,108
 369 1178 369 1178 361 1186 c 0,109,110
 352 1195 352 1195 336 1218.5 c 128,-1,111
 320 1242 320 1242 304.5 1268 c 128,-1,112
 289 1294 289 1294 278 1319 c 128,-1,113
 267 1344 267 1344 267 1356 c 0,114,115
 267 1394 267 1394 284.5 1420 c 128,-1,116
 302 1446 302 1446 347 1446 c 0,117,118
 391 1446 391 1446 412 1426 c 128,-1,119
 433 1406 433 1406 443.5 1376.5 c 128,-1,120
 454 1347 454 1347 460.5 1313 c 128,-1,121
 467 1279 467 1279 482 1251 c 0,122,123
 487 1241 487 1241 494 1235.5 c 128,-1,124
 501 1230 501 1230 504 1219 c 0,125,126
 509 1211 509 1211 508.5 1202.5 c 128,-1,127
 508 1194 508 1194 510 1186 c 0,128,129
 514 1165 514 1165 524 1152 c 128,-1,130
 534 1139 534 1139 547 1139 c 0,131,132
 558 1139 558 1139 568.5 1149.5 c 128,-1,133
 579 1160 579 1160 587 1184 c 0,134,135
 594 1215 594 1215 609.5 1250 c 128,-1,136
 625 1285 625 1285 644.5 1317 c 128,-1,137
 664 1349 664 1349 685.5 1376 c 128,-1,138
 707 1403 707 1403 727 1417 c 0,139,140
 728 1416 728 1416 727 1413.5 c 128,-1,141
 726 1411 726 1411 726.5 1407.5 c 128,-1,142
 727 1404 727 1404 730 1400.5 c 128,-1,143
 733 1397 733 1397 741 1396 c 0,144,145
 744 1395 744 1395 744.5 1398.5 c 128,-1,146
 745 1402 745 1402 745 1406.5 c 128,-1,147
 745 1411 745 1411 745 1415 c 128,-1,148
 745 1419 745 1419 748 1419 c 0,149,150
 779 1419 779 1419 797.5 1401 c 128,-1,151
 816 1383 816 1383 816 1354 c 0,152,153
 816 1338 816 1338 813.5 1316 c 128,-1,154
 811 1294 811 1294 805 1280 c 0,155,156
 800 1269 800 1269 783 1259 c 128,-1,157
 766 1249 766 1249 758 1239 c 0,158,159
 751 1231 751 1231 749.5 1222.5 c 128,-1,160
 748 1214 748 1214 742 1206 c 0,161,162
 734 1195 734 1195 722 1191 c 128,-1,163
 710 1187 710 1187 705 1178 c 0,164,165
 699 1168 699 1168 698 1158 c 128,-1,166
 697 1148 697 1148 691 1139 c 0,167,168
 686 1132 686 1132 678 1126 c 128,-1,169
 670 1120 670 1120 662.5 1114.5 c 128,-1,170
 655 1109 655 1109 649 1104 c 128,-1,171
 643 1099 643 1099 643 1094 c 0,172,173
 643 1086 643 1086 654 1083.5 c 128,-1,174
 665 1081 665 1081 679 1081 c 0,175,176
 696 1081 696 1081 711 1083 c 128,-1,177
 726 1085 726 1085 729 1085 c 2,178,-1
 768 1085 l 2,179,180
 790 1085 790 1085 811 1088.5 c 128,-1,181
 832 1092 832 1092 853 1096.5 c 128,-1,182
 874 1101 874 1101 894.5 1104.5 c 128,-1,183
 915 1108 915 1108 936 1108 c 0,184,185
 951 1108 951 1108 964 1101.5 c 128,-1,186
 977 1095 977 1095 986.5 1084 c 128,-1,187
 996 1073 996 1073 1002 1059.5 c 128,-1,188
 1008 1046 1008 1046 1008 1032 c 0,189,190
 1008 1017 1008 1017 1000 1003 c 128,-1,191
 992 989 992 989 979.5 977.5 c 128,-1,192
 967 966 967 966 952 959 c 128,-1,193
 937 952 937 952 922 952 c 0,194,195
 897 952 897 952 874 959.5 c 128,-1,196
 851 967 851 967 828 967 c 0,197,198
 809 967 809 967 791 964 c 128,-1,199
 773 961 773 961 754 961 c 256,200,201
 735 961 735 961 714 966 c 128,-1,202
 693 971 693 971 679 971 c 0,203,204
 657 971 657 971 657 961 c 0,205,206
 657 956 657 956 662 949 c 128,-1,207
 667 942 667 942 673.5 934.5 c 128,-1,208
 680 927 680 927 686.5 918.5 c 128,-1,209
 693 910 693 910 697 903 c 0,210,211
 703 891 703 891 705 876.5 c 128,-1,212
 707 862 707 862 713 850 c 0,213,214
 725 823 725 823 742 804 c 128,-1,215
 759 785 759 785 774 766 c 128,-1,216
 789 747 789 747 800 724.5 c 128,-1,217
 811 702 811 702 811 668 c 0,0,1
EndSplineSet
Validated: 1
EndChar

StartChar: plus
Encoding: 43 43 14
Width: 1016
GlyphClass: 2
Flags: W
LayerCount: 2
Fore
SplineSet
952 731 m 0,0,1
 952 696 952 696 930 680 c 128,-1,2
 908 664 908 664 876 664 c 0,3,4
 861 664 861 664 846.5 671 c 128,-1,5
 832 678 832 678 815 678 c 0,6,7
 797 678 797 678 779.5 675 c 128,-1,8
 762 672 762 672 746 668.5 c 128,-1,9
 730 665 730 665 717 662 c 128,-1,10
 704 659 704 659 696 659 c 0,11,12
 683 659 683 659 672 661.5 c 128,-1,13
 661 664 661 664 649 664 c 0,14,15
 635 664 635 664 625.5 653 c 128,-1,16
 616 642 616 642 610 626.5 c 128,-1,17
 604 611 604 611 601 594.5 c 128,-1,18
 598 578 598 578 598 567 c 0,19,20
 598 554 598 554 601.5 544 c 128,-1,21
 605 534 605 534 608.5 524 c 128,-1,22
 612 514 612 514 615.5 501 c 128,-1,23
 619 488 619 488 619 469 c 0,24,25
 619 457 619 457 618.5 445 c 128,-1,26
 618 433 618 433 618 422 c 0,27,28
 618 403 618 403 622 384.5 c 128,-1,29
 626 366 626 366 626 346 c 0,30,31
 626 328 626 328 617 313.5 c 128,-1,32
 608 299 608 299 593.5 289.5 c 128,-1,33
 579 280 579 280 562 275 c 128,-1,34
 545 270 545 270 530 270 c 0,35,36
 518 270 518 270 504 274 c 128,-1,37
 490 278 490 278 477 285 c 128,-1,38
 464 292 464 292 455.5 302 c 128,-1,39
 447 312 447 312 447 324 c 0,40,41
 447 331 447 331 448.5 337 c 128,-1,42
 450 343 450 343 450 350 c 0,43,44
 450 361 450 361 446 371.5 c 128,-1,45
 442 382 442 382 442 393 c 0,46,47
 442 413 442 413 447 432 c 128,-1,48
 452 451 452 451 454 471 c 0,49,50
 458 503 458 503 458 535.5 c 128,-1,51
 458 568 458 568 458 600 c 0,52,53
 458 610 458 610 454.5 625 c 128,-1,54
 451 640 451 640 444 653.5 c 128,-1,55
 437 667 437 667 426.5 676.5 c 128,-1,56
 416 686 416 686 403 686 c 0,57,58
 391 686 391 686 379 681.5 c 128,-1,59
 367 677 367 677 355 671.5 c 128,-1,60
 343 666 343 666 331 661.5 c 128,-1,61
 319 657 319 657 307 657 c 0,62,63
 301 657 301 657 294.5 661.5 c 128,-1,64
 288 666 288 666 280 666 c 0,65,66
 260 666 260 666 240 658.5 c 128,-1,67
 220 651 220 651 198 651 c 0,68,69
 183 651 183 651 159.5 655.5 c 128,-1,70
 136 660 136 660 114 669 c 128,-1,71
 92 678 92 678 76.5 692.5 c 128,-1,72
 61 707 61 707 61 727 c 0,73,74
 61 745 61 745 73 760.5 c 128,-1,75
 85 776 85 776 102.5 787.5 c 128,-1,76
 120 799 120 799 140 805 c 128,-1,77
 160 811 160 811 176 811 c 0,78,79
 207 811 207 811 237.5 801 c 128,-1,80
 268 791 268 791 299 791 c 0,81,82
 323 791 323 791 346.5 798 c 128,-1,83
 370 805 370 805 393 805 c 0,84,85
 404 805 404 805 413 801 c 128,-1,86
 422 797 422 797 432 797 c 0,87,88
 439 797 439 797 448 804 c 128,-1,89
 457 811 457 811 464 820.5 c 128,-1,90
 471 830 471 830 476 840.5 c 128,-1,91
 481 851 481 851 481 858 c 0,92,93
 481 867 481 867 475 876.5 c 128,-1,94
 469 886 469 886 469 897 c 0,95,96
 469 906 469 906 473 914.5 c 128,-1,97
 477 923 477 923 477 932 c 0,98,99
 477 940 477 940 473 945.5 c 128,-1,100
 469 951 469 951 463.5 956.5 c 128,-1,101
 458 962 458 962 454 967 c 128,-1,102
 450 972 450 972 450 979 c 0,103,104
 450 988 450 988 457 995 c 128,-1,105
 464 1002 464 1002 464 1012 c 0,106,107
 464 1024 464 1024 457 1035 c 128,-1,108
 450 1046 450 1046 450 1063 c 0,109,110
 450 1075 450 1075 453.5 1089.5 c 128,-1,111
 457 1104 457 1104 464 1116.5 c 128,-1,112
 471 1129 471 1129 482 1137 c 128,-1,113
 493 1145 493 1145 507 1145 c 0,114,115
 534 1145 534 1145 551 1136 c 128,-1,116
 568 1127 568 1127 578 1112 c 128,-1,117
 588 1097 588 1097 591.5 1076.5 c 128,-1,118
 595 1056 595 1056 595 1034 c 0,119,120
 595 1025 595 1025 591 1016 c 128,-1,121
 587 1007 587 1007 587 997 c 0,122,123
 587 988 587 988 592.5 981 c 128,-1,124
 598 974 598 974 598 963 c 0,125,126
 598 947 598 947 590.5 933 c 128,-1,127
 583 919 583 919 583 903 c 0,128,129
 583 872 583 872 593.5 844.5 c 128,-1,130
 604 817 604 817 616 791 c 1,131,-1
 622 788 l 1,132,133
 633 788 633 788 645 792.5 c 128,-1,134
 657 797 657 797 669 797 c 0,135,136
 689 797 689 797 709 792.5 c 128,-1,137
 729 788 729 788 751 788 c 256,138,139
 773 788 773 788 793 794.5 c 128,-1,140
 813 801 813 801 835 801 c 0,141,142
 842 801 842 801 858 798.5 c 128,-1,143
 874 796 874 796 892 792 c 128,-1,144
 910 788 910 788 925 782.5 c 128,-1,145
 940 777 940 777 944 772 c 0,146,147
 950 764 950 764 951 751.5 c 128,-1,148
 952 739 952 739 952 731 c 0,0,1
EndSplineSet
Validated: 1
EndChar

StartChar: comma
Encoding: 44 44 15
Width: 689
GlyphClass: 2
Flags: W
LayerCount: 2
Fore
SplineSet
593 203 m 1,0,1
 579 187 579 187 571 166 c 128,-1,2
 563 145 563 145 563 123 c 0,3,4
 563 118 563 118 563.5 113 c 128,-1,5
 564 108 564 108 565 103 c 0,6,7
 561 88 561 88 554 72 c 128,-1,8
 547 56 547 56 540 39.5 c 128,-1,9
 533 23 533 23 528 7 c 128,-1,10
 523 -9 523 -9 522 -25 c 1,11,12
 510 -45 510 -45 493 -53 c 1,13,14
 489 -69 489 -69 488 -83 c 128,-1,15
 487 -97 487 -97 487 -113 c 0,16,17
 487 -131 487 -131 476.5 -138 c 128,-1,18
 466 -145 466 -145 453 -150 c 128,-1,19
 440 -155 440 -155 428.5 -162.5 c 128,-1,20
 417 -170 417 -170 414 -188 c 0,21,22
 412 -197 412 -197 403 -212 c 128,-1,23
 394 -227 394 -227 382 -243 c 128,-1,24
 370 -259 370 -259 358 -274 c 128,-1,25
 346 -289 346 -289 340 -297 c 0,26,27
 326 -315 326 -315 314 -330.5 c 128,-1,28
 302 -346 302 -346 288.5 -358.5 c 128,-1,29
 275 -371 275 -371 258 -379 c 128,-1,30
 241 -387 241 -387 217 -389 c 0,31,32
 203 -391 203 -391 189.5 -396.5 c 128,-1,33
 176 -402 176 -402 164 -402 c 0,34,35
 145 -402 145 -402 135.5 -392 c 128,-1,36
 126 -382 126 -382 121 -369 c 128,-1,37
 116 -356 116 -356 111.5 -343.5 c 128,-1,38
 107 -331 107 -331 97 -327 c 0,39,40
 92 -325 92 -325 86 -322 c 128,-1,41
 80 -319 80 -319 80 -313 c 256,42,43
 80 -307 80 -307 87 -296 c 128,-1,44
 94 -285 94 -285 96 -276 c 1,45,46
 92 -268 92 -268 92 -261 c 0,47,48
 92 -252 92 -252 97.5 -249.5 c 128,-1,49
 103 -247 103 -247 110.5 -245 c 128,-1,50
 118 -243 118 -243 125.5 -239 c 128,-1,51
 133 -235 133 -235 137 -224 c 0,52,53
 144 -204 144 -204 161 -189.5 c 128,-1,54
 178 -175 178 -175 198.5 -161.5 c 128,-1,55
 219 -148 219 -148 241.5 -134.5 c 128,-1,56
 264 -121 264 -121 282 -103.5 c 128,-1,57
 300 -86 300 -86 312 -62.5 c 128,-1,58
 324 -39 324 -39 324 -7 c 0,59,60
 324 -4 324 -4 324 4.5 c 128,-1,61
 324 13 324 13 323.5 22.5 c 128,-1,62
 323 32 323 32 322 39 c 128,-1,63
 321 46 321 46 320 46 c 0,64,65
 302 46 302 46 285 38 c 128,-1,66
 268 30 268 30 249 30 c 0,67,68
 239 30 239 30 222 43 c 128,-1,69
 205 56 205 56 186 73.5 c 128,-1,70
 167 91 167 91 150 107.5 c 128,-1,71
 133 124 133 124 123 132 c 1,72,-1
 123 147 l 1,73,-1
 123 156 l 2,74,75
 123 193 123 193 115.5 229.5 c 128,-1,76
 108 266 108 266 108 304 c 0,77,78
 108 332 108 332 114.5 352.5 c 128,-1,79
 121 373 121 373 129.5 388.5 c 128,-1,80
 138 404 138 404 144.5 417 c 128,-1,81
 151 430 151 430 151 445 c 1,82,83
 159 443 159 443 164 443 c 0,84,85
 170 443 170 443 179 449 c 128,-1,86
 188 455 188 455 196.5 462.5 c 128,-1,87
 205 470 205 470 212.5 477.5 c 128,-1,88
 220 485 220 485 223 488 c 0,89,90
 234 493 234 493 245.5 493 c 128,-1,91
 257 493 257 493 268 493 c 0,92,93
 280 493 280 493 290.5 496.5 c 128,-1,94
 301 500 301 500 311.5 503.5 c 128,-1,95
 322 507 322 507 332.5 510.5 c 128,-1,96
 343 514 343 514 356 514 c 0,97,98
 380 514 380 514 403.5 509 c 128,-1,99
 427 504 427 504 451 502 c 1,100,101
 458 493 458 493 461.5 483 c 128,-1,102
 465 473 465 473 469.5 464.5 c 128,-1,103
 474 456 474 456 480.5 450 c 128,-1,104
 487 444 487 444 501 444 c 0,105,106
 503 444 503 444 504.5 444.5 c 128,-1,107
 506 445 506 445 508 445 c 1,108,109
 505 435 505 435 495.5 422.5 c 128,-1,110
 486 410 486 410 486 402 c 0,111,112
 486 391 486 391 497.5 377 c 128,-1,113
 509 363 509 363 520 363 c 0,114,115
 526 363 526 363 531.5 366 c 128,-1,116
 537 369 537 369 543 369 c 0,117,118
 546 369 546 369 548 365.5 c 128,-1,119
 550 362 550 362 551.5 357.5 c 128,-1,120
 553 353 553 353 556 349.5 c 128,-1,121
 559 346 559 346 565 346 c 1,122,-1
 565 342 l 2,123,124
 565 326 565 326 556 322 c 128,-1,125
 547 318 547 318 536 317 c 1,126,127
 537 307 537 307 544.5 303.5 c 128,-1,128
 552 300 552 300 560.5 297.5 c 128,-1,129
 569 295 569 295 575.5 290 c 128,-1,130
 582 285 582 285 582 272 c 0,131,132
 582 261 582 261 579 251 c 128,-1,133
 576 241 576 241 576 230 c 0,134,135
 576 221 576 221 579.5 213 c 128,-1,136
 583 205 583 205 593 203 c 1,0,1
EndSplineSet
Validated: 1
EndChar

StartChar: hyphen
Encoding: 45 45 16
Width: 1303
GlyphClass: 2
Flags: W
LayerCount: 2
Fore
SplineSet
1172 639 m 1,0,1
 1164 619 1164 619 1149 606 c 128,-1,2
 1134 593 1134 593 1123 578 c 1,3,4
 1111 576 1111 576 1091.5 574.5 c 128,-1,5
 1072 573 1072 573 1060 561 c 1,6,7
 1034 570 1034 570 1004.5 572.5 c 128,-1,8
 975 575 975 575 945 577.5 c 128,-1,9
 915 580 915 580 886.5 585.5 c 128,-1,10
 858 591 858 591 834 606 c 1,11,12
 807 591 807 591 776 591 c 0,13,14
 757 591 757 591 739 595.5 c 128,-1,15
 721 600 721 600 705 606 c 1,16,17
 681 604 681 604 658.5 603 c 128,-1,18
 636 602 636 602 615 602 c 0,19,20
 588 602 588 602 563 603 c 128,-1,21
 538 604 538 604 513 604 c 0,22,23
 475 604 475 604 437.5 601 c 128,-1,24
 400 598 400 598 355 588 c 0,25,26
 352 589 352 589 352 594 c 0,27,28
 352 597 352 597 353 600.5 c 128,-1,29
 354 604 354 604 354 607 c 0,30,31
 354 617 354 617 334 617 c 0,32,33
 322 617 322 617 318.5 609 c 128,-1,34
 315 601 315 601 310 594 c 1,35,36
 293 597 293 597 279 597 c 0,37,38
 264 597 264 597 248.5 594.5 c 128,-1,39
 233 592 233 592 214 588 c 1,40,41
 188 598 188 598 172 617 c 128,-1,42
 156 636 156 636 146.5 660 c 128,-1,43
 137 684 137 684 133.5 710.5 c 128,-1,44
 130 737 130 737 130 763 c 2,45,-1
 130 780 l 1,46,47
 138 786 138 786 149 789 c 128,-1,48
 160 792 160 792 171.5 794.5 c 128,-1,49
 183 797 183 797 193.5 801 c 128,-1,50
 204 805 204 805 210 813 c 1,51,52
 225 797 225 797 247 792.5 c 128,-1,53
 269 788 269 788 293.5 786.5 c 128,-1,54
 318 785 318 785 343 782.5 c 128,-1,55
 368 780 368 780 390 768 c 1,56,57
 412 779 412 779 433 782 c 128,-1,58
 454 785 454 785 474 785 c 0,59,60
 491 785 491 785 507 784 c 128,-1,61
 523 783 523 783 539 783 c 0,62,63
 558 783 558 783 576 786 c 1,64,65
 586 777 586 777 601.5 773.5 c 128,-1,66
 617 770 617 770 636 770 c 0,67,68
 662 770 662 770 689.5 775 c 128,-1,69
 717 780 717 780 738 786 c 1,70,71
 752 777 752 777 767 773.5 c 128,-1,72
 782 770 782 770 797 770 c 0,73,74
 828 770 828 770 860.5 778.5 c 128,-1,75
 893 787 893 787 927 787 c 0,76,77
 959 787 959 787 988 774 c 1,78,79
 993 787 993 787 1001.5 795 c 128,-1,80
 1010 803 1010 803 1021 809 c 1,81,82
 1040 800 1040 800 1062.5 793.5 c 128,-1,83
 1085 787 1085 787 1105 778.5 c 128,-1,84
 1125 770 1125 770 1140.5 757.5 c 128,-1,85
 1156 745 1156 745 1162 723 c 1,86,87
 1159 713 1159 713 1154 713 c 256,88,89
 1149 713 1149 713 1144 716 c 128,-1,90
 1139 719 1139 719 1131 719 c 2,91,-1
 1127 719 l 1,92,93
 1127 711 1127 711 1132 708.5 c 128,-1,94
 1137 706 1137 706 1143.5 705 c 128,-1,95
 1150 704 1150 704 1155.5 703 c 128,-1,96
 1161 702 1161 702 1162 696 c 0,97,98
 1161 692 1161 692 1161 688.5 c 128,-1,99
 1161 685 1161 685 1161 682 c 0,100,101
 1161 656 1161 656 1172 639 c 1,0,1
259 758 m 1,102,103
 257 758 257 758 256 758.5 c 128,-1,104
 255 759 255 759 253 759 c 0,105,106
 242 759 242 759 234 749 c 128,-1,107
 226 739 226 739 226 729 c 0,108,109
 226 723 226 723 230 718.5 c 128,-1,110
 234 714 234 714 243 713 c 0,111,112
 250 714 250 714 252 719.5 c 128,-1,113
 254 725 254 725 254.5 731.5 c 128,-1,114
 255 738 255 738 255.5 745.5 c 128,-1,115
 256 753 256 753 259 758 c 1,102,103
EndSplineSet
Validated: 1
EndChar

StartChar: period
Encoding: 46 46 17
Width: 716
GlyphClass: 2
Flags: W
LayerCount: 2
Fore
SplineSet
610 246 m 0,0,1
 610 210 610 210 592.5 191 c 128,-1,2
 575 172 575 172 553.5 161 c 128,-1,3
 532 150 532 150 514 142.5 c 128,-1,4
 496 135 496 135 496 121 c 1,5,-1
 502 113 l 2,6,7
 506 113 506 113 517.5 111.5 c 128,-1,8
 529 110 529 110 540.5 107 c 128,-1,9
 552 104 552 104 561 100 c 128,-1,10
 570 96 570 96 570 91 c 0,11,12
 569 87 569 87 566 84.5 c 128,-1,13
 563 82 563 82 560 80 c 0,14,15
 552 74 552 74 545 73 c 128,-1,16
 538 72 538 72 533 70.5 c 128,-1,17
 528 69 528 69 524 64.5 c 128,-1,18
 520 60 520 60 517 46 c 0,19,20
 514 34 514 34 506 28.5 c 128,-1,21
 498 23 498 23 489.5 19.5 c 128,-1,22
 481 16 481 16 474 12 c 128,-1,23
 467 8 467 8 467 -1 c 2,24,-1
 467 -3 l 1,25,26
 444 14 444 14 416 14 c 0,27,28
 387 14 387 14 359 4.5 c 128,-1,29
 331 -5 331 -5 302 -5 c 0,30,31
 278 -5 278 -5 250 9 c 128,-1,32
 222 23 222 23 198 44.5 c 128,-1,33
 174 66 174 66 158 92.5 c 128,-1,34
 142 119 142 119 142 145 c 0,35,36
 142 152 142 152 145.5 157.5 c 128,-1,37
 149 163 149 163 154 168 c 1,38,39
 149 181 149 181 142 185 c 128,-1,40
 135 189 135 189 128.5 191 c 128,-1,41
 122 193 122 193 117.5 197.5 c 128,-1,42
 113 202 113 202 113 216 c 0,43,44
 113 236 113 236 110.5 254.5 c 128,-1,45
 108 273 108 273 108 292 c 0,46,47
 108 303 108 303 109.5 314 c 128,-1,48
 111 325 111 325 115.5 333.5 c 128,-1,49
 120 342 120 342 128 347.5 c 128,-1,50
 136 353 136 353 149 353 c 2,51,-1
 154 353 l 1,52,53
 146 364 146 364 141 377.5 c 128,-1,54
 136 391 136 391 136 405 c 0,55,56
 136 407 136 407 136.5 409.5 c 128,-1,57
 137 412 137 412 140 412 c 0,58,59
 145 412 145 412 149.5 409.5 c 128,-1,60
 154 407 154 407 159 406 c 2,61,-1
 168 410 l 2,62,63
 173 415 173 415 173 420 c 256,64,65
 173 425 173 425 170 428 c 128,-1,66
 167 431 167 431 166 436 c 0,67,68
 170 441 170 441 177.5 442.5 c 128,-1,69
 185 444 185 444 190 445 c 0,70,71
 203 448 203 448 207.5 452 c 128,-1,72
 212 456 212 456 213 461.5 c 128,-1,73
 214 467 214 467 215.5 472 c 128,-1,74
 217 477 217 477 225 481 c 0,75,76
 231 484 231 484 248 487 c 128,-1,77
 265 490 265 490 284.5 493 c 128,-1,78
 304 496 304 496 322.5 498 c 128,-1,79
 341 500 341 500 349 501 c 1,80,81
 355 490 355 490 373.5 484.5 c 128,-1,82
 392 479 392 479 416 476 c 128,-1,83
 440 473 440 473 467 470 c 128,-1,84
 494 467 494 467 516.5 460 c 128,-1,85
 539 453 539 453 553.5 440 c 128,-1,86
 568 427 568 427 568 405 c 2,87,-1
 567 396 l 1,88,-1
 563 395 l 2,89,90
 552 395 552 395 543 402 c 128,-1,91
 534 409 534 409 523 409 c 1,92,93
 518 416 518 416 505 406.5 c 128,-1,94
 492 397 492 397 481 384.5 c 128,-1,95
 470 372 470 372 466 361.5 c 128,-1,96
 462 351 462 351 476 356 c 0,97,98
 483 358 483 358 489.5 362.5 c 128,-1,99
 496 367 496 367 504 367 c 0,100,101
 508 367 508 367 514 361.5 c 128,-1,102
 520 356 520 356 528.5 350 c 128,-1,103
 537 344 537 344 547 338.5 c 128,-1,104
 557 333 557 333 571 333 c 0,105,106
 584 333 584 333 596 339 c 1,107,108
 600 316 600 316 605 293 c 128,-1,109
 610 270 610 270 610 246 c 0,0,1
457 193 m 0,110,111
 451 205 451 205 439 210 c 1,112,-1
 440 208 l 2,113,114
 440 204 440 204 435.5 200.5 c 128,-1,115
 431 197 431 197 425 194 c 128,-1,116
 419 191 419 191 414.5 188 c 128,-1,117
 410 185 410 185 410 183 c 0,118,119
 410 180 410 180 416 179 c 128,-1,120
 422 178 422 178 424 178 c 0,121,122
 431 178 431 178 444 181.5 c 128,-1,123
 457 185 457 185 457 193 c 0,110,111
382 239 m 1,124,125
 366 238 366 238 350.5 234.5 c 128,-1,126
 335 231 335 231 318 231 c 256,127,128
 301 231 301 231 282 239 c 1,129,-1
 282 196 l 1,130,131
 291 201 291 201 300 202.5 c 128,-1,132
 309 204 309 204 319 204 c 2,133,-1
 340 204 l 2,134,135
 375 204 375 204 382 239 c 1,124,125
240 120 m 1,136,-1
 240 123 l 2,137,138
 240 135 240 135 233.5 141 c 128,-1,139
 227 147 227 147 218 151 c 128,-1,140
 209 155 209 155 199 158.5 c 128,-1,141
 189 162 189 162 182 168 c 1,142,143
 185 112 185 112 239 111 c 1,144,-1
 240 120 l 1,136,-1
EndSplineSet
Validated: 1
PairPos2: "'kern' Horizontal Kerning in Latin lookup 0 per glyph data 1" quotedblright dx=0 dy=0 dh=-178 dv=0 dx=0 dy=0 dh=0 dv=0
PairPos2: "'kern' Horizontal Kerning in Latin lookup 0 per glyph data 1" quotedblright dx=0 dy=0 dh=-178 dv=0 dx=0 dy=0 dh=0 dv=0
PairPos2: "'kern' Horizontal Kerning in Latin lookup 0 per glyph data 1" quotedblright dx=0 dy=0 dh=-178 dv=0 dx=0 dy=0 dh=0 dv=0
PairPos2: "'kern' Horizontal Kerning in Latin lookup 0 per glyph data 1" quotedblright dx=0 dy=0 dh=-178 dv=0 dx=0 dy=0 dh=0 dv=0
PairPos2: "'kern' Horizontal Kerning in Latin lookup 0 per glyph data 1" quotedblright dx=0 dy=0 dh=-178 dv=0 dx=0 dy=0 dh=0 dv=0
PairPos2: "'kern' Horizontal Kerning in Latin lookup 0 per glyph data 1" quotedblleft dx=0 dy=0 dh=-185 dv=0 dx=0 dy=0 dh=0 dv=0
PairPos2: "'kern' Horizontal Kerning in Latin lookup 0 per glyph data 1" quotedblleft dx=0 dy=0 dh=-185 dv=0 dx=0 dy=0 dh=0 dv=0
PairPos2: "'kern' Horizontal Kerning in Latin lookup 0 per glyph data 1" quotedblleft dx=0 dy=0 dh=-185 dv=0 dx=0 dy=0 dh=0 dv=0
PairPos2: "'kern' Horizontal Kerning in Latin lookup 0 per glyph data 1" quotedblleft dx=0 dy=0 dh=-185 dv=0 dx=0 dy=0 dh=0 dv=0
PairPos2: "'kern' Horizontal Kerning in Latin lookup 0 per glyph data 1" quotedblleft dx=0 dy=0 dh=-185 dv=0 dx=0 dy=0 dh=0 dv=0
PairPos2: "'kern' Horizontal Kerning in Latin lookup 0 per glyph data 1" quoteright dx=0 dy=0 dh=-178 dv=0 dx=0 dy=0 dh=0 dv=0
PairPos2: "'kern' Horizontal Kerning in Latin lookup 0 per glyph data 1" quoteright dx=0 dy=0 dh=-178 dv=0 dx=0 dy=0 dh=0 dv=0
PairPos2: "'kern' Horizontal Kerning in Latin lookup 0 per glyph data 1" quoteright dx=0 dy=0 dh=-178 dv=0 dx=0 dy=0 dh=0 dv=0
PairPos2: "'kern' Horizontal Kerning in Latin lookup 0 per glyph data 1" quoteright dx=0 dy=0 dh=-178 dv=0 dx=0 dy=0 dh=0 dv=0
PairPos2: "'kern' Horizontal Kerning in Latin lookup 0 per glyph data 1" quoteright dx=0 dy=0 dh=-178 dv=0 dx=0 dy=0 dh=0 dv=0
PairPos2: "'kern' Horizontal Kerning in Latin lookup 0 per glyph data 1" quoteleft dx=0 dy=0 dh=-185 dv=0 dx=0 dy=0 dh=0 dv=0
PairPos2: "'kern' Horizontal Kerning in Latin lookup 0 per glyph data 1" quoteleft dx=0 dy=0 dh=-185 dv=0 dx=0 dy=0 dh=0 dv=0
PairPos2: "'kern' Horizontal Kerning in Latin lookup 0 per glyph data 1" quoteleft dx=0 dy=0 dh=-185 dv=0 dx=0 dy=0 dh=0 dv=0
PairPos2: "'kern' Horizontal Kerning in Latin lookup 0 per glyph data 1" quoteleft dx=0 dy=0 dh=-185 dv=0 dx=0 dy=0 dh=0 dv=0
PairPos2: "'kern' Horizontal Kerning in Latin lookup 0 per glyph data 1" quoteleft dx=0 dy=0 dh=-185 dv=0 dx=0 dy=0 dh=0 dv=0
PairPos2: "'kern' Horizontal Kerning in Latin lookup 0 per glyph data 1" y dx=0 dy=0 dh=-94 dv=0 dx=0 dy=0 dh=0 dv=0
PairPos2: "'kern' Horizontal Kerning in Latin lookup 0 per glyph data 1" y dx=0 dy=0 dh=-94 dv=0 dx=0 dy=0 dh=0 dv=0
PairPos2: "'kern' Horizontal Kerning in Latin lookup 0 per glyph data 1" y dx=0 dy=0 dh=-94 dv=0 dx=0 dy=0 dh=0 dv=0
PairPos2: "'kern' Horizontal Kerning in Latin lookup 0 per glyph data 1" y dx=0 dy=0 dh=-94 dv=0 dx=0 dy=0 dh=0 dv=0
PairPos2: "'kern' Horizontal Kerning in Latin lookup 0 per glyph data 1" y dx=0 dy=0 dh=-94 dv=0 dx=0 dy=0 dh=0 dv=0
PairPos2: "'kern' Horizontal Kerning in Latin lookup 0 per glyph data 1" w dx=0 dy=0 dh=-53 dv=0 dx=0 dy=0 dh=0 dv=0
PairPos2: "'kern' Horizontal Kerning in Latin lookup 0 per glyph data 1" w dx=0 dy=0 dh=-53 dv=0 dx=0 dy=0 dh=0 dv=0
PairPos2: "'kern' Horizontal Kerning in Latin lookup 0 per glyph data 1" w dx=0 dy=0 dh=-53 dv=0 dx=0 dy=0 dh=0 dv=0
PairPos2: "'kern' Horizontal Kerning in Latin lookup 0 per glyph data 1" w dx=0 dy=0 dh=-53 dv=0 dx=0 dy=0 dh=0 dv=0
PairPos2: "'kern' Horizontal Kerning in Latin lookup 0 per glyph data 1" w dx=0 dy=0 dh=-53 dv=0 dx=0 dy=0 dh=0 dv=0
PairPos2: "'kern' Horizontal Kerning in Latin lookup 0 per glyph data 1" v dx=0 dy=0 dh=-79 dv=0 dx=0 dy=0 dh=0 dv=0
PairPos2: "'kern' Horizontal Kerning in Latin lookup 0 per glyph data 1" v dx=0 dy=0 dh=-79 dv=0 dx=0 dy=0 dh=0 dv=0
PairPos2: "'kern' Horizontal Kerning in Latin lookup 0 per glyph data 1" v dx=0 dy=0 dh=-79 dv=0 dx=0 dy=0 dh=0 dv=0
PairPos2: "'kern' Horizontal Kerning in Latin lookup 0 per glyph data 1" v dx=0 dy=0 dh=-79 dv=0 dx=0 dy=0 dh=0 dv=0
PairPos2: "'kern' Horizontal Kerning in Latin lookup 0 per glyph data 1" v dx=0 dy=0 dh=-79 dv=0 dx=0 dy=0 dh=0 dv=0
PairPos2: "'kern' Horizontal Kerning in Latin lookup 0 per glyph data 1" W dx=0 dy=0 dh=-55 dv=0 dx=0 dy=0 dh=0 dv=0
PairPos2: "'kern' Horizontal Kerning in Latin lookup 0 per glyph data 1" W dx=0 dy=0 dh=-55 dv=0 dx=0 dy=0 dh=0 dv=0
PairPos2: "'kern' Horizontal Kerning in Latin lookup 0 per glyph data 1" W dx=0 dy=0 dh=-55 dv=0 dx=0 dy=0 dh=0 dv=0
PairPos2: "'kern' Horizontal Kerning in Latin lookup 0 per glyph data 1" W dx=0 dy=0 dh=-55 dv=0 dx=0 dy=0 dh=0 dv=0
PairPos2: "'kern' Horizontal Kerning in Latin lookup 0 per glyph data 1" W dx=0 dy=0 dh=-55 dv=0 dx=0 dy=0 dh=0 dv=0
PairPos2: "'kern' Horizontal Kerning in Latin lookup 0 per glyph data 1" V dx=0 dy=0 dh=-101 dv=0 dx=0 dy=0 dh=0 dv=0
PairPos2: "'kern' Horizontal Kerning in Latin lookup 0 per glyph data 1" V dx=0 dy=0 dh=-101 dv=0 dx=0 dy=0 dh=0 dv=0
PairPos2: "'kern' Horizontal Kerning in Latin lookup 0 per glyph data 1" V dx=0 dy=0 dh=-101 dv=0 dx=0 dy=0 dh=0 dv=0
PairPos2: "'kern' Horizontal Kerning in Latin lookup 0 per glyph data 1" V dx=0 dy=0 dh=-101 dv=0 dx=0 dy=0 dh=0 dv=0
PairPos2: "'kern' Horizontal Kerning in Latin lookup 0 per glyph data 1" V dx=0 dy=0 dh=-101 dv=0 dx=0 dy=0 dh=0 dv=0
PairPos2: "'kern' Horizontal Kerning in Latin lookup 0 per glyph data 1" T dx=0 dy=0 dh=-75 dv=0 dx=0 dy=0 dh=0 dv=0
PairPos2: "'kern' Horizontal Kerning in Latin lookup 0 per glyph data 1" T dx=0 dy=0 dh=-75 dv=0 dx=0 dy=0 dh=0 dv=0
PairPos2: "'kern' Horizontal Kerning in Latin lookup 0 per glyph data 1" T dx=0 dy=0 dh=-75 dv=0 dx=0 dy=0 dh=0 dv=0
PairPos2: "'kern' Horizontal Kerning in Latin lookup 0 per glyph data 1" T dx=0 dy=0 dh=-75 dv=0 dx=0 dy=0 dh=0 dv=0
PairPos2: "'kern' Horizontal Kerning in Latin lookup 0 per glyph data 1" T dx=0 dy=0 dh=-75 dv=0 dx=0 dy=0 dh=0 dv=0
PairPos2: "'kern' Horizontal Kerning in Latin lookup 0 per glyph data 1" seven dx=0 dy=0 dh=-115 dv=0 dx=0 dy=0 dh=0 dv=0
PairPos2: "'kern' Horizontal Kerning in Latin lookup 0 per glyph data 1" seven dx=0 dy=0 dh=-115 dv=0 dx=0 dy=0 dh=0 dv=0
PairPos2: "'kern' Horizontal Kerning in Latin lookup 0 per glyph data 1" seven dx=0 dy=0 dh=-115 dv=0 dx=0 dy=0 dh=0 dv=0
PairPos2: "'kern' Horizontal Kerning in Latin lookup 0 per glyph data 1" seven dx=0 dy=0 dh=-115 dv=0 dx=0 dy=0 dh=0 dv=0
PairPos2: "'kern' Horizontal Kerning in Latin lookup 0 per glyph data 1" seven dx=0 dy=0 dh=-115 dv=0 dx=0 dy=0 dh=0 dv=0
PairPos2: "'kern' Horizontal Kerning in Latin lookup 0 per glyph data 1" quotesingle dx=0 dy=0 dh=-200 dv=0 dx=0 dy=0 dh=0 dv=0
PairPos2: "'kern' Horizontal Kerning in Latin lookup 0 per glyph data 1" quotesingle dx=0 dy=0 dh=-200 dv=0 dx=0 dy=0 dh=0 dv=0
PairPos2: "'kern' Horizontal Kerning in Latin lookup 0 per glyph data 1" quotesingle dx=0 dy=0 dh=-200 dv=0 dx=0 dy=0 dh=0 dv=0
PairPos2: "'kern' Horizontal Kerning in Latin lookup 0 per glyph data 1" quotesingle dx=0 dy=0 dh=-200 dv=0 dx=0 dy=0 dh=0 dv=0
PairPos2: "'kern' Horizontal Kerning in Latin lookup 0 per glyph data 1" quotesingle dx=0 dy=0 dh=-200 dv=0 dx=0 dy=0 dh=0 dv=0
PairPos2: "'kern' Horizontal Kerning in Latin lookup 0 per glyph data 1" quotedbl dx=0 dy=0 dh=-219 dv=0 dx=0 dy=0 dh=0 dv=0
PairPos2: "'kern' Horizontal Kerning in Latin lookup 0 per glyph data 1" quotedbl dx=0 dy=0 dh=-219 dv=0 dx=0 dy=0 dh=0 dv=0
PairPos2: "'kern' Horizontal Kerning in Latin lookup 0 per glyph data 1" quotedbl dx=0 dy=0 dh=-219 dv=0 dx=0 dy=0 dh=0 dv=0
PairPos2: "'kern' Horizontal Kerning in Latin lookup 0 per glyph data 1" quotedbl dx=0 dy=0 dh=-219 dv=0 dx=0 dy=0 dh=0 dv=0
PairPos2: "'kern' Horizontal Kerning in Latin lookup 0 per glyph data 1" quotedbl dx=0 dy=0 dh=-219 dv=0 dx=0 dy=0 dh=0 dv=0
EndChar

StartChar: slash
Encoding: 47 47 18
Width: 1141
GlyphClass: 2
Flags: W
LayerCount: 2
Fore
SplineSet
1097 1483 m 0,0,1
 1097 1467 1097 1467 1090 1455.5 c 128,-1,2
 1083 1444 1083 1444 1071.5 1436 c 128,-1,3
 1060 1428 1060 1428 1045.5 1422 c 128,-1,4
 1031 1416 1031 1416 1016 1411 c 1,5,6
 1018 1403 1018 1403 1019 1395.5 c 128,-1,7
 1020 1388 1020 1388 1020 1380 c 0,8,9
 1020 1344 1020 1344 996.5 1312 c 128,-1,10
 973 1280 973 1280 944 1254 c 1,11,12
 940 1239 940 1239 934 1224.5 c 128,-1,13
 928 1210 928 1210 920 1196 c 1,14,-1
 920 1197 l 1,15,16
 912 1181 912 1181 906 1165 c 128,-1,17
 900 1149 900 1149 893 1134 c 128,-1,18
 886 1119 886 1119 876.5 1106.5 c 128,-1,19
 867 1094 867 1094 851 1086 c 1,20,21
 834 1056 834 1056 816.5 1025.5 c 128,-1,22
 799 995 799 995 778 964 c 0,23,24
 779 962 779 962 780 959.5 c 128,-1,25
 781 957 781 957 781 953 c 0,26,27
 781 937 781 937 773.5 925 c 128,-1,28
 766 913 766 913 756 902 c 1,29,-1
 756 903 l 1,30,31
 750 895 750 895 744.5 888 c 128,-1,32
 739 881 739 881 737 872 c 1,33,34
 712 850 712 850 700 830 c 128,-1,35
 688 810 688 810 678.5 790.5 c 128,-1,36
 669 771 669 771 657 751.5 c 128,-1,37
 645 732 645 732 619 710 c 1,38,-1
 619 703 l 2,39,40
 619 691 619 691 611.5 673 c 128,-1,41
 604 655 604 655 593 636.5 c 128,-1,42
 582 618 582 618 569 601 c 128,-1,43
 556 584 556 584 546 574 c 1,44,-1
 546 572 l 2,45,46
 546 541 546 541 526 513 c 128,-1,47
 506 485 506 485 481 462 c 0,48,49
 473 455 473 455 469 446 c 128,-1,50
 465 437 465 437 461 427.5 c 128,-1,51
 457 418 457 418 452 408.5 c 128,-1,52
 447 399 447 399 438 392 c 1,53,54
 435 367 435 367 429 348 c 128,-1,55
 423 329 423 329 415.5 311.5 c 128,-1,56
 408 294 408 294 398.5 277 c 128,-1,57
 389 260 389 260 377 240 c 2,58,-1
 367 225 l 1,59,60
 365 213 365 213 351.5 189.5 c 128,-1,61
 338 166 338 166 320.5 140 c 128,-1,62
 303 114 303 114 285 89.5 c 128,-1,63
 267 65 267 65 255 52 c 1,64,65
 253 41 253 41 244.5 18.5 c 128,-1,66
 236 -4 236 -4 222 -26.5 c 128,-1,67
 208 -49 208 -49 188 -66 c 128,-1,68
 168 -83 168 -83 142 -83 c 0,69,70
 121 -83 121 -83 103.5 -73.5 c 128,-1,71
 86 -64 86 -64 74 -49.5 c 128,-1,72
 62 -35 62 -35 55.5 -18 c 128,-1,73
 49 -1 49 -1 49 15 c 0,74,75
 49 44 49 44 64 67 c 128,-1,76
 79 90 79 90 98 111 c 0,77,78
 122 139 122 139 136 162.5 c 128,-1,79
 150 186 150 186 170 203 c 0,80,81
 177 211 177 211 183.5 221 c 128,-1,82
 190 231 190 231 199 245.5 c 128,-1,83
 208 260 208 260 221 280 c 128,-1,84
 234 300 234 300 254 328 c 0,85,86
 279 361 279 361 297.5 388 c 128,-1,87
 316 415 316 415 331 440.5 c 128,-1,88
 346 466 346 466 359.5 492.5 c 128,-1,89
 373 519 373 519 387 551 c 0,90,91
 398 576 398 576 415 602.5 c 128,-1,92
 432 629 432 629 449 653.5 c 128,-1,93
 466 678 466 678 480.5 701 c 128,-1,94
 495 724 495 724 501 743 c 1,95,-1
 500 743 l 1,96,97
 503 753 503 753 505.5 762.5 c 128,-1,98
 508 772 508 772 515 783 c 1,99,-1
 515 782 l 1,100,101
 526 801 526 801 532 808 c 1,102,-1
 532 807 l 1,103,104
 538 815 538 815 542.5 822 c 128,-1,105
 547 829 547 829 547 839 c 2,106,-1
 547 850 l 1,107,108
 556 857 556 857 569 876.5 c 128,-1,109
 582 896 582 896 593.5 918.5 c 128,-1,110
 605 941 605 941 613.5 962.5 c 128,-1,111
 622 984 622 984 622 995 c 1,112,113
 652 1021 652 1021 667.5 1053 c 128,-1,114
 683 1085 683 1085 694 1115 c 0,115,116
 708 1155 708 1155 726.5 1188.5 c 128,-1,117
 745 1222 745 1222 766 1258 c 2,118,-1
 775 1275 l 2,119,120
 779 1281 779 1281 784.5 1286.5 c 128,-1,121
 790 1292 790 1292 796 1298 c 0,122,123
 798 1300 798 1300 808 1315 c 128,-1,124
 818 1330 818 1330 829.5 1351 c 128,-1,125
 841 1372 841 1372 851.5 1395.5 c 128,-1,126
 862 1419 862 1419 864 1438 c 1,127,128
 871 1442 871 1442 879.5 1453.5 c 128,-1,129
 888 1465 888 1465 895 1478 c 128,-1,130
 902 1491 902 1491 907 1503 c 128,-1,131
 912 1515 912 1515 912 1521 c 1,132,133
 931 1527 931 1527 936.5 1531 c 128,-1,134
 942 1535 942 1535 947 1538 c 2,135,-1
 946 1538 l 1,136,137
 956 1545 956 1545 967.5 1550 c 128,-1,138
 979 1555 979 1555 1004 1555 c 0,139,140
 1042 1555 1042 1555 1069.5 1536 c 128,-1,141
 1097 1517 1097 1517 1097 1483 c 0,0,1
EndSplineSet
Validated: 1
PairPos2: "'kern' Horizontal Kerning in Latin lookup 0 per glyph data 1" z dx=0 dy=0 dh=-84 dv=0 dx=0 dy=0 dh=0 dv=0
PairPos2: "'kern' Horizontal Kerning in Latin lookup 0 per glyph data 1" z dx=0 dy=0 dh=-84 dv=0 dx=0 dy=0 dh=0 dv=0
PairPos2: "'kern' Horizontal Kerning in Latin lookup 0 per glyph data 1" z dx=0 dy=0 dh=-84 dv=0 dx=0 dy=0 dh=0 dv=0
PairPos2: "'kern' Horizontal Kerning in Latin lookup 0 per glyph data 1" z dx=0 dy=0 dh=-84 dv=0 dx=0 dy=0 dh=0 dv=0
PairPos2: "'kern' Horizontal Kerning in Latin lookup 0 per glyph data 1" z dx=0 dy=0 dh=-84 dv=0 dx=0 dy=0 dh=0 dv=0
PairPos2: "'kern' Horizontal Kerning in Latin lookup 0 per glyph data 1" w dx=0 dy=0 dh=-49 dv=0 dx=0 dy=0 dh=0 dv=0
PairPos2: "'kern' Horizontal Kerning in Latin lookup 0 per glyph data 1" w dx=0 dy=0 dh=-49 dv=0 dx=0 dy=0 dh=0 dv=0
PairPos2: "'kern' Horizontal Kerning in Latin lookup 0 per glyph data 1" w dx=0 dy=0 dh=-49 dv=0 dx=0 dy=0 dh=0 dv=0
PairPos2: "'kern' Horizontal Kerning in Latin lookup 0 per glyph data 1" w dx=0 dy=0 dh=-49 dv=0 dx=0 dy=0 dh=0 dv=0
PairPos2: "'kern' Horizontal Kerning in Latin lookup 0 per glyph data 1" w dx=0 dy=0 dh=-49 dv=0 dx=0 dy=0 dh=0 dv=0
PairPos2: "'kern' Horizontal Kerning in Latin lookup 0 per glyph data 1" s dx=0 dy=0 dh=-90 dv=0 dx=0 dy=0 dh=0 dv=0
PairPos2: "'kern' Horizontal Kerning in Latin lookup 0 per glyph data 1" s dx=0 dy=0 dh=-90 dv=0 dx=0 dy=0 dh=0 dv=0
PairPos2: "'kern' Horizontal Kerning in Latin lookup 0 per glyph data 1" s dx=0 dy=0 dh=-90 dv=0 dx=0 dy=0 dh=0 dv=0
PairPos2: "'kern' Horizontal Kerning in Latin lookup 0 per glyph data 1" s dx=0 dy=0 dh=-90 dv=0 dx=0 dy=0 dh=0 dv=0
PairPos2: "'kern' Horizontal Kerning in Latin lookup 0 per glyph data 1" s dx=0 dy=0 dh=-90 dv=0 dx=0 dy=0 dh=0 dv=0
PairPos2: "'kern' Horizontal Kerning in Latin lookup 0 per glyph data 1" r dx=0 dy=0 dh=-56 dv=0 dx=0 dy=0 dh=0 dv=0
PairPos2: "'kern' Horizontal Kerning in Latin lookup 0 per glyph data 1" r dx=0 dy=0 dh=-56 dv=0 dx=0 dy=0 dh=0 dv=0
PairPos2: "'kern' Horizontal Kerning in Latin lookup 0 per glyph data 1" r dx=0 dy=0 dh=-56 dv=0 dx=0 dy=0 dh=0 dv=0
PairPos2: "'kern' Horizontal Kerning in Latin lookup 0 per glyph data 1" r dx=0 dy=0 dh=-56 dv=0 dx=0 dy=0 dh=0 dv=0
PairPos2: "'kern' Horizontal Kerning in Latin lookup 0 per glyph data 1" r dx=0 dy=0 dh=-56 dv=0 dx=0 dy=0 dh=0 dv=0
PairPos2: "'kern' Horizontal Kerning in Latin lookup 0 per glyph data 1" q dx=0 dy=0 dh=-108 dv=0 dx=0 dy=0 dh=0 dv=0
PairPos2: "'kern' Horizontal Kerning in Latin lookup 0 per glyph data 1" q dx=0 dy=0 dh=-108 dv=0 dx=0 dy=0 dh=0 dv=0
PairPos2: "'kern' Horizontal Kerning in Latin lookup 0 per glyph data 1" q dx=0 dy=0 dh=-108 dv=0 dx=0 dy=0 dh=0 dv=0
PairPos2: "'kern' Horizontal Kerning in Latin lookup 0 per glyph data 1" q dx=0 dy=0 dh=-108 dv=0 dx=0 dy=0 dh=0 dv=0
PairPos2: "'kern' Horizontal Kerning in Latin lookup 0 per glyph data 1" q dx=0 dy=0 dh=-108 dv=0 dx=0 dy=0 dh=0 dv=0
PairPos2: "'kern' Horizontal Kerning in Latin lookup 0 per glyph data 1" p dx=0 dy=0 dh=-51 dv=0 dx=0 dy=0 dh=0 dv=0
PairPos2: "'kern' Horizontal Kerning in Latin lookup 0 per glyph data 1" p dx=0 dy=0 dh=-51 dv=0 dx=0 dy=0 dh=0 dv=0
PairPos2: "'kern' Horizontal Kerning in Latin lookup 0 per glyph data 1" p dx=0 dy=0 dh=-51 dv=0 dx=0 dy=0 dh=0 dv=0
PairPos2: "'kern' Horizontal Kerning in Latin lookup 0 per glyph data 1" p dx=0 dy=0 dh=-51 dv=0 dx=0 dy=0 dh=0 dv=0
PairPos2: "'kern' Horizontal Kerning in Latin lookup 0 per glyph data 1" p dx=0 dy=0 dh=-51 dv=0 dx=0 dy=0 dh=0 dv=0
PairPos2: "'kern' Horizontal Kerning in Latin lookup 0 per glyph data 1" o dx=0 dy=0 dh=-112 dv=0 dx=0 dy=0 dh=0 dv=0
PairPos2: "'kern' Horizontal Kerning in Latin lookup 0 per glyph data 1" o dx=0 dy=0 dh=-112 dv=0 dx=0 dy=0 dh=0 dv=0
PairPos2: "'kern' Horizontal Kerning in Latin lookup 0 per glyph data 1" o dx=0 dy=0 dh=-112 dv=0 dx=0 dy=0 dh=0 dv=0
PairPos2: "'kern' Horizontal Kerning in Latin lookup 0 per glyph data 1" o dx=0 dy=0 dh=-112 dv=0 dx=0 dy=0 dh=0 dv=0
PairPos2: "'kern' Horizontal Kerning in Latin lookup 0 per glyph data 1" o dx=0 dy=0 dh=-112 dv=0 dx=0 dy=0 dh=0 dv=0
PairPos2: "'kern' Horizontal Kerning in Latin lookup 0 per glyph data 1" n dx=0 dy=0 dh=-60 dv=0 dx=0 dy=0 dh=0 dv=0
PairPos2: "'kern' Horizontal Kerning in Latin lookup 0 per glyph data 1" n dx=0 dy=0 dh=-60 dv=0 dx=0 dy=0 dh=0 dv=0
PairPos2: "'kern' Horizontal Kerning in Latin lookup 0 per glyph data 1" n dx=0 dy=0 dh=-60 dv=0 dx=0 dy=0 dh=0 dv=0
PairPos2: "'kern' Horizontal Kerning in Latin lookup 0 per glyph data 1" n dx=0 dy=0 dh=-60 dv=0 dx=0 dy=0 dh=0 dv=0
PairPos2: "'kern' Horizontal Kerning in Latin lookup 0 per glyph data 1" n dx=0 dy=0 dh=-60 dv=0 dx=0 dy=0 dh=0 dv=0
PairPos2: "'kern' Horizontal Kerning in Latin lookup 0 per glyph data 1" m dx=0 dy=0 dh=-77 dv=0 dx=0 dy=0 dh=0 dv=0
PairPos2: "'kern' Horizontal Kerning in Latin lookup 0 per glyph data 1" m dx=0 dy=0 dh=-77 dv=0 dx=0 dy=0 dh=0 dv=0
PairPos2: "'kern' Horizontal Kerning in Latin lookup 0 per glyph data 1" m dx=0 dy=0 dh=-77 dv=0 dx=0 dy=0 dh=0 dv=0
PairPos2: "'kern' Horizontal Kerning in Latin lookup 0 per glyph data 1" m dx=0 dy=0 dh=-77 dv=0 dx=0 dy=0 dh=0 dv=0
PairPos2: "'kern' Horizontal Kerning in Latin lookup 0 per glyph data 1" m dx=0 dy=0 dh=-77 dv=0 dx=0 dy=0 dh=0 dv=0
PairPos2: "'kern' Horizontal Kerning in Latin lookup 0 per glyph data 1" i dx=0 dy=0 dh=-55 dv=0 dx=0 dy=0 dh=0 dv=0
PairPos2: "'kern' Horizontal Kerning in Latin lookup 0 per glyph data 1" i dx=0 dy=0 dh=-55 dv=0 dx=0 dy=0 dh=0 dv=0
PairPos2: "'kern' Horizontal Kerning in Latin lookup 0 per glyph data 1" i dx=0 dy=0 dh=-55 dv=0 dx=0 dy=0 dh=0 dv=0
PairPos2: "'kern' Horizontal Kerning in Latin lookup 0 per glyph data 1" i dx=0 dy=0 dh=-55 dv=0 dx=0 dy=0 dh=0 dv=0
PairPos2: "'kern' Horizontal Kerning in Latin lookup 0 per glyph data 1" i dx=0 dy=0 dh=-55 dv=0 dx=0 dy=0 dh=0 dv=0
PairPos2: "'kern' Horizontal Kerning in Latin lookup 0 per glyph data 1" g dx=0 dy=0 dh=-126 dv=0 dx=0 dy=0 dh=0 dv=0
PairPos2: "'kern' Horizontal Kerning in Latin lookup 0 per glyph data 1" g dx=0 dy=0 dh=-126 dv=0 dx=0 dy=0 dh=0 dv=0
PairPos2: "'kern' Horizontal Kerning in Latin lookup 0 per glyph data 1" g dx=0 dy=0 dh=-126 dv=0 dx=0 dy=0 dh=0 dv=0
PairPos2: "'kern' Horizontal Kerning in Latin lookup 0 per glyph data 1" g dx=0 dy=0 dh=-126 dv=0 dx=0 dy=0 dh=0 dv=0
PairPos2: "'kern' Horizontal Kerning in Latin lookup 0 per glyph data 1" g dx=0 dy=0 dh=-126 dv=0 dx=0 dy=0 dh=0 dv=0
PairPos2: "'kern' Horizontal Kerning in Latin lookup 0 per glyph data 1" f dx=0 dy=0 dh=-64 dv=0 dx=0 dy=0 dh=0 dv=0
PairPos2: "'kern' Horizontal Kerning in Latin lookup 0 per glyph data 1" f dx=0 dy=0 dh=-64 dv=0 dx=0 dy=0 dh=0 dv=0
PairPos2: "'kern' Horizontal Kerning in Latin lookup 0 per glyph data 1" f dx=0 dy=0 dh=-64 dv=0 dx=0 dy=0 dh=0 dv=0
PairPos2: "'kern' Horizontal Kerning in Latin lookup 0 per glyph data 1" f dx=0 dy=0 dh=-64 dv=0 dx=0 dy=0 dh=0 dv=0
PairPos2: "'kern' Horizontal Kerning in Latin lookup 0 per glyph data 1" f dx=0 dy=0 dh=-64 dv=0 dx=0 dy=0 dh=0 dv=0
PairPos2: "'kern' Horizontal Kerning in Latin lookup 0 per glyph data 1" e dx=0 dy=0 dh=-104 dv=0 dx=0 dy=0 dh=0 dv=0
PairPos2: "'kern' Horizontal Kerning in Latin lookup 0 per glyph data 1" e dx=0 dy=0 dh=-104 dv=0 dx=0 dy=0 dh=0 dv=0
PairPos2: "'kern' Horizontal Kerning in Latin lookup 0 per glyph data 1" e dx=0 dy=0 dh=-104 dv=0 dx=0 dy=0 dh=0 dv=0
PairPos2: "'kern' Horizontal Kerning in Latin lookup 0 per glyph data 1" e dx=0 dy=0 dh=-104 dv=0 dx=0 dy=0 dh=0 dv=0
PairPos2: "'kern' Horizontal Kerning in Latin lookup 0 per glyph data 1" e dx=0 dy=0 dh=-104 dv=0 dx=0 dy=0 dh=0 dv=0
PairPos2: "'kern' Horizontal Kerning in Latin lookup 0 per glyph data 1" d dx=0 dy=0 dh=-97 dv=0 dx=0 dy=0 dh=0 dv=0
PairPos2: "'kern' Horizontal Kerning in Latin lookup 0 per glyph data 1" d dx=0 dy=0 dh=-97 dv=0 dx=0 dy=0 dh=0 dv=0
PairPos2: "'kern' Horizontal Kerning in Latin lookup 0 per glyph data 1" d dx=0 dy=0 dh=-97 dv=0 dx=0 dy=0 dh=0 dv=0
PairPos2: "'kern' Horizontal Kerning in Latin lookup 0 per glyph data 1" d dx=0 dy=0 dh=-97 dv=0 dx=0 dy=0 dh=0 dv=0
PairPos2: "'kern' Horizontal Kerning in Latin lookup 0 per glyph data 1" d dx=0 dy=0 dh=-97 dv=0 dx=0 dy=0 dh=0 dv=0
PairPos2: "'kern' Horizontal Kerning in Latin lookup 0 per glyph data 1" c dx=0 dy=0 dh=-105 dv=0 dx=0 dy=0 dh=0 dv=0
PairPos2: "'kern' Horizontal Kerning in Latin lookup 0 per glyph data 1" c dx=0 dy=0 dh=-105 dv=0 dx=0 dy=0 dh=0 dv=0
PairPos2: "'kern' Horizontal Kerning in Latin lookup 0 per glyph data 1" c dx=0 dy=0 dh=-105 dv=0 dx=0 dy=0 dh=0 dv=0
PairPos2: "'kern' Horizontal Kerning in Latin lookup 0 per glyph data 1" c dx=0 dy=0 dh=-105 dv=0 dx=0 dy=0 dh=0 dv=0
PairPos2: "'kern' Horizontal Kerning in Latin lookup 0 per glyph data 1" c dx=0 dy=0 dh=-105 dv=0 dx=0 dy=0 dh=0 dv=0
PairPos2: "'kern' Horizontal Kerning in Latin lookup 0 per glyph data 1" a dx=0 dy=0 dh=-103 dv=0 dx=0 dy=0 dh=0 dv=0
PairPos2: "'kern' Horizontal Kerning in Latin lookup 0 per glyph data 1" a dx=0 dy=0 dh=-103 dv=0 dx=0 dy=0 dh=0 dv=0
PairPos2: "'kern' Horizontal Kerning in Latin lookup 0 per glyph data 1" a dx=0 dy=0 dh=-103 dv=0 dx=0 dy=0 dh=0 dv=0
PairPos2: "'kern' Horizontal Kerning in Latin lookup 0 per glyph data 1" a dx=0 dy=0 dh=-103 dv=0 dx=0 dy=0 dh=0 dv=0
PairPos2: "'kern' Horizontal Kerning in Latin lookup 0 per glyph data 1" a dx=0 dy=0 dh=-103 dv=0 dx=0 dy=0 dh=0 dv=0
PairPos2: "'kern' Horizontal Kerning in Latin lookup 0 per glyph data 1" J dx=0 dy=0 dh=-61 dv=0 dx=0 dy=0 dh=0 dv=0
PairPos2: "'kern' Horizontal Kerning in Latin lookup 0 per glyph data 1" J dx=0 dy=0 dh=-61 dv=0 dx=0 dy=0 dh=0 dv=0
PairPos2: "'kern' Horizontal Kerning in Latin lookup 0 per glyph data 1" J dx=0 dy=0 dh=-61 dv=0 dx=0 dy=0 dh=0 dv=0
PairPos2: "'kern' Horizontal Kerning in Latin lookup 0 per glyph data 1" J dx=0 dy=0 dh=-61 dv=0 dx=0 dy=0 dh=0 dv=0
PairPos2: "'kern' Horizontal Kerning in Latin lookup 0 per glyph data 1" J dx=0 dy=0 dh=-61 dv=0 dx=0 dy=0 dh=0 dv=0
PairPos2: "'kern' Horizontal Kerning in Latin lookup 0 per glyph data 1" A dx=0 dy=0 dh=-84 dv=0 dx=0 dy=0 dh=0 dv=0
PairPos2: "'kern' Horizontal Kerning in Latin lookup 0 per glyph data 1" A dx=0 dy=0 dh=-84 dv=0 dx=0 dy=0 dh=0 dv=0
PairPos2: "'kern' Horizontal Kerning in Latin lookup 0 per glyph data 1" A dx=0 dy=0 dh=-84 dv=0 dx=0 dy=0 dh=0 dv=0
PairPos2: "'kern' Horizontal Kerning in Latin lookup 0 per glyph data 1" A dx=0 dy=0 dh=-84 dv=0 dx=0 dy=0 dh=0 dv=0
PairPos2: "'kern' Horizontal Kerning in Latin lookup 0 per glyph data 1" A dx=0 dy=0 dh=-84 dv=0 dx=0 dy=0 dh=0 dv=0
PairPos2: "'kern' Horizontal Kerning in Latin lookup 0 per glyph data 1" four dx=0 dy=0 dh=-87 dv=0 dx=0 dy=0 dh=0 dv=0
PairPos2: "'kern' Horizontal Kerning in Latin lookup 0 per glyph data 1" four dx=0 dy=0 dh=-87 dv=0 dx=0 dy=0 dh=0 dv=0
PairPos2: "'kern' Horizontal Kerning in Latin lookup 0 per glyph data 1" four dx=0 dy=0 dh=-87 dv=0 dx=0 dy=0 dh=0 dv=0
PairPos2: "'kern' Horizontal Kerning in Latin lookup 0 per glyph data 1" four dx=0 dy=0 dh=-87 dv=0 dx=0 dy=0 dh=0 dv=0
PairPos2: "'kern' Horizontal Kerning in Latin lookup 0 per glyph data 1" four dx=0 dy=0 dh=-87 dv=0 dx=0 dy=0 dh=0 dv=0
PairPos2: "'kern' Horizontal Kerning in Latin lookup 0 per glyph data 1" slash dx=0 dy=0 dh=-154 dv=0 dx=0 dy=0 dh=0 dv=0
PairPos2: "'kern' Horizontal Kerning in Latin lookup 0 per glyph data 1" slash dx=0 dy=0 dh=-154 dv=0 dx=0 dy=0 dh=0 dv=0
PairPos2: "'kern' Horizontal Kerning in Latin lookup 0 per glyph data 1" slash dx=0 dy=0 dh=-154 dv=0 dx=0 dy=0 dh=0 dv=0
PairPos2: "'kern' Horizontal Kerning in Latin lookup 0 per glyph data 1" slash dx=0 dy=0 dh=-154 dv=0 dx=0 dy=0 dh=0 dv=0
PairPos2: "'kern' Horizontal Kerning in Latin lookup 0 per glyph data 1" slash dx=0 dy=0 dh=-154 dv=0 dx=0 dy=0 dh=0 dv=0
EndChar

StartChar: zero
Encoding: 48 48 19
Width: 1251
GlyphClass: 2
Flags: W
LayerCount: 2
Fore
SplineSet
1146 603 m 0,0,1
 1146 592 1146 592 1140.5 585.5 c 128,-1,2
 1135 579 1135 579 1125 579 c 256,3,4
 1115 579 1115 579 1106 583.5 c 128,-1,5
 1097 588 1097 588 1086 588 c 0,6,7
 1084 585 1084 585 1082.5 582 c 128,-1,8
 1081 579 1081 579 1081 575 c 0,9,10
 1081 568 1081 568 1086.5 567.5 c 128,-1,11
 1092 567 1092 567 1098 566.5 c 128,-1,12
 1104 566 1104 566 1109.5 563 c 128,-1,13
 1115 560 1115 560 1115 549 c 256,14,15
 1115 538 1115 538 1112 515 c 128,-1,16
 1109 492 1109 492 1103.5 467 c 128,-1,17
 1098 442 1098 442 1091.5 421 c 128,-1,18
 1085 400 1085 400 1078 393 c 0,19,20
 1069 383 1069 383 1064 374.5 c 128,-1,21
 1059 366 1059 366 1060 353 c 2,22,-1
 1061 327 l 2,23,24
 1062 310 1062 310 1056.5 300.5 c 128,-1,25
 1051 291 1051 291 1044.5 283.5 c 128,-1,26
 1038 276 1038 276 1033 269.5 c 128,-1,27
 1028 263 1028 263 1028 253 c 0,28,29
 1028 248 1028 248 1029 245 c 1,30,31
 1016 250 1016 250 1003 253.5 c 128,-1,32
 990 257 990 257 976 257 c 0,33,34
 961 257 961 257 949 251 c 128,-1,35
 937 245 937 245 930 231 c 0,36,37
 930 226 930 226 932 221 c 128,-1,38
 934 216 934 216 940 216 c 0,39,40
 950 216 950 216 958 224 c 128,-1,41
 966 232 966 232 976 232 c 0,42,43
 983 232 983 232 985 225 c 128,-1,44
 987 218 987 218 987 213 c 0,45,46
 987 200 987 200 983 191 c 128,-1,47
 979 182 979 182 964 182 c 0,48,49
 955 182 955 182 946.5 184 c 128,-1,50
 938 186 938 186 929 186 c 1,51,-1
 921 180 l 1,52,53
 927 163 927 163 944 160 c 1,54,55
 920 133 920 133 888.5 105 c 128,-1,56
 857 77 857 77 821 54 c 128,-1,57
 785 31 785 31 746 16.5 c 128,-1,58
 707 2 707 2 670 2 c 0,59,60
 646 2 646 2 604.5 9 c 128,-1,61
 563 16 563 16 519 26.5 c 128,-1,62
 475 37 475 37 435.5 50.5 c 128,-1,63
 396 64 396 64 376 78 c 0,64,65
 363 87 363 87 361.5 93 c 128,-1,66
 360 99 360 99 359 103.5 c 128,-1,67
 358 108 358 108 353 112.5 c 128,-1,68
 348 117 348 117 329 122 c 0,69,70
 287 134 287 134 268 151 c 128,-1,71
 249 168 249 168 241 186.5 c 128,-1,72
 233 205 233 205 231 222.5 c 128,-1,73
 229 240 229 240 220 252 c 256,74,75
 211 264 211 264 201 277 c 128,-1,76
 191 290 191 290 182 304 c 128,-1,77
 173 318 173 318 167 332.5 c 128,-1,78
 161 347 161 347 161 363 c 0,79,80
 161 375 161 375 170.5 382.5 c 128,-1,81
 180 390 180 390 180 399 c 0,82,83
 180 402 180 402 178 405 c 128,-1,84
 176 408 176 408 174 410 c 0,85,86
 163 422 163 422 156 431 c 128,-1,87
 149 440 149 440 145 450 c 128,-1,88
 141 460 141 460 138.5 471.5 c 128,-1,89
 136 483 136 483 135 499 c 0,90,91
 132 531 132 531 122.5 562.5 c 128,-1,92
 113 594 113 594 113 626 c 0,93,94
 113 651 113 651 114 676 c 128,-1,95
 115 701 115 701 115 726 c 0,96,97
 115 749 115 749 120.5 771.5 c 128,-1,98
 126 794 126 794 126 816 c 0,99,100
 126 832 126 832 123.5 847 c 128,-1,101
 121 862 121 862 121 878 c 0,102,103
 121 915 121 915 131.5 950.5 c 128,-1,104
 142 986 142 986 154 1021.5 c 128,-1,105
 166 1057 166 1057 176.5 1093 c 128,-1,106
 187 1129 187 1129 187 1167 c 0,107,108
 187 1177 187 1177 186 1187 c 128,-1,109
 185 1197 185 1197 185 1208 c 0,110,111
 185 1227 185 1227 192.5 1233 c 128,-1,112
 200 1239 200 1239 208.5 1240.5 c 128,-1,113
 217 1242 217 1242 224.5 1244 c 128,-1,114
 232 1246 232 1246 232 1258 c 0,115,116
 232 1265 232 1265 230.5 1271.5 c 128,-1,117
 229 1278 229 1278 229 1285 c 0,118,119
 229 1293 229 1293 239.5 1302.5 c 128,-1,120
 250 1312 250 1312 263.5 1323 c 128,-1,121
 277 1334 277 1334 290 1345.5 c 128,-1,122
 303 1357 303 1357 308 1370 c 0,123,124
 313 1382 313 1382 324.5 1386 c 128,-1,125
 336 1390 336 1390 347.5 1392.5 c 128,-1,126
 359 1395 359 1395 368 1398.5 c 128,-1,127
 377 1402 377 1402 377 1414 c 0,128,129
 377 1420 377 1420 374 1429 c 1,130,131
 389 1422 389 1422 405 1419.5 c 128,-1,132
 421 1417 421 1417 438 1417 c 0,133,134
 460 1417 460 1417 474.5 1423 c 128,-1,135
 489 1429 489 1429 501 1436.5 c 128,-1,136
 513 1444 513 1444 526.5 1450.5 c 128,-1,137
 540 1457 540 1457 560 1457 c 0,138,139
 586 1457 586 1457 610 1465.5 c 128,-1,140
 634 1474 634 1474 660 1474 c 0,141,142
 672 1474 672 1474 704 1467 c 128,-1,143
 736 1460 736 1460 769.5 1449 c 128,-1,144
 803 1438 803 1438 829.5 1425 c 128,-1,145
 856 1412 856 1412 858 1400 c 1,146,147
 865 1402 865 1402 871 1402 c 128,-1,148
 877 1402 877 1402 883 1402 c 0,149,150
 900 1402 900 1402 913.5 1398 c 128,-1,151
 927 1394 927 1394 938.5 1388 c 128,-1,152
 950 1382 950 1382 961.5 1374 c 128,-1,153
 973 1366 973 1366 986 1358 c 1,154,-1
 987 1352 l 1,155,-1
 988 1347 l 2,156,157
 988 1334 988 1334 981.5 1323 c 128,-1,158
 975 1312 975 1312 972 1300 c 1,159,160
 975 1291 975 1291 983 1287 c 128,-1,161
 991 1283 991 1283 999 1279 c 128,-1,162
 1007 1275 1007 1275 1014 1270 c 128,-1,163
 1021 1265 1021 1265 1022 1254 c 256,164,165
 1023 1243 1023 1243 1026.5 1236.5 c 128,-1,166
 1030 1230 1030 1230 1044 1229 c 1,167,-1
 1043 1208 l 1,168,-1
 1043 1198 l 2,169,170
 1043 1163 1043 1163 1054.5 1138 c 128,-1,171
 1066 1113 1066 1113 1080.5 1093 c 128,-1,172
 1095 1073 1095 1073 1106.5 1054.5 c 128,-1,173
 1118 1036 1118 1036 1118 1015 c 0,174,175
 1118 995 1118 995 1108.5 977.5 c 128,-1,176
 1099 960 1099 960 1099 944 c 0,177,178
 1099 938 1099 938 1106 927.5 c 128,-1,179
 1113 917 1113 917 1121 903 c 128,-1,180
 1129 889 1129 889 1136 872.5 c 128,-1,181
 1143 856 1143 856 1143 837 c 0,182,183
 1143 804 1143 804 1115 787 c 1,184,185
 1113 781 1113 781 1113 777 c 0,186,187
 1113 768 1113 768 1118 763 c 128,-1,188
 1123 758 1123 758 1128.5 754 c 128,-1,189
 1134 750 1134 750 1139 744 c 128,-1,190
 1144 738 1144 738 1144 726 c 256,191,192
 1144 714 1144 714 1139.5 705 c 128,-1,193
 1135 696 1135 696 1129.5 688.5 c 128,-1,194
 1124 681 1124 681 1119.5 674.5 c 128,-1,195
 1115 668 1115 668 1115 661 c 0,196,197
 1115 652 1115 652 1120 645.5 c 128,-1,198
 1125 639 1125 639 1130.5 632.5 c 128,-1,199
 1136 626 1136 626 1141 619 c 128,-1,200
 1146 612 1146 612 1146 603 c 0,0,1
1117 822 m 0,201,202
 1117 833 1117 833 1108 837 c 128,-1,203
 1099 841 1099 841 1091 841 c 0,204,205
 1071 841 1071 841 1071 823 c 0,206,207
 1071 814 1071 814 1078.5 810 c 128,-1,208
 1086 806 1086 806 1094 806 c 256,209,210
 1102 806 1102 806 1109.5 810 c 128,-1,211
 1117 814 1117 814 1117 822 c 0,201,202
1008 730 m 0,212,213
 1008 750 1008 750 1000.5 767.5 c 128,-1,214
 993 785 993 785 993 805 c 0,215,216
 993 828 993 828 995 850 c 128,-1,217
 997 872 997 872 997 895 c 0,218,219
 997 910 997 910 1000.5 924 c 128,-1,220
 1004 938 1004 938 1004 952 c 0,221,222
 1004 968 1004 968 994.5 995 c 128,-1,223
 985 1022 985 1022 972 1051.5 c 128,-1,224
 959 1081 959 1081 945.5 1108 c 128,-1,225
 932 1135 932 1135 925 1152 c 0,226,227
 924 1153 924 1153 922 1158.5 c 128,-1,228
 920 1164 920 1164 917 1169.5 c 128,-1,229
 914 1175 914 1175 911.5 1179.5 c 128,-1,230
 909 1184 909 1184 907 1184 c 0,231,232
 906 1182 906 1182 902 1182 c 0,233,234
 899 1182 899 1182 882.5 1195 c 128,-1,235
 866 1208 866 1208 847.5 1227.5 c 128,-1,236
 829 1247 829 1247 814.5 1268.5 c 128,-1,237
 800 1290 800 1290 800 1308 c 0,238,239
 800 1313 800 1313 801 1315 c 1,240,241
 787 1315 787 1315 767.5 1318.5 c 128,-1,242
 748 1322 748 1322 728.5 1329 c 128,-1,243
 709 1336 709 1336 693.5 1347 c 128,-1,244
 678 1358 678 1358 673 1372 c 1,245,246
 648 1369 648 1369 624.5 1361.5 c 128,-1,247
 601 1354 601 1354 578 1346.5 c 128,-1,248
 555 1339 555 1339 531 1333 c 128,-1,249
 507 1327 507 1327 482 1327 c 0,250,251
 476 1327 476 1327 470.5 1327.5 c 128,-1,252
 465 1328 465 1328 459 1329 c 1,253,254
 462 1323 462 1323 462 1316 c 0,255,256
 462 1305 462 1305 454 1302.5 c 128,-1,257
 446 1300 446 1300 435 1300 c 0,258,259
 427 1300 427 1300 420.5 1300.5 c 128,-1,260
 414 1301 414 1301 409 1301 c 2,261,-1
 402 1300 l 1,262,-1
 403 1291 l 1,263,-1
 403 1287 l 2,264,265
 403 1275 403 1275 396.5 1267 c 128,-1,266
 390 1259 390 1259 381 1253 c 128,-1,267
 372 1247 372 1247 362 1241.5 c 128,-1,268
 352 1236 352 1236 345 1229 c 1,269,270
 357 1227 357 1227 357 1214 c 0,271,272
 357 1197 357 1197 344 1172.5 c 128,-1,273
 331 1148 331 1148 315.5 1116.5 c 128,-1,274
 300 1085 300 1085 287 1048.5 c 128,-1,275
 274 1012 274 1012 274 972 c 0,276,277
 271 967 271 967 266 963.5 c 128,-1,278
 261 960 261 960 255 960 c 0,279,280
 247 960 247 960 239 964.5 c 128,-1,281
 231 969 231 969 222 969 c 256,282,283
 213 969 213 969 213 962 c 0,284,285
 213 951 213 951 219.5 943 c 128,-1,286
 226 935 226 935 234.5 926 c 128,-1,287
 243 917 243 917 249.5 907 c 128,-1,288
 256 897 256 897 256 883 c 0,289,290
 256 848 256 848 249.5 834.5 c 128,-1,291
 243 821 243 821 235.5 814.5 c 128,-1,292
 228 808 228 808 222 799.5 c 128,-1,293
 216 791 216 791 216 766 c 0,294,295
 216 760 216 760 216 754.5 c 128,-1,296
 216 749 216 749 217 744 c 0,297,298
 204 727 204 727 188 716 c 1,299,300
 203 711 203 711 213 699.5 c 128,-1,301
 223 688 223 688 229 675.5 c 128,-1,302
 235 663 235 663 238 650 c 128,-1,303
 241 637 241 637 241 629 c 0,304,305
 241 599 241 599 246.5 569.5 c 128,-1,306
 252 540 252 540 252 510 c 0,307,308
 252 483 252 483 247.5 473 c 128,-1,309
 243 463 243 463 237 460 c 128,-1,310
 231 457 231 457 226.5 457.5 c 128,-1,311
 222 458 222 458 222 452 c 0,312,313
 222 445 222 445 227 445 c 0,314,315
 235 445 235 445 244 450 c 128,-1,316
 253 455 253 455 260 459 c 1,317,318
 262 451 262 451 262 436 c 128,-1,319
 262 421 262 421 262.5 406 c 128,-1,320
 263 391 263 391 266.5 379.5 c 128,-1,321
 270 368 270 368 280 366 c 0,322,323
 295 363 295 363 301 356 c 128,-1,324
 307 349 307 349 310.5 340 c 128,-1,325
 314 331 314 331 318 321.5 c 128,-1,326
 322 312 322 312 334 305 c 0,327,328
 350 296 350 296 364 282.5 c 128,-1,329
 378 269 378 269 393 257 c 128,-1,330
 408 245 408 245 424.5 235.5 c 128,-1,331
 441 226 441 226 461 225 c 0,332,333
 496 222 496 222 531.5 216.5 c 128,-1,334
 567 211 567 211 602 203 c 0,335,336
 615 199 615 199 632 199 c 0,337,338
 652 199 652 199 671.5 204.5 c 128,-1,339
 691 210 691 210 710.5 216.5 c 128,-1,340
 730 223 730 223 750 228.5 c 128,-1,341
 770 234 770 234 790 234 c 0,342,343
 802 234 802 234 816 231 c 1,344,345
 815 233 815 233 815 238 c 0,346,347
 815 249 815 249 826.5 266.5 c 128,-1,348
 838 284 838 284 854 301 c 128,-1,349
 870 318 870 318 887 330.5 c 128,-1,350
 904 343 904 343 915 345 c 1,351,352
 912 350 912 350 911.5 356.5 c 128,-1,353
 911 363 911 363 911 369 c 0,354,355
 911 384 911 384 916 402 c 128,-1,356
 921 420 921 420 936 427 c 0,357,358
 943 430 943 430 947.5 439.5 c 128,-1,359
 952 449 952 449 954.5 462 c 128,-1,360
 957 475 957 475 958 490.5 c 128,-1,361
 959 506 959 506 959 521 c 0,362,363
 959 539 959 539 958.5 554.5 c 128,-1,364
 958 570 958 570 958 578 c 2,365,-1
 958 588 l 1,366,367
 973 598 973 598 979 617.5 c 128,-1,368
 985 637 985 637 987.5 656 c 128,-1,369
 990 675 990 675 991 690 c 128,-1,370
 992 705 992 705 996 708 c 0,371,372
 1008 717 1008 717 1008 730 c 0,212,213
832 161 m 1,373,-1
 828 161 l 2,374,375
 808 161 808 161 795 148 c 128,-1,376
 782 135 782 135 773 117 c 1,377,378
 776 127 776 127 786 127 c 1,379,380
 786 122 786 122 782 119.5 c 128,-1,381
 778 117 778 117 773 117 c 1,382,383
 785 117 785 117 797 115.5 c 128,-1,384
 809 114 809 114 821 114 c 0,385,386
 830 114 830 114 835 118.5 c 128,-1,387
 840 123 840 123 842 130 c 128,-1,388
 844 137 844 137 844 145 c 128,-1,389
 844 153 844 153 844 160 c 1,390,-1
 832 161 l 1,373,-1
EndSplineSet
Validated: 5
EndChar

StartChar: one
Encoding: 49 49 20
Width: 1167
GlyphClass: 2
Flags: W
LayerCount: 2
Fore
SplineSet
1171 76 m 0,0,1
 1171 65 1171 65 1167 55 c 128,-1,2
 1163 45 1163 45 1158 35 c 0,3,4
 1148 16 1148 16 1139.5 5 c 128,-1,5
 1131 -6 1131 -6 1122 -11.5 c 128,-1,6
 1113 -17 1113 -17 1102.5 -18.5 c 128,-1,7
 1092 -20 1092 -20 1078 -20 c 2,8,-1
 1044 -20 l 2,9,10
 1036 -23 1036 -23 1029 -23 c 0,11,12
 1020 -23 1020 -23 1017.5 -15.5 c 128,-1,13
 1015 -8 1015 -8 1015 1 c 0,14,15
 1015 6 1015 6 1015.5 10.5 c 128,-1,16
 1016 15 1016 15 1016 18 c 0,17,18
 1016 26 1016 26 1013.5 32 c 128,-1,19
 1011 38 1011 38 1002 38 c 0,20,21
 987 38 987 38 978.5 29.5 c 128,-1,22
 970 21 970 21 962.5 11 c 128,-1,23
 955 1 955 1 946 -7.5 c 128,-1,24
 937 -16 937 -16 920 -16 c 0,25,26
 900 -16 900 -16 880.5 -10 c 128,-1,27
 861 -4 861 -4 841 -2 c 0,28,29
 800 1 800 1 759 2 c 128,-1,30
 718 3 718 3 677.5 4.5 c 128,-1,31
 637 6 637 6 596.5 10 c 128,-1,32
 556 14 556 14 516 23 c 0,33,34
 507 25 507 25 498 26 c 128,-1,35
 489 27 489 27 481 27 c 0,36,37
 440 27 440 27 400.5 18.5 c 128,-1,38
 361 10 361 10 312 10 c 0,39,40
 279 10 279 10 246 3 c 128,-1,41
 213 -4 213 -4 180 -4 c 0,42,43
 164 -4 164 -4 143 2.5 c 128,-1,44
 122 9 122 9 102.5 20 c 128,-1,45
 83 31 83 31 69.5 47 c 128,-1,46
 56 63 56 63 56 81 c 0,47,48
 56 94 56 94 68.5 108.5 c 128,-1,49
 81 123 81 123 98 136.5 c 128,-1,50
 115 150 115 150 132.5 161.5 c 128,-1,51
 150 173 150 173 160 180 c 1,52,53
 221 172 221 172 282 162 c 128,-1,54
 343 152 343 152 405 152 c 0,55,56
 443 152 443 152 465.5 161.5 c 128,-1,57
 488 171 488 171 499.5 187.5 c 128,-1,58
 511 204 511 204 514.5 226.5 c 128,-1,59
 518 249 518 249 518 275 c 0,60,61
 518 290 518 290 517.5 305 c 128,-1,62
 517 320 517 320 517 337 c 0,63,64
 517 493 517 493 525.5 647.5 c 128,-1,65
 534 802 534 802 534 958 c 0,66,67
 534 1035 534 1035 530.5 1111 c 128,-1,68
 527 1187 527 1187 516 1263 c 1,69,70
 502 1266 502 1266 489.5 1269 c 128,-1,71
 477 1272 477 1272 460 1272 c 0,72,73
 455 1272 455 1272 455 1271 c 1,74,75
 451 1275 451 1275 445.5 1275.5 c 128,-1,76
 440 1276 440 1276 435 1276 c 0,77,78
 412 1276 412 1276 391 1269.5 c 128,-1,79
 370 1263 370 1263 348 1263 c 0,80,81
 342 1263 342 1263 338.5 1265 c 128,-1,82
 335 1267 335 1267 331.5 1270 c 128,-1,83
 328 1273 328 1273 323.5 1275 c 128,-1,84
 319 1277 319 1277 312 1277 c 0,85,86
 279 1277 279 1277 246 1270 c 128,-1,87
 213 1263 213 1263 179 1263 c 0,88,89
 155 1263 155 1263 131.5 1270 c 128,-1,90
 108 1277 108 1277 89 1292 c 1,91,92
 96 1307 96 1307 96 1328 c 0,93,94
 96 1344 96 1344 93 1359.5 c 128,-1,95
 90 1375 90 1375 89 1391 c 1,96,97
 96 1388 96 1388 104 1388 c 0,98,99
 119 1388 119 1388 132.5 1395.5 c 128,-1,100
 146 1403 146 1403 159 1412.5 c 128,-1,101
 172 1422 172 1422 186 1429.5 c 128,-1,102
 200 1437 200 1437 215 1437 c 0,103,104
 245 1437 245 1437 274.5 1428 c 128,-1,105
 304 1419 304 1419 334 1419 c 0,106,107
 351 1419 351 1419 363 1425.5 c 128,-1,108
 375 1432 375 1432 384 1432 c 0,109,110
 394 1432 394 1432 399.5 1426 c 128,-1,111
 405 1420 405 1420 416 1420 c 0,112,113
 432 1420 432 1420 448.5 1426 c 128,-1,114
 465 1432 465 1432 481 1438.5 c 128,-1,115
 497 1445 497 1445 514 1451 c 128,-1,116
 531 1457 531 1457 549 1457 c 0,117,118
 574 1457 574 1457 598.5 1451 c 128,-1,119
 623 1445 623 1445 647 1445 c 0,120,121
 660 1445 660 1445 672 1448 c 2,122,-1
 673 1448 l 1,123,124
 671 1443 671 1443 671 1432 c 0,125,126
 671 1418 671 1418 675.5 1407 c 128,-1,127
 680 1396 680 1396 685.5 1384 c 128,-1,128
 691 1372 691 1372 695.5 1355 c 128,-1,129
 700 1338 700 1338 700 1312 c 0,130,131
 700 1267 700 1267 702 1223.5 c 128,-1,132
 704 1180 704 1180 704 1135 c 0,133,134
 704 1112 704 1112 700.5 1090.5 c 128,-1,135
 697 1069 697 1069 687 1049 c 1,136,137
 696 1041 696 1041 698.5 1030.5 c 128,-1,138
 701 1020 701 1020 701 1008 c 2,139,-1
 701 992 l 2,140,141
 701 981 701 981 703.5 969 c 128,-1,142
 706 957 706 957 716 949 c 1,143,-1
 717 938 l 2,144,145
 717 925 717 925 712.5 915 c 128,-1,146
 708 905 708 905 703 896 c 128,-1,147
 698 887 698 887 693.5 878 c 128,-1,148
 689 869 689 869 689 858 c 0,149,150
 689 835 689 835 695.5 811.5 c 128,-1,151
 702 788 702 788 702 762 c 0,152,153
 702 730 702 730 698 698.5 c 128,-1,154
 694 667 694 667 689 635.5 c 128,-1,155
 684 604 684 604 680 572.5 c 128,-1,156
 676 541 676 541 676 509 c 0,157,158
 676 501 676 501 673.5 496 c 128,-1,159
 671 491 671 491 666 491 c 0,160,161
 665 491 665 491 659 493 c 1,162,163
 659 467 659 467 663 441 c 128,-1,164
 667 415 667 415 671.5 389.5 c 128,-1,165
 676 364 676 364 680 338 c 128,-1,166
 684 312 684 312 684 285 c 2,167,-1
 684 271 l 1,168,-1
 683 257 l 2,169,170
 683 204 683 204 718 179 c 128,-1,171
 753 154 753 154 804 154 c 0,172,173
 838 154 838 154 855.5 160.5 c 128,-1,174
 873 167 873 167 881.5 175 c 128,-1,175
 890 183 890 183 895 189.5 c 128,-1,176
 900 196 900 196 910 196 c 0,177,178
 939 196 939 196 969.5 189.5 c 128,-1,179
 1000 183 1000 183 1029 180 c 0,180,181
 1044 178 1044 178 1059 178 c 128,-1,182
 1074 178 1074 178 1088 175.5 c 128,-1,183
 1102 173 1102 173 1114 167 c 128,-1,184
 1126 161 1126 161 1136 146 c 256,185,186
 1146 131 1146 131 1158.5 113 c 128,-1,187
 1171 95 1171 95 1171 76 c 0,0,1
EndSplineSet
Validated: 1
Substitution2: "'sups' Superscript in Latin lookup 1 subtable" uni00B9
Substitution2: "'aalt' Access All Alternates in Latin lookup 0 subtable" uni00B9
PairPos2: "'kern' Horizontal Kerning in Latin lookup 0 per glyph data 1" emdash dx=0 dy=0 dh=-121 dv=0 dx=0 dy=0 dh=0 dv=0
PairPos2: "'kern' Horizontal Kerning in Latin lookup 0 per glyph data 1" emdash dx=0 dy=0 dh=-121 dv=0 dx=0 dy=0 dh=0 dv=0
PairPos2: "'kern' Horizontal Kerning in Latin lookup 0 per glyph data 1" emdash dx=0 dy=0 dh=-121 dv=0 dx=0 dy=0 dh=0 dv=0
PairPos2: "'kern' Horizontal Kerning in Latin lookup 0 per glyph data 1" emdash dx=0 dy=0 dh=-121 dv=0 dx=0 dy=0 dh=0 dv=0
PairPos2: "'kern' Horizontal Kerning in Latin lookup 0 per glyph data 1" emdash dx=0 dy=0 dh=-121 dv=0 dx=0 dy=0 dh=0 dv=0
PairPos2: "'kern' Horizontal Kerning in Latin lookup 0 per glyph data 1" endash dx=0 dy=0 dh=-121 dv=0 dx=0 dy=0 dh=0 dv=0
PairPos2: "'kern' Horizontal Kerning in Latin lookup 0 per glyph data 1" endash dx=0 dy=0 dh=-121 dv=0 dx=0 dy=0 dh=0 dv=0
PairPos2: "'kern' Horizontal Kerning in Latin lookup 0 per glyph data 1" endash dx=0 dy=0 dh=-121 dv=0 dx=0 dy=0 dh=0 dv=0
PairPos2: "'kern' Horizontal Kerning in Latin lookup 0 per glyph data 1" endash dx=0 dy=0 dh=-121 dv=0 dx=0 dy=0 dh=0 dv=0
PairPos2: "'kern' Horizontal Kerning in Latin lookup 0 per glyph data 1" endash dx=0 dy=0 dh=-121 dv=0 dx=0 dy=0 dh=0 dv=0
PairPos2: "'kern' Horizontal Kerning in Latin lookup 0 per glyph data 1" y dx=0 dy=0 dh=-53 dv=0 dx=0 dy=0 dh=0 dv=0
PairPos2: "'kern' Horizontal Kerning in Latin lookup 0 per glyph data 1" y dx=0 dy=0 dh=-53 dv=0 dx=0 dy=0 dh=0 dv=0
PairPos2: "'kern' Horizontal Kerning in Latin lookup 0 per glyph data 1" y dx=0 dy=0 dh=-53 dv=0 dx=0 dy=0 dh=0 dv=0
PairPos2: "'kern' Horizontal Kerning in Latin lookup 0 per glyph data 1" y dx=0 dy=0 dh=-53 dv=0 dx=0 dy=0 dh=0 dv=0
PairPos2: "'kern' Horizontal Kerning in Latin lookup 0 per glyph data 1" y dx=0 dy=0 dh=-53 dv=0 dx=0 dy=0 dh=0 dv=0
PairPos2: "'kern' Horizontal Kerning in Latin lookup 0 per glyph data 1" v dx=0 dy=0 dh=-57 dv=0 dx=0 dy=0 dh=0 dv=0
PairPos2: "'kern' Horizontal Kerning in Latin lookup 0 per glyph data 1" v dx=0 dy=0 dh=-57 dv=0 dx=0 dy=0 dh=0 dv=0
PairPos2: "'kern' Horizontal Kerning in Latin lookup 0 per glyph data 1" v dx=0 dy=0 dh=-57 dv=0 dx=0 dy=0 dh=0 dv=0
PairPos2: "'kern' Horizontal Kerning in Latin lookup 0 per glyph data 1" v dx=0 dy=0 dh=-57 dv=0 dx=0 dy=0 dh=0 dv=0
PairPos2: "'kern' Horizontal Kerning in Latin lookup 0 per glyph data 1" v dx=0 dy=0 dh=-57 dv=0 dx=0 dy=0 dh=0 dv=0
PairPos2: "'kern' Horizontal Kerning in Latin lookup 0 per glyph data 1" l dx=0 dy=0 dh=61 dv=0 dx=0 dy=0 dh=0 dv=0
PairPos2: "'kern' Horizontal Kerning in Latin lookup 0 per glyph data 1" l dx=0 dy=0 dh=61 dv=0 dx=0 dy=0 dh=0 dv=0
PairPos2: "'kern' Horizontal Kerning in Latin lookup 0 per glyph data 1" l dx=0 dy=0 dh=61 dv=0 dx=0 dy=0 dh=0 dv=0
PairPos2: "'kern' Horizontal Kerning in Latin lookup 0 per glyph data 1" l dx=0 dy=0 dh=61 dv=0 dx=0 dy=0 dh=0 dv=0
PairPos2: "'kern' Horizontal Kerning in Latin lookup 0 per glyph data 1" l dx=0 dy=0 dh=61 dv=0 dx=0 dy=0 dh=0 dv=0
PairPos2: "'kern' Horizontal Kerning in Latin lookup 0 per glyph data 1" backslash dx=0 dy=0 dh=-98 dv=0 dx=0 dy=0 dh=0 dv=0
PairPos2: "'kern' Horizontal Kerning in Latin lookup 0 per glyph data 1" backslash dx=0 dy=0 dh=-98 dv=0 dx=0 dy=0 dh=0 dv=0
PairPos2: "'kern' Horizontal Kerning in Latin lookup 0 per glyph data 1" backslash dx=0 dy=0 dh=-98 dv=0 dx=0 dy=0 dh=0 dv=0
PairPos2: "'kern' Horizontal Kerning in Latin lookup 0 per glyph data 1" backslash dx=0 dy=0 dh=-98 dv=0 dx=0 dy=0 dh=0 dv=0
PairPos2: "'kern' Horizontal Kerning in Latin lookup 0 per glyph data 1" backslash dx=0 dy=0 dh=-98 dv=0 dx=0 dy=0 dh=0 dv=0
PairPos2: "'kern' Horizontal Kerning in Latin lookup 0 per glyph data 1" X dx=0 dy=0 dh=72 dv=0 dx=0 dy=0 dh=0 dv=0
PairPos2: "'kern' Horizontal Kerning in Latin lookup 0 per glyph data 1" X dx=0 dy=0 dh=72 dv=0 dx=0 dy=0 dh=0 dv=0
PairPos2: "'kern' Horizontal Kerning in Latin lookup 0 per glyph data 1" X dx=0 dy=0 dh=72 dv=0 dx=0 dy=0 dh=0 dv=0
PairPos2: "'kern' Horizontal Kerning in Latin lookup 0 per glyph data 1" X dx=0 dy=0 dh=72 dv=0 dx=0 dy=0 dh=0 dv=0
PairPos2: "'kern' Horizontal Kerning in Latin lookup 0 per glyph data 1" X dx=0 dy=0 dh=72 dv=0 dx=0 dy=0 dh=0 dv=0
PairPos2: "'kern' Horizontal Kerning in Latin lookup 0 per glyph data 1" V dx=0 dy=0 dh=-70 dv=0 dx=0 dy=0 dh=0 dv=0
PairPos2: "'kern' Horizontal Kerning in Latin lookup 0 per glyph data 1" V dx=0 dy=0 dh=-70 dv=0 dx=0 dy=0 dh=0 dv=0
PairPos2: "'kern' Horizontal Kerning in Latin lookup 0 per glyph data 1" V dx=0 dy=0 dh=-70 dv=0 dx=0 dy=0 dh=0 dv=0
PairPos2: "'kern' Horizontal Kerning in Latin lookup 0 per glyph data 1" V dx=0 dy=0 dh=-70 dv=0 dx=0 dy=0 dh=0 dv=0
PairPos2: "'kern' Horizontal Kerning in Latin lookup 0 per glyph data 1" V dx=0 dy=0 dh=-70 dv=0 dx=0 dy=0 dh=0 dv=0
PairPos2: "'kern' Horizontal Kerning in Latin lookup 0 per glyph data 1" R dx=0 dy=0 dh=51 dv=0 dx=0 dy=0 dh=0 dv=0
PairPos2: "'kern' Horizontal Kerning in Latin lookup 0 per glyph data 1" R dx=0 dy=0 dh=51 dv=0 dx=0 dy=0 dh=0 dv=0
PairPos2: "'kern' Horizontal Kerning in Latin lookup 0 per glyph data 1" R dx=0 dy=0 dh=51 dv=0 dx=0 dy=0 dh=0 dv=0
PairPos2: "'kern' Horizontal Kerning in Latin lookup 0 per glyph data 1" R dx=0 dy=0 dh=51 dv=0 dx=0 dy=0 dh=0 dv=0
PairPos2: "'kern' Horizontal Kerning in Latin lookup 0 per glyph data 1" R dx=0 dy=0 dh=51 dv=0 dx=0 dy=0 dh=0 dv=0
PairPos2: "'kern' Horizontal Kerning in Latin lookup 0 per glyph data 1" A dx=0 dy=0 dh=83 dv=0 dx=0 dy=0 dh=0 dv=0
PairPos2: "'kern' Horizontal Kerning in Latin lookup 0 per glyph data 1" A dx=0 dy=0 dh=83 dv=0 dx=0 dy=0 dh=0 dv=0
PairPos2: "'kern' Horizontal Kerning in Latin lookup 0 per glyph data 1" A dx=0 dy=0 dh=83 dv=0 dx=0 dy=0 dh=0 dv=0
PairPos2: "'kern' Horizontal Kerning in Latin lookup 0 per glyph data 1" A dx=0 dy=0 dh=83 dv=0 dx=0 dy=0 dh=0 dv=0
PairPos2: "'kern' Horizontal Kerning in Latin lookup 0 per glyph data 1" A dx=0 dy=0 dh=83 dv=0 dx=0 dy=0 dh=0 dv=0
PairPos2: "'kern' Horizontal Kerning in Latin lookup 0 per glyph data 1" equal dx=0 dy=0 dh=-93 dv=0 dx=0 dy=0 dh=0 dv=0
PairPos2: "'kern' Horizontal Kerning in Latin lookup 0 per glyph data 1" equal dx=0 dy=0 dh=-93 dv=0 dx=0 dy=0 dh=0 dv=0
PairPos2: "'kern' Horizontal Kerning in Latin lookup 0 per glyph data 1" equal dx=0 dy=0 dh=-93 dv=0 dx=0 dy=0 dh=0 dv=0
PairPos2: "'kern' Horizontal Kerning in Latin lookup 0 per glyph data 1" equal dx=0 dy=0 dh=-93 dv=0 dx=0 dy=0 dh=0 dv=0
PairPos2: "'kern' Horizontal Kerning in Latin lookup 0 per glyph data 1" equal dx=0 dy=0 dh=-93 dv=0 dx=0 dy=0 dh=0 dv=0
PairPos2: "'kern' Horizontal Kerning in Latin lookup 0 per glyph data 1" seven dx=0 dy=0 dh=-58 dv=0 dx=0 dy=0 dh=0 dv=0
PairPos2: "'kern' Horizontal Kerning in Latin lookup 0 per glyph data 1" seven dx=0 dy=0 dh=-58 dv=0 dx=0 dy=0 dh=0 dv=0
PairPos2: "'kern' Horizontal Kerning in Latin lookup 0 per glyph data 1" seven dx=0 dy=0 dh=-58 dv=0 dx=0 dy=0 dh=0 dv=0
PairPos2: "'kern' Horizontal Kerning in Latin lookup 0 per glyph data 1" seven dx=0 dy=0 dh=-58 dv=0 dx=0 dy=0 dh=0 dv=0
PairPos2: "'kern' Horizontal Kerning in Latin lookup 0 per glyph data 1" seven dx=0 dy=0 dh=-58 dv=0 dx=0 dy=0 dh=0 dv=0
PairPos2: "'kern' Horizontal Kerning in Latin lookup 0 per glyph data 1" four dx=0 dy=0 dh=-52 dv=0 dx=0 dy=0 dh=0 dv=0
PairPos2: "'kern' Horizontal Kerning in Latin lookup 0 per glyph data 1" four dx=0 dy=0 dh=-52 dv=0 dx=0 dy=0 dh=0 dv=0
PairPos2: "'kern' Horizontal Kerning in Latin lookup 0 per glyph data 1" four dx=0 dy=0 dh=-52 dv=0 dx=0 dy=0 dh=0 dv=0
PairPos2: "'kern' Horizontal Kerning in Latin lookup 0 per glyph data 1" four dx=0 dy=0 dh=-52 dv=0 dx=0 dy=0 dh=0 dv=0
PairPos2: "'kern' Horizontal Kerning in Latin lookup 0 per glyph data 1" four dx=0 dy=0 dh=-52 dv=0 dx=0 dy=0 dh=0 dv=0
PairPos2: "'kern' Horizontal Kerning in Latin lookup 0 per glyph data 1" hyphen dx=0 dy=0 dh=-121 dv=0 dx=0 dy=0 dh=0 dv=0
PairPos2: "'kern' Horizontal Kerning in Latin lookup 0 per glyph data 1" hyphen dx=0 dy=0 dh=-121 dv=0 dx=0 dy=0 dh=0 dv=0
PairPos2: "'kern' Horizontal Kerning in Latin lookup 0 per glyph data 1" hyphen dx=0 dy=0 dh=-121 dv=0 dx=0 dy=0 dh=0 dv=0
PairPos2: "'kern' Horizontal Kerning in Latin lookup 0 per glyph data 1" hyphen dx=0 dy=0 dh=-121 dv=0 dx=0 dy=0 dh=0 dv=0
PairPos2: "'kern' Horizontal Kerning in Latin lookup 0 per glyph data 1" hyphen dx=0 dy=0 dh=-121 dv=0 dx=0 dy=0 dh=0 dv=0
PairPos2: "'kern' Horizontal Kerning in Latin lookup 0 per glyph data 1" plus dx=0 dy=0 dh=-78 dv=0 dx=0 dy=0 dh=0 dv=0
PairPos2: "'kern' Horizontal Kerning in Latin lookup 0 per glyph data 1" plus dx=0 dy=0 dh=-78 dv=0 dx=0 dy=0 dh=0 dv=0
PairPos2: "'kern' Horizontal Kerning in Latin lookup 0 per glyph data 1" plus dx=0 dy=0 dh=-78 dv=0 dx=0 dy=0 dh=0 dv=0
PairPos2: "'kern' Horizontal Kerning in Latin lookup 0 per glyph data 1" plus dx=0 dy=0 dh=-78 dv=0 dx=0 dy=0 dh=0 dv=0
PairPos2: "'kern' Horizontal Kerning in Latin lookup 0 per glyph data 1" plus dx=0 dy=0 dh=-78 dv=0 dx=0 dy=0 dh=0 dv=0
PairPos2: "'kern' Horizontal Kerning in Latin lookup 0 per glyph data 1" quotesingle dx=0 dy=0 dh=-98 dv=0 dx=0 dy=0 dh=0 dv=0
PairPos2: "'kern' Horizontal Kerning in Latin lookup 0 per glyph data 1" quotesingle dx=0 dy=0 dh=-98 dv=0 dx=0 dy=0 dh=0 dv=0
PairPos2: "'kern' Horizontal Kerning in Latin lookup 0 per glyph data 1" quotesingle dx=0 dy=0 dh=-98 dv=0 dx=0 dy=0 dh=0 dv=0
PairPos2: "'kern' Horizontal Kerning in Latin lookup 0 per glyph data 1" quotesingle dx=0 dy=0 dh=-98 dv=0 dx=0 dy=0 dh=0 dv=0
PairPos2: "'kern' Horizontal Kerning in Latin lookup 0 per glyph data 1" quotesingle dx=0 dy=0 dh=-98 dv=0 dx=0 dy=0 dh=0 dv=0
PairPos2: "'kern' Horizontal Kerning in Latin lookup 0 per glyph data 1" quotedbl dx=0 dy=0 dh=-98 dv=0 dx=0 dy=0 dh=0 dv=0
PairPos2: "'kern' Horizontal Kerning in Latin lookup 0 per glyph data 1" quotedbl dx=0 dy=0 dh=-98 dv=0 dx=0 dy=0 dh=0 dv=0
PairPos2: "'kern' Horizontal Kerning in Latin lookup 0 per glyph data 1" quotedbl dx=0 dy=0 dh=-98 dv=0 dx=0 dy=0 dh=0 dv=0
PairPos2: "'kern' Horizontal Kerning in Latin lookup 0 per glyph data 1" quotedbl dx=0 dy=0 dh=-98 dv=0 dx=0 dy=0 dh=0 dv=0
PairPos2: "'kern' Horizontal Kerning in Latin lookup 0 per glyph data 1" quotedbl dx=0 dy=0 dh=-98 dv=0 dx=0 dy=0 dh=0 dv=0
EndChar

StartChar: two
Encoding: 50 50 21
Width: 1175
GlyphClass: 2
Flags: W
LayerCount: 2
Fore
SplineSet
1107 207 m 0,0,1
 1107 189 1107 189 1102.5 168 c 128,-1,2
 1098 147 1098 147 1083 135 c 0,3,4
 1078 130 1078 130 1073.5 121 c 128,-1,5
 1069 112 1069 112 1065.5 103 c 128,-1,6
 1062 94 1062 94 1058.5 87 c 128,-1,7
 1055 80 1055 80 1052 80 c 0,8,9
 1048 80 1048 80 1044.5 81.5 c 128,-1,10
 1041 83 1041 83 1036 84 c 2,11,-1
 1029 80 l 1,12,13
 1017 65 1017 65 995 50.5 c 128,-1,14
 973 36 973 36 948 24.5 c 128,-1,15
 923 13 923 13 897.5 6 c 128,-1,16
 872 -1 872 -1 853 -1 c 0,17,18
 838 -1 838 -1 828 2.5 c 128,-1,19
 818 6 818 6 811.5 10.5 c 128,-1,20
 805 15 805 15 800.5 19 c 128,-1,21
 796 23 796 23 790 23 c 0,22,23
 778 23 778 23 766.5 15.5 c 128,-1,24
 755 8 755 8 747 8 c 0,25,26
 742 8 742 8 741 13.5 c 128,-1,27
 740 19 740 19 729 23 c 0,28,29
 712 29 712 29 691.5 41 c 128,-1,30
 671 53 671 53 650 65.5 c 128,-1,31
 629 78 629 78 610 87.5 c 128,-1,32
 591 97 591 97 578 97 c 0,33,34
 574 97 574 97 559 110 c 128,-1,35
 544 123 544 123 523 139 c 128,-1,36
 502 155 502 155 477 168 c 128,-1,37
 452 181 452 181 427 181 c 0,38,39
 399 181 399 181 383 164 c 128,-1,40
 367 147 367 147 359 123 c 1,41,-1
 353 123 l 1,42,-1
 350 123 l 2,43,44
 337 123 337 123 327 115 c 128,-1,45
 317 107 317 107 310.5 95 c 128,-1,46
 304 83 304 83 301 69.5 c 128,-1,47
 298 56 298 56 298 44 c 0,48,49
 298 27 298 27 300.5 9.5 c 128,-1,50
 303 -8 303 -8 303 -25 c 0,51,52
 303 -31 303 -31 303 -37 c 128,-1,53
 303 -43 303 -43 302 -48 c 1,54,55
 290 -45 290 -45 277 -45 c 256,56,57
 264 -45 264 -45 252 -47.5 c 128,-1,58
 240 -50 240 -50 227 -50 c 0,59,60
 207 -50 207 -50 198 -38 c 128,-1,61
 189 -26 189 -26 183 -10 c 0,62,63
 175 10 175 10 162 29 c 128,-1,64
 149 48 149 48 135.5 67 c 128,-1,65
 122 86 122 86 112.5 105 c 128,-1,66
 103 124 103 124 103 144 c 0,67,68
 103 169 103 169 105 194 c 128,-1,69
 107 219 107 219 107 245 c 0,70,71
 107 266 107 266 117.5 281 c 128,-1,72
 128 296 128 296 140.5 312 c 128,-1,73
 153 328 153 328 163.5 348 c 128,-1,74
 174 368 174 368 174 399 c 0,75,76
 174 407 174 407 178 411.5 c 128,-1,77
 182 416 182 416 187 421 c 0,78,79
 198 430 198 430 213.5 453 c 128,-1,80
 229 476 229 476 248 504 c 128,-1,81
 267 532 267 532 288.5 561 c 128,-1,82
 310 590 310 590 333 611 c 0,83,84
 339 617 339 617 343 619 c 128,-1,85
 347 621 347 621 352 621 c 256,86,87
 357 621 357 621 362 620 c 128,-1,88
 367 619 367 619 374 619 c 0,89,90
 384 619 384 619 388.5 622 c 128,-1,91
 393 625 393 625 395.5 629.5 c 128,-1,92
 398 634 398 634 400 639 c 128,-1,93
 402 644 402 644 408 649 c 0,94,95
 418 657 418 657 435 656 c 128,-1,96
 452 655 452 655 466 661 c 0,97,98
 476 666 476 666 485 672.5 c 128,-1,99
 494 679 494 679 502.5 685.5 c 128,-1,100
 511 692 511 692 520.5 697.5 c 128,-1,101
 530 703 530 703 541 706 c 0,102,103
 578 716 578 716 615 732.5 c 128,-1,104
 652 749 652 749 685.5 771.5 c 128,-1,105
 719 794 719 794 747 822.5 c 128,-1,106
 775 851 775 851 794 885 c 0,107,108
 797 891 797 891 803.5 899 c 128,-1,109
 810 907 810 907 816.5 915.5 c 128,-1,110
 823 924 823 924 827.5 932.5 c 128,-1,111
 832 941 832 941 832 947 c 256,112,113
 832 953 832 953 830 958.5 c 128,-1,114
 828 964 828 964 828 970 c 0,115,116
 828 977 828 977 833 980 c 128,-1,117
 838 983 838 983 844 986 c 0,118,119
 854 990 854 990 860.5 999 c 128,-1,120
 867 1008 867 1008 870.5 1018.5 c 128,-1,121
 874 1029 874 1029 875.5 1041 c 128,-1,122
 877 1053 877 1053 877 1063 c 256,123,124
 877 1073 877 1073 875.5 1085 c 128,-1,125
 874 1097 874 1097 870.5 1108 c 128,-1,126
 867 1119 867 1119 860 1128.5 c 128,-1,127
 853 1138 853 1138 843 1142 c 0,128,129
 840 1144 840 1144 834.5 1146 c 128,-1,130
 829 1148 829 1148 829 1153 c 0,131,132
 829 1157 829 1157 831 1160.5 c 128,-1,133
 833 1164 833 1164 833 1168 c 0,134,135
 833 1175 833 1175 825.5 1182.5 c 128,-1,136
 818 1190 818 1190 807.5 1197.5 c 128,-1,137
 797 1205 797 1205 787 1212.5 c 128,-1,138
 777 1220 777 1220 773 1228 c 0,139,140
 768 1236 768 1236 749 1247.5 c 128,-1,141
 730 1259 730 1259 707.5 1269.5 c 128,-1,142
 685 1280 685 1280 664 1287.5 c 128,-1,143
 643 1295 643 1295 634 1295 c 0,144,145
 599 1295 599 1295 567 1282.5 c 128,-1,146
 535 1270 535 1270 501 1263 c 0,147,148
 477 1258 477 1258 437 1253.5 c 128,-1,149
 397 1249 397 1249 359.5 1238 c 128,-1,150
 322 1227 322 1227 294.5 1206 c 128,-1,151
 267 1185 267 1185 267 1148 c 0,152,153
 267 1131 267 1131 277 1116.5 c 128,-1,154
 287 1102 287 1102 302 1087.5 c 128,-1,155
 317 1073 317 1073 335 1059 c 128,-1,156
 353 1045 353 1045 368 1029 c 128,-1,157
 383 1013 383 1013 393 995.5 c 128,-1,158
 403 978 403 978 403 957 c 0,159,160
 403 931 403 931 386.5 912.5 c 128,-1,161
 370 894 370 894 346.5 882 c 128,-1,162
 323 870 323 870 296.5 864.5 c 128,-1,163
 270 859 270 859 249 859 c 0,164,165
 224 859 224 859 203 866 c 0,166,167
 189 870 189 870 181.5 871.5 c 128,-1,168
 174 873 174 873 169.5 875.5 c 128,-1,169
 165 878 165 878 163 884.5 c 128,-1,170
 161 891 161 891 158 906 c 0,171,172
 155 923 155 923 148 936.5 c 128,-1,173
 141 950 141 950 134.5 963.5 c 128,-1,174
 128 977 128 977 123 991.5 c 128,-1,175
 118 1006 118 1006 118 1025 c 0,176,177
 118 1048 118 1048 129.5 1082 c 128,-1,178
 141 1116 141 1116 158 1151 c 128,-1,179
 175 1186 175 1186 194.5 1216.5 c 128,-1,180
 214 1247 214 1247 231 1263 c 0,181,182
 238 1270 238 1270 242 1278.5 c 128,-1,183
 246 1287 246 1287 250.5 1294.5 c 128,-1,184
 255 1302 255 1302 262 1307 c 128,-1,185
 269 1312 269 1312 283 1312 c 2,186,-1
 301 1312 l 2,187,188
 315 1312 315 1312 324 1316 c 128,-1,189
 333 1320 333 1320 338 1334 c 0,190,191
 341 1343 341 1343 352 1348 c 128,-1,192
 363 1353 363 1353 376 1355 c 128,-1,193
 389 1357 389 1357 402.5 1358 c 128,-1,194
 416 1359 416 1359 424 1359 c 0,195,196
 444 1360 444 1360 462.5 1365 c 128,-1,197
 481 1370 481 1370 500 1376 c 128,-1,198
 519 1382 519 1382 537.5 1386.5 c 128,-1,199
 556 1391 556 1391 576 1391 c 2,200,-1
 592 1390 l 2,201,202
 676 1386 676 1386 732 1376 c 128,-1,203
 788 1366 788 1366 830 1342 c 128,-1,204
 872 1318 872 1318 907 1275 c 128,-1,205
 942 1232 942 1232 986 1163 c 0,206,207
 996 1146 996 1146 1003.5 1125.5 c 128,-1,208
 1011 1105 1011 1105 1029 1092 c 1,209,210
 1017 1067 1017 1067 1014.5 1040.5 c 128,-1,211
 1012 1014 1012 1014 1010 987 c 0,212,213
 1009 969 1009 969 1005.5 955.5 c 128,-1,214
 1002 942 1002 942 997 930 c 128,-1,215
 992 918 992 918 985.5 906 c 128,-1,216
 979 894 979 894 972 878 c 0,217,218
 967 867 967 867 965 859.5 c 128,-1,219
 963 852 963 852 960.5 845 c 128,-1,220
 958 838 958 838 953 832.5 c 128,-1,221
 948 827 948 827 936 821 c 0,222,223
 924 814 924 814 919 805 c 128,-1,224
 914 796 914 796 911 786.5 c 128,-1,225
 908 777 908 777 903.5 768.5 c 128,-1,226
 899 760 899 760 887 756 c 0,227,228
 863 746 863 746 841.5 730 c 128,-1,229
 820 714 820 714 799.5 697 c 128,-1,230
 779 680 779 680 758 665 c 128,-1,231
 737 650 737 650 712 644 c 0,232,233
 684 637 684 637 659 623 c 128,-1,234
 634 609 634 609 610 594 c 128,-1,235
 586 579 586 579 561.5 565 c 128,-1,236
 537 551 537 551 509 544 c 0,237,238
 498 541 498 541 491 535.5 c 128,-1,239
 484 530 484 530 479 522.5 c 128,-1,240
 474 515 474 515 469 507 c 128,-1,241
 464 499 464 499 457 492 c 0,242,243
 446 481 446 481 436.5 478 c 128,-1,244
 427 475 427 475 417 473 c 128,-1,245
 407 471 407 471 396.5 465.5 c 128,-1,246
 386 460 386 460 374 443 c 0,247,248
 368 434 368 434 358 429 c 128,-1,249
 348 424 348 424 339 419 c 128,-1,250
 330 414 330 414 323.5 407.5 c 128,-1,251
 317 401 317 401 317 389 c 0,252,253
 317 380 317 380 312.5 373.5 c 128,-1,254
 308 367 308 367 303 360.5 c 128,-1,255
 298 354 298 354 293.5 347.5 c 128,-1,256
 289 341 289 341 289 333 c 0,257,258
 289 328 289 328 291 321 c 128,-1,259
 293 314 293 314 299.5 306.5 c 128,-1,260
 306 299 306 299 317 294 c 128,-1,261
 328 289 328 289 346 289 c 256,262,263
 364 289 364 289 382 292 c 128,-1,264
 400 295 400 295 418 295 c 0,265,266
 433 295 433 295 446.5 290.5 c 128,-1,267
 460 286 460 286 473 281 c 128,-1,268
 486 276 486 276 499 271.5 c 128,-1,269
 512 267 512 267 525 267 c 0,270,271
 550 267 550 267 558 294 c 1,272,273
 562 292 562 292 564 283 c 128,-1,274
 566 274 566 274 567.5 264.5 c 128,-1,275
 569 255 569 255 571 246.5 c 128,-1,276
 573 238 573 238 576 238 c 0,277,278
 583 242 583 242 586 251.5 c 128,-1,279
 589 261 589 261 599 261 c 0,280,281
 605 261 605 261 610.5 255 c 128,-1,282
 616 249 616 249 622.5 242 c 128,-1,283
 629 235 629 235 637.5 229 c 128,-1,284
 646 223 646 223 658 223 c 0,285,286
 678 223 678 223 701.5 207.5 c 128,-1,287
 725 192 725 192 750 173.5 c 128,-1,288
 775 155 775 155 800.5 139.5 c 128,-1,289
 826 124 826 124 850 124 c 0,290,291
 876 124 876 124 893.5 135.5 c 128,-1,292
 911 147 911 147 925 164 c 128,-1,293
 939 181 939 181 950.5 201.5 c 128,-1,294
 962 222 962 222 975 239 c 128,-1,295
 988 256 988 256 1005 267.5 c 128,-1,296
 1022 279 1022 279 1046 279 c 0,297,298
 1084 279 1084 279 1095.5 259.5 c 128,-1,299
 1107 240 1107 240 1107 207 c 0,0,1
801 1334 m 1,300,-1
 758 1334 l 2,301,302
 762 1334 762 1334 762 1329 c 256,303,304
 762 1324 762 1324 759 1320 c 1,305,306
 757 1322 757 1322 757 1325 c 0,307,308
 757 1326 757 1326 757.5 1326 c 128,-1,309
 758 1326 758 1326 758 1327 c 2,310,-1
 758 1334 l 1,311,-1
 757 1320 l 2,312,313
 755 1305 755 1305 762 1292 c 128,-1,314
 769 1279 769 1279 786 1277 c 1,315,316
 789 1289 789 1289 795.5 1300 c 128,-1,317
 802 1311 802 1311 802 1324 c 2,318,-1
 801 1334 l 1,300,-1
EndSplineSet
Validated: 5
Substitution2: "'sups' Superscript in Latin lookup 1 subtable" uni00B2
Substitution2: "'aalt' Access All Alternates in Latin lookup 0 subtable" uni00B2
EndChar

StartChar: three
Encoding: 51 51 22
Width: 1141
GlyphClass: 2
Flags: W
LayerCount: 2
Fore
SplineSet
1051 404 m 0,0,1
 1051 371 1051 371 1049 357.5 c 128,-1,2
 1047 344 1047 344 1040.5 338 c 128,-1,3
 1034 332 1034 332 1022 327.5 c 128,-1,4
 1010 323 1010 323 990 308 c 1,5,6
 1011 281 1011 281 1011 248 c 0,7,8
 1011 213 1011 213 990.5 184.5 c 128,-1,9
 970 156 970 156 942 136 c 0,10,11
 916 118 916 118 902.5 91.5 c 128,-1,12
 889 65 889 65 876 37 c 1,13,14
 836 36 836 36 803.5 21 c 128,-1,15
 771 6 771 6 740 -17 c 0,16,17
 724 -28 724 -28 708 -32 c 128,-1,18
 692 -36 692 -36 674 -36 c 256,19,20
 656 -36 656 -36 637.5 -34 c 128,-1,21
 619 -32 619 -32 601 -32 c 0,22,23
 569 -32 569 -32 537.5 -41.5 c 128,-1,24
 506 -51 506 -51 474 -51 c 0,25,26
 458 -51 458 -51 433 -46.5 c 128,-1,27
 408 -42 408 -42 382 -35.5 c 128,-1,28
 356 -29 356 -29 331.5 -21 c 128,-1,29
 307 -13 307 -13 292 -6 c 0,30,31
 261 8 261 8 234.5 30 c 128,-1,32
 208 52 208 52 178 66 c 1,33,34
 164 103 164 103 143.5 136.5 c 128,-1,35
 123 170 123 170 92 194 c 1,36,37
 99 209 99 209 101.5 224.5 c 128,-1,38
 104 240 104 240 104 257 c 0,39,40
 104 286 104 286 98.5 315.5 c 128,-1,41
 93 345 93 345 93 374 c 0,42,43
 93 424 93 424 120 465 c 1,44,-1
 129 464 l 2,45,46
 146 464 146 464 161.5 470.5 c 128,-1,47
 177 477 177 477 194 477 c 0,48,49
 219 477 219 477 242.5 469 c 128,-1,50
 266 461 266 461 283.5 446.5 c 128,-1,51
 301 432 301 432 311.5 410.5 c 128,-1,52
 322 389 322 389 322 362 c 0,53,54
 322 353 322 353 320 336.5 c 128,-1,55
 318 320 318 320 312.5 304 c 128,-1,56
 307 288 307 288 298 276.5 c 128,-1,57
 289 265 289 265 276 265 c 0,58,59
 268 265 268 265 261 269.5 c 128,-1,60
 254 274 254 274 249 280 c 1,61,62
 249 268 249 268 251 246 c 128,-1,63
 253 224 253 224 258.5 202.5 c 128,-1,64
 264 181 264 181 274 165 c 128,-1,65
 284 149 284 149 300 150 c 2,66,-1
 325 151 l 1,67,-1
 332 151 l 2,68,69
 363 151 363 151 395.5 144 c 128,-1,70
 428 137 428 137 463 137 c 0,71,72
 491 137 491 137 518 133 c 128,-1,73
 545 129 545 129 573 129 c 0,74,75
 610 129 610 129 642 139 c 128,-1,76
 674 149 674 149 702 166.5 c 128,-1,77
 730 184 730 184 755.5 206 c 128,-1,78
 781 228 781 228 806 252 c 0,79,80
 817 263 817 263 817 273 c 0,81,82
 817 278 817 278 816 283 c 128,-1,83
 815 288 815 288 815 293 c 0,84,85
 815 306 815 306 827 321 c 128,-1,86
 839 336 839 336 853 355 c 128,-1,87
 867 374 867 374 879 397 c 128,-1,88
 891 420 891 420 891 449 c 0,89,90
 891 472 891 472 884.5 494.5 c 128,-1,91
 878 517 878 517 878 542 c 0,92,93
 878 562 878 562 868.5 578 c 128,-1,94
 859 594 859 594 847.5 609.5 c 128,-1,95
 836 625 836 625 826.5 641 c 128,-1,96
 817 657 817 657 817 676 c 0,97,98
 817 680 817 680 817 684 c 128,-1,99
 817 688 817 688 819 693 c 1,100,101
 795 699 795 699 763.5 711 c 128,-1,102
 732 723 732 723 700.5 735 c 128,-1,103
 669 747 669 747 641 756.5 c 128,-1,104
 613 766 613 766 598 766 c 0,105,106
 560 766 560 766 523 758 c 128,-1,107
 486 750 486 750 448 750 c 1,108,109
 448 754 448 754 455.5 757.5 c 128,-1,110
 463 761 463 761 473 765.5 c 128,-1,111
 483 770 483 770 491 775 c 128,-1,112
 499 780 499 780 499 787 c 0,113,114
 499 795 499 795 485.5 801 c 128,-1,115
 472 807 472 807 466 807 c 0,116,117
 455 807 455 807 446 802.5 c 128,-1,118
 437 798 437 798 428 792 c 128,-1,119
 419 786 419 786 409.5 781.5 c 128,-1,120
 400 777 400 777 390 777 c 0,121,122
 382 777 382 777 375 781.5 c 128,-1,123
 368 786 368 786 363 793 c 1,124,-1
 363 787 l 1,125,-1
 363 783 l 2,126,127
 363 766 363 766 373 758 c 128,-1,128
 383 750 383 750 400 750 c 2,129,-1
 406 750 l 1,130,131
 394 731 394 731 380 717.5 c 128,-1,132
 366 704 366 704 342 704 c 0,133,134
 325 704 325 704 309.5 705.5 c 128,-1,135
 294 707 294 707 277 707 c 1,136,137
 281 744 281 744 300.5 785.5 c 128,-1,138
 320 827 320 827 348.5 865.5 c 128,-1,139
 377 904 377 904 409.5 937.5 c 128,-1,140
 442 971 442 971 471 993 c 0,141,142
 482 1002 482 1002 490 1006.5 c 128,-1,143
 498 1011 498 1011 504.5 1016 c 128,-1,144
 511 1021 511 1021 517 1028.5 c 128,-1,145
 523 1036 523 1036 529 1050 c 0,146,147
 538 1070 538 1070 551.5 1085.5 c 128,-1,148
 565 1101 565 1101 579.5 1115.5 c 128,-1,149
 594 1130 594 1130 608.5 1145 c 128,-1,150
 623 1160 623 1160 634 1178 c 1,151,152
 647 1184 647 1184 661 1188.5 c 128,-1,153
 675 1193 675 1193 688.5 1199 c 128,-1,154
 702 1205 702 1205 713.5 1213 c 128,-1,155
 725 1221 725 1221 733 1235 c 1,156,157
 732 1271 732 1271 706 1283 c 128,-1,158
 680 1295 680 1295 649 1295 c 0,159,160
 626 1295 626 1295 605.5 1286 c 128,-1,161
 585 1277 585 1277 562 1277 c 0,162,163
 546 1277 546 1277 532 1284 c 128,-1,164
 518 1291 518 1291 502 1291 c 0,165,166
 492 1291 492 1291 485.5 1286.5 c 128,-1,167
 479 1282 479 1282 470 1282 c 0,168,169
 462 1282 462 1282 456 1284.5 c 128,-1,170
 450 1287 450 1287 442 1287 c 1,171,-1
 436 1282 l 2,172,173
 435 1277 435 1277 428 1276 c 128,-1,174
 421 1275 421 1275 411 1275 c 0,175,176
 397 1275 397 1275 382 1276.5 c 128,-1,177
 367 1278 367 1278 362 1278 c 0,178,179
 327 1278 327 1278 304.5 1253.5 c 128,-1,180
 282 1229 282 1229 282 1195 c 0,181,182
 282 1178 282 1178 284.5 1162 c 128,-1,183
 287 1146 287 1146 287 1129 c 0,184,185
 287 1115 287 1115 281.5 1098.5 c 128,-1,186
 276 1082 276 1082 266.5 1068.5 c 128,-1,187
 257 1055 257 1055 243.5 1046 c 128,-1,188
 230 1037 230 1037 214 1037 c 0,189,190
 196 1037 196 1037 179.5 1045.5 c 128,-1,191
 163 1054 163 1054 149 1064 c 1,192,-1
 149 1069 l 2,193,194
 149 1079 149 1079 153.5 1087.5 c 128,-1,195
 158 1096 158 1096 163.5 1104.5 c 128,-1,196
 169 1113 169 1113 173.5 1121.5 c 128,-1,197
 178 1130 178 1130 178 1140 c 0,198,199
 178 1151 178 1151 170.5 1159 c 128,-1,200
 163 1167 163 1167 163 1178 c 0,201,202
 163 1192 163 1192 169 1205 c 128,-1,203
 175 1218 175 1218 175 1232 c 0,204,205
 175 1251 175 1251 168 1268 c 128,-1,206
 161 1285 161 1285 161 1303 c 0,207,208
 161 1309 161 1309 168 1323 c 128,-1,209
 175 1337 175 1337 185 1352 c 128,-1,210
 195 1367 195 1367 205 1378 c 128,-1,211
 215 1389 215 1389 221 1389 c 0,212,213
 231 1389 231 1389 240 1386.5 c 128,-1,214
 249 1384 249 1384 259 1384 c 0,215,216
 286 1384 286 1384 313.5 1389.5 c 128,-1,217
 341 1395 341 1395 370 1395 c 0,218,219
 393 1395 393 1395 416.5 1394 c 128,-1,220
 440 1393 440 1393 463 1393 c 0,221,222
 513 1393 513 1393 560.5 1402.5 c 128,-1,223
 608 1412 608 1412 657 1412 c 0,224,225
 673 1412 673 1412 688.5 1410.5 c 128,-1,226
 704 1409 704 1409 720 1409 c 0,227,228
 756 1409 756 1409 792 1415 c 128,-1,229
 828 1421 828 1421 864 1421 c 0,230,231
 882 1421 882 1421 899.5 1418 c 128,-1,232
 917 1415 917 1415 933 1406 c 1,233,-1
 933 1405 l 1,234,235
 929 1396 929 1396 929 1383 c 0,236,237
 929 1374 929 1374 932.5 1367 c 128,-1,238
 936 1360 936 1360 940 1354 c 128,-1,239
 944 1348 944 1348 947.5 1342 c 128,-1,240
 951 1336 951 1336 951 1329 c 0,241,242
 951 1321 951 1321 937.5 1300.5 c 128,-1,243
 924 1280 924 1280 906 1255.5 c 128,-1,244
 888 1231 888 1231 871.5 1207 c 128,-1,245
 855 1183 855 1183 849 1169 c 0,246,247
 844 1157 844 1157 834.5 1150 c 128,-1,248
 825 1143 825 1143 813.5 1138.5 c 128,-1,249
 802 1134 802 1134 790 1130 c 128,-1,250
 778 1126 778 1126 768 1119 c 0,251,252
 754 1109 754 1109 735 1087 c 128,-1,253
 716 1065 716 1065 699 1039.5 c 128,-1,254
 682 1014 682 1014 670 988.5 c 128,-1,255
 658 963 658 963 658 946 c 0,256,257
 658 936 658 936 669 924.5 c 128,-1,258
 680 913 680 913 695 902 c 128,-1,259
 710 891 710 891 725 881 c 128,-1,260
 740 871 740 871 748 864 c 0,261,262
 758 854 758 854 768.5 852 c 128,-1,263
 779 850 779 850 789.5 849 c 128,-1,264
 800 848 800 848 810 845 c 128,-1,265
 820 842 820 842 829 831 c 0,266,267
 837 821 837 821 847.5 812.5 c 128,-1,268
 858 804 858 804 867.5 795 c 128,-1,269
 877 786 877 786 883.5 775.5 c 128,-1,270
 890 765 890 765 890 750 c 1,271,-1
 933 750 l 1,272,-1
 933 721 l 1,273,274
 959 704 959 704 965 692.5 c 128,-1,275
 971 681 971 681 971 671 c 2,276,-1
 971 664 l 2,277,278
 971 655 971 655 976 650 c 0,279,280
 998 628 998 628 1007.5 608 c 128,-1,281
 1017 588 1017 588 1020.5 567.5 c 128,-1,282
 1024 547 1024 547 1026.5 525 c 128,-1,283
 1029 503 1029 503 1038 476 c 0,284,285
 1044 458 1044 458 1047.5 440 c 128,-1,286
 1051 422 1051 422 1051 404 c 0,0,1
478 1335 m 0,287,288
 478 1341 478 1341 473.5 1345.5 c 128,-1,289
 469 1350 469 1350 463 1350 c 0,290,291
 453 1350 453 1350 450.5 1338.5 c 128,-1,292
 448 1327 448 1327 448 1320 c 2,293,-1
 450 1324 l 2,294,295
 451 1323 451 1323 451 1321 c 0,296,297
 451 1320 451 1320 449 1320 c 1,298,299
 457 1320 457 1320 467.5 1322.5 c 128,-1,300
 478 1325 478 1325 478 1335 c 0,287,288
EndSplineSet
Validated: 1
Substitution2: "'sups' Superscript in Latin lookup 1 subtable" uni00B3
Substitution2: "'aalt' Access All Alternates in Latin lookup 0 subtable" uni00B3
EndChar

StartChar: four
Encoding: 52 52 23
Width: 1254
GlyphClass: 2
Flags: W
LayerCount: 2
Fore
SplineSet
1189 45 m 1,0,1
 1181 46 1181 46 1174 50.5 c 128,-1,2
 1167 55 1167 55 1159 55 c 0,3,4
 1154 55 1154 55 1151.5 52 c 128,-1,5
 1149 49 1149 49 1147 45 c 0,6,7
 1143 39 1143 39 1123.5 35 c 128,-1,8
 1104 31 1104 31 1080.5 29 c 128,-1,9
 1057 27 1057 27 1035.5 26.5 c 128,-1,10
 1014 26 1014 26 1005 26 c 0,11,12
 984 26 984 26 963 30 c 128,-1,13
 942 34 942 34 923 44 c 1,14,15
 910 36 910 36 890 36 c 0,16,17
 885 36 885 36 879.5 36.5 c 128,-1,18
 874 37 874 37 869 37 c 0,19,20
 852 37 852 37 840.5 29 c 128,-1,21
 829 21 829 21 817 21 c 0,22,23
 808 21 808 21 800 24.5 c 128,-1,24
 792 28 792 28 785 32.5 c 128,-1,25
 778 37 778 37 771.5 41 c 128,-1,26
 765 45 765 45 759 45 c 256,27,28
 753 45 753 45 748.5 41 c 128,-1,29
 744 37 744 37 740.5 31 c 128,-1,30
 737 25 737 25 734.5 19 c 128,-1,31
 732 13 732 13 730 9 c 1,32,33
 726 17 726 17 717 18.5 c 128,-1,34
 708 20 708 20 698.5 20.5 c 128,-1,35
 689 21 689 21 681.5 23.5 c 128,-1,36
 674 26 674 26 673 37 c 1,37,-1
 665 37 l 2,38,39
 662 37 662 37 656 38.5 c 128,-1,40
 650 40 650 40 650 45 c 0,41,42
 650 56 650 56 655.5 64.5 c 128,-1,43
 661 73 661 73 661 83 c 0,44,45
 661 88 661 88 659 94 c 1,46,-1
 649 95 l 2,47,48
 636 95 636 95 628.5 88 c 128,-1,49
 621 81 621 81 615 71.5 c 128,-1,50
 609 62 609 62 603.5 52 c 128,-1,51
 598 42 598 42 588 37 c 1,52,53
 571 37 571 37 555 31.5 c 128,-1,54
 539 26 539 26 522 26 c 0,55,56
 511 26 511 26 499.5 30.5 c 128,-1,57
 488 35 488 35 478 42.5 c 128,-1,58
 468 50 468 50 462 60.5 c 128,-1,59
 456 71 456 71 456 83 c 0,60,61
 456 98 456 98 462.5 112 c 128,-1,62
 469 126 469 126 479 136 c 0,63,64
 501 158 501 158 528 164.5 c 128,-1,65
 555 171 555 171 583 172.5 c 128,-1,66
 611 174 611 174 637.5 177.5 c 128,-1,67
 664 181 664 181 684.5 198.5 c 128,-1,68
 705 216 705 216 717.5 253 c 128,-1,69
 730 290 730 290 730 360 c 2,70,-1
 730 394 l 1,71,72
 709 391 709 391 686 391 c 0,73,74
 633 391 633 391 581.5 400 c 128,-1,75
 530 409 530 409 476 409 c 0,76,77
 448 409 448 409 421 402 c 128,-1,78
 394 395 394 395 366 395 c 256,79,80
 338 395 338 395 310.5 399.5 c 128,-1,81
 283 404 283 404 255 404 c 0,82,83
 241 404 241 404 228 400.5 c 128,-1,84
 215 397 215 397 203 392.5 c 128,-1,85
 191 388 191 388 181 384.5 c 128,-1,86
 171 381 171 381 164 381 c 0,87,88
 149 381 149 381 130.5 383 c 128,-1,89
 112 385 112 385 95.5 391 c 128,-1,90
 79 397 79 397 66.5 408 c 128,-1,91
 54 419 54 419 50 438 c 0,92,93
 46 455 46 455 39 473 c 128,-1,94
 32 491 32 491 32 509 c 0,95,96
 32 513 32 513 36 521.5 c 128,-1,97
 40 530 40 530 44.5 542 c 128,-1,98
 49 554 49 554 53 568.5 c 128,-1,99
 57 583 57 583 57 598 c 0,100,101
 57 608 57 608 61.5 621.5 c 128,-1,102
 66 635 66 635 73 648.5 c 128,-1,103
 80 662 80 662 88 674 c 128,-1,104
 96 686 96 686 103 693 c 0,105,106
 109 699 109 699 116 702 c 128,-1,107
 123 705 123 705 131 707.5 c 128,-1,108
 139 710 139 710 146.5 712.5 c 128,-1,109
 154 715 154 715 160 721 c 0,110,111
 168 728 168 728 173.5 737.5 c 128,-1,112
 179 747 179 747 184.5 756.5 c 128,-1,113
 190 766 190 766 196 775 c 128,-1,114
 202 784 202 784 211 790 c 0,115,116
 217 795 217 795 226.5 800.5 c 128,-1,117
 236 806 236 806 236 815 c 0,118,119
 236 823 236 823 233 831 c 128,-1,120
 230 839 230 839 230 847 c 0,121,122
 230 852 230 852 230 855.5 c 128,-1,123
 230 859 230 859 231 864 c 1,124,125
 253 870 253 870 268 882 c 128,-1,126
 283 894 283 894 294.5 909 c 128,-1,127
 306 924 306 924 315.5 941.5 c 128,-1,128
 325 959 325 959 337 976 c 0,129,130
 359 1010 359 1010 387.5 1038 c 128,-1,131
 416 1066 416 1066 446 1092 c 0,132,133
 464 1107 464 1107 474.5 1126 c 128,-1,134
 485 1145 485 1145 496 1163 c 128,-1,135
 507 1181 507 1181 521 1196.5 c 128,-1,136
 535 1212 535 1212 559 1220 c 1,137,138
 555 1230 555 1230 555 1237 c 0,139,140
 555 1252 555 1252 565 1262 c 128,-1,141
 575 1272 575 1272 586 1281 c 0,142,143
 605 1297 605 1297 615.5 1311 c 128,-1,144
 626 1325 626 1325 636.5 1338.5 c 128,-1,145
 647 1352 647 1352 661 1365 c 128,-1,146
 675 1378 675 1378 701 1391 c 0,147,148
 719 1400 719 1400 722 1410 c 128,-1,149
 725 1420 725 1420 726.5 1428.5 c 128,-1,150
 728 1437 728 1437 734 1442.5 c 128,-1,151
 740 1448 740 1448 763 1448 c 0,152,153
 787 1448 787 1448 809.5 1441.5 c 128,-1,154
 832 1435 832 1435 849 1422.5 c 128,-1,155
 866 1410 866 1410 876.5 1390.5 c 128,-1,156
 887 1371 887 1371 887 1345 c 0,157,158
 887 1322 887 1322 881 1299.5 c 128,-1,159
 875 1277 875 1277 875 1254 c 0,160,161
 875 1237 875 1237 879.5 1220 c 128,-1,162
 884 1203 884 1203 884 1186 c 0,163,164
 884 1154 884 1154 858 1135 c 1,165,166
 863 1129 863 1129 870.5 1101.5 c 128,-1,167
 878 1074 878 1074 885 1042 c 128,-1,168
 892 1010 892 1010 897 980.5 c 128,-1,169
 902 951 902 951 902 942 c 0,170,171
 902 924 902 924 894.5 907.5 c 128,-1,172
 887 891 887 891 887 874 c 0,173,174
 887 855 887 855 892 837 c 128,-1,175
 897 819 897 819 897 800 c 0,176,177
 897 767 897 767 893 734.5 c 128,-1,178
 889 702 889 702 889 669 c 0,179,180
 889 654 889 654 889.5 638 c 128,-1,181
 890 622 890 622 894.5 607 c 128,-1,182
 899 592 899 592 908 580.5 c 128,-1,183
 917 569 917 569 934 564 c 0,184,185
 961 556 961 556 993.5 551.5 c 128,-1,186
 1026 547 1026 547 1057.5 544 c 128,-1,187
 1089 541 1089 541 1117 537.5 c 128,-1,188
 1145 534 1145 534 1162 528 c 0,189,190
 1169 525 1169 525 1174 517.5 c 128,-1,191
 1179 510 1179 510 1182 500 c 128,-1,192
 1185 490 1185 490 1186 479.5 c 128,-1,193
 1187 469 1187 469 1187 462 c 2,194,-1
 1187 456 l 1,195,-1
 1186 436 l 1,196,197
 1178 438 1178 438 1172 438 c 0,198,199
 1160 438 1160 438 1151.5 434 c 128,-1,200
 1143 430 1143 430 1136 424.5 c 128,-1,201
 1129 419 1129 419 1124 414.5 c 128,-1,202
 1119 410 1119 410 1114 410 c 1,203,204
 1108 421 1108 421 1101.5 431.5 c 128,-1,205
 1095 442 1095 442 1087 451 c 1,206,207
 1076 445 1076 445 1074.5 434.5 c 128,-1,208
 1073 424 1073 424 1072.5 414 c 128,-1,209
 1072 404 1072 404 1068.5 397 c 128,-1,210
 1065 390 1065 390 1052 390 c 0,211,212
 1033 390 1033 390 1015 392.5 c 128,-1,213
 997 395 997 395 979 395 c 0,214,215
 932 395 932 395 908.5 374 c 128,-1,216
 885 353 885 353 885 305 c 0,217,218
 885 278 885 278 894.5 254 c 128,-1,219
 904 230 904 230 915 211.5 c 128,-1,220
 926 193 926 193 935 181 c 128,-1,221
 944 169 944 169 944 166 c 1,222,223
 957 174 957 174 976 174 c 0,224,225
 990 174 990 174 1002.5 171.5 c 128,-1,226
 1015 169 1015 169 1028 169 c 0,227,228
 1045 169 1045 169 1058 178 c 128,-1,229
 1071 187 1071 187 1079 187 c 0,230,231
 1096 187 1096 187 1112 181.5 c 128,-1,232
 1128 176 1128 176 1144 172 c 1,233,234
 1144 166 1144 166 1150 162 c 128,-1,235
 1156 158 1156 158 1163.5 153.5 c 128,-1,236
 1171 149 1171 149 1177.5 143.5 c 128,-1,237
 1184 138 1184 138 1184 128 c 0,238,239
 1184 120 1184 120 1183 113 c 128,-1,240
 1182 106 1182 106 1182 98 c 0,241,242
 1182 85 1182 85 1187.5 74 c 128,-1,243
 1193 63 1193 63 1194 50 c 1,244,-1
 1189 45 l 1,0,1
793 1106 m 256,245,246
 793 1112 793 1112 784.5 1123.5 c 128,-1,247
 776 1135 776 1135 772 1141 c 0,248,249
 764 1154 764 1154 759.5 1168 c 128,-1,250
 755 1182 755 1182 749 1193.5 c 128,-1,251
 743 1205 743 1205 732.5 1212.5 c 128,-1,252
 722 1220 722 1220 702 1220 c 1,253,-1
 704 1209 l 1,254,255
 684 1197 684 1197 670 1179.5 c 128,-1,256
 656 1162 656 1162 644 1145 c 128,-1,257
 632 1128 632 1128 619 1113 c 128,-1,258
 606 1098 606 1098 588 1092 c 1,259,-1
 588 1083 l 2,260,261
 588 1064 588 1064 581.5 1049 c 128,-1,262
 575 1034 575 1034 564 1021.5 c 128,-1,263
 553 1009 553 1009 539 998.5 c 128,-1,264
 525 988 525 988 511 979 c 0,265,266
 499 971 499 971 492.5 961 c 128,-1,267
 486 951 486 951 480.5 941 c 128,-1,268
 475 931 475 931 469 922 c 128,-1,269
 463 913 463 913 451 907 c 0,270,271
 438 900 438 900 434 895.5 c 128,-1,272
 430 891 430 891 429 886 c 128,-1,273
 428 881 428 881 427.5 874.5 c 128,-1,274
 427 868 427 868 423 858 c 0,275,276
 416 844 416 844 407 830.5 c 128,-1,277
 398 817 398 817 392 803 c 0,278,279
 384 786 384 786 374.5 774 c 128,-1,280
 365 762 365 762 353.5 752 c 128,-1,281
 342 742 342 742 330.5 732 c 128,-1,282
 319 722 319 722 309 708 c 0,283,284
 304 701 304 701 293 683 c 128,-1,285
 282 665 282 665 271 644 c 128,-1,286
 260 623 260 623 251.5 605 c 128,-1,287
 243 587 243 587 243 580 c 0,288,289
 243 570 243 570 250.5 564 c 128,-1,290
 258 558 258 558 270.5 554.5 c 128,-1,291
 283 551 283 551 298.5 549.5 c 128,-1,292
 314 548 314 548 331 548 c 0,293,294
 371 548 371 548 397 550 c 128,-1,295
 423 552 423 552 428 552 c 0,296,297
 448 552 448 552 468.5 548.5 c 128,-1,298
 489 545 489 545 502 529 c 0,299,300
 507 523 507 523 512.5 516 c 128,-1,301
 518 509 518 509 527 509 c 0,302,303
 533 509 533 509 537 512.5 c 128,-1,304
 541 516 541 516 548.5 519.5 c 128,-1,305
 556 523 556 523 569.5 526.5 c 128,-1,306
 583 530 583 530 608 530 c 0,307,308
 615 530 615 530 629.5 534.5 c 128,-1,309
 644 539 644 539 659.5 545 c 128,-1,310
 675 551 675 551 690.5 557 c 128,-1,311
 706 563 706 563 716 565 c 1,312,313
 732 617 732 617 748.5 669.5 c 128,-1,314
 765 722 765 722 765 778 c 0,315,316
 765 803 765 803 761.5 827.5 c 128,-1,317
 758 852 758 852 758 878 c 0,318,319
 758 892 758 892 761.5 905.5 c 128,-1,320
 765 919 765 919 768.5 932.5 c 128,-1,321
 772 946 772 946 775.5 959.5 c 128,-1,322
 779 973 779 973 779 987 c 256,323,324
 779 1001 779 1001 774 1014 c 128,-1,325
 769 1027 769 1027 769 1041 c 0,326,327
 769 1050 769 1050 772.5 1059.5 c 128,-1,328
 776 1069 776 1069 780.5 1077.5 c 128,-1,329
 785 1086 785 1086 789 1093 c 128,-1,330
 793 1100 793 1100 793 1106 c 256,245,246
848 283 m 1,331,332
 843 291 843 291 834 294 c 128,-1,333
 825 297 825 297 816 297 c 1,334,-1
 805 291 l 1,335,336
 806 284 806 284 811 278 c 128,-1,337
 816 272 816 272 816 265 c 1,338,339
 824 265 824 265 836 269 c 128,-1,340
 848 273 848 273 848 283 c 1,331,332
332 765 m 0,341,342
 332 771 332 771 327.5 775.5 c 128,-1,343
 323 780 323 780 318 780 c 0,344,345
 307 780 307 780 305 769 c 128,-1,346
 303 758 303 758 303 750 c 1,347,348
 310 750 310 750 321 752 c 128,-1,349
 332 754 332 754 332 765 c 0,341,342
EndSplineSet
Validated: 1
EndChar

StartChar: five
Encoding: 53 53 24
Width: 1101
GlyphClass: 2
Flags: W
LayerCount: 2
Fore
SplineSet
1033 562 m 0,0,1
 1033 548 1033 548 1025.5 535.5 c 128,-1,2
 1018 523 1018 523 1018 509 c 0,3,4
 1018 500 1018 500 1021 492.5 c 128,-1,5
 1024 485 1024 485 1024 475 c 0,6,7
 1024 466 1024 466 1021.5 454.5 c 128,-1,8
 1019 443 1019 443 1014 433 c 128,-1,9
 1009 423 1009 423 1001.5 416 c 128,-1,10
 994 409 994 409 983 409 c 0,11,12
 978 409 978 409 975 410 c 2,13,-1
 974 403 l 2,14,15
 974 393 974 393 979 389.5 c 128,-1,16
 984 386 984 386 990 384.5 c 128,-1,17
 996 383 996 383 1001 380.5 c 128,-1,18
 1006 378 1006 378 1006 371 c 0,19,20
 1006 363 1006 363 1001 359.5 c 128,-1,21
 996 356 996 356 990 353 c 128,-1,22
 984 350 984 350 979 345.5 c 128,-1,23
 974 341 974 341 974 331 c 0,24,25
 974 319 974 319 976.5 308 c 128,-1,26
 979 297 979 297 979 286 c 0,27,28
 979 279 979 279 977 272.5 c 128,-1,29
 975 266 975 266 967 264 c 1,30,-1
 936 220 l 2,31,32
 928 208 928 208 918 204.5 c 128,-1,33
 908 201 908 201 899.5 199 c 128,-1,34
 891 197 891 197 885 193.5 c 128,-1,35
 879 190 879 190 879 179 c 0,36,37
 877 154 877 154 867 137 c 128,-1,38
 857 120 857 120 841 109.5 c 128,-1,39
 825 99 825 99 804.5 94 c 128,-1,40
 784 89 784 89 761 89 c 0,41,42
 740 89 740 89 719 97 c 1,43,44
 714 92 714 92 714 85 c 0,45,46
 714 76 714 76 727 72.5 c 128,-1,47
 740 69 740 69 747 68 c 1,48,49
 746 55 746 55 738.5 47 c 128,-1,50
 731 39 731 39 720 34.5 c 128,-1,51
 709 30 709 30 695 28.5 c 128,-1,52
 681 27 681 27 667 27 c 0,53,54
 649 27 649 27 633.5 28.5 c 128,-1,55
 618 30 618 30 607 30 c 256,56,57
 596 30 596 30 588 25.5 c 128,-1,58
 580 21 580 21 572.5 15.5 c 128,-1,59
 565 10 565 10 558 5 c 128,-1,60
 551 0 551 0 543 0 c 2,61,-1
 535 4 l 2,62,63
 532 6 532 6 528.5 6.5 c 128,-1,64
 525 7 525 7 522 7 c 0,65,66
 508 7 508 7 494 4.5 c 128,-1,67
 480 2 480 2 466 2 c 0,68,69
 440 2 440 2 408 9 c 128,-1,70
 376 16 376 16 351 21 c 0,71,72
 337 24 337 24 330 31.5 c 128,-1,73
 323 39 323 39 317.5 48 c 128,-1,74
 312 57 312 57 305 65 c 128,-1,75
 298 73 298 73 285 76 c 0,76,77
 275 79 275 79 266.5 79.5 c 128,-1,78
 258 80 258 80 250.5 81 c 128,-1,79
 243 82 243 82 235.5 85 c 128,-1,80
 228 88 228 88 220 96 c 0,81,82
 209 107 209 107 202 120 c 128,-1,83
 195 133 195 133 188 146 c 128,-1,84
 181 159 181 159 172 170.5 c 128,-1,85
 163 182 163 182 148 189 c 0,86,87
 138 194 138 194 129.5 204 c 128,-1,88
 121 214 121 214 120 225 c 1,89,90
 130 240 130 240 134 253 c 1,91,92
 131 265 131 265 126 268.5 c 128,-1,93
 121 272 121 272 116 275.5 c 128,-1,94
 111 279 111 279 107 286.5 c 128,-1,95
 103 294 103 294 103 314 c 256,96,97
 103 334 103 334 100.5 353 c 128,-1,98
 98 372 98 372 98 392 c 0,99,100
 98 420 98 420 109.5 438.5 c 128,-1,101
 121 457 121 457 140 468 c 128,-1,102
 159 479 159 479 182.5 484 c 128,-1,103
 206 489 206 489 230 489 c 0,104,105
 250 489 250 489 273.5 485 c 128,-1,106
 297 481 297 481 317.5 471 c 128,-1,107
 338 461 338 461 351.5 444 c 128,-1,108
 365 427 365 427 365 402 c 0,109,110
 365 367 365 367 356 334 c 128,-1,111
 347 301 347 301 347 266 c 0,112,113
 347 252 347 252 352 239.5 c 128,-1,114
 357 227 357 227 362.5 214.5 c 128,-1,115
 368 202 368 202 373 189.5 c 128,-1,116
 378 177 378 177 378 164 c 0,117,118
 378 162 378 162 377.5 159 c 128,-1,119
 377 156 377 156 377 154 c 1,120,121
 397 155 397 155 416 157 c 128,-1,122
 435 159 435 159 455 159 c 0,123,124
 481 159 481 159 504 149.5 c 128,-1,125
 527 140 527 140 550 140 c 0,126,127
 566 140 566 140 581.5 144.5 c 128,-1,128
 597 149 597 149 612 154 c 128,-1,129
 627 159 627 159 642.5 163.5 c 128,-1,130
 658 168 658 168 675 168 c 0,131,132
 693 168 693 168 705 175.5 c 128,-1,133
 717 183 717 183 726.5 193.5 c 128,-1,134
 736 204 736 204 746 215.5 c 128,-1,135
 756 227 756 227 771 234 c 0,136,137
 803 249 803 249 827 274 c 128,-1,138
 851 299 851 299 867.5 329.5 c 128,-1,139
 884 360 884 360 892 394 c 128,-1,140
 900 428 900 428 900 463 c 0,141,142
 900 504 900 504 887 546.5 c 128,-1,143
 874 589 874 589 851 629.5 c 128,-1,144
 828 670 828 670 796.5 705.5 c 128,-1,145
 765 741 765 741 727.5 767.5 c 128,-1,146
 690 794 690 794 648.5 809.5 c 128,-1,147
 607 825 607 825 565 825 c 0,148,149
 535 825 535 825 501.5 817 c 128,-1,150
 468 809 468 809 439 801 c 0,151,152
 424 797 424 797 411.5 787.5 c 128,-1,153
 399 778 399 778 387 768 c 128,-1,154
 375 758 375 758 362.5 749.5 c 128,-1,155
 350 741 350 741 334 738 c 1,156,157
 324 728 324 728 313 713.5 c 128,-1,158
 302 699 302 699 289.5 686 c 128,-1,159
 277 673 277 673 263 664 c 128,-1,160
 249 655 249 655 233 655 c 0,161,162
 213 655 213 655 200.5 673 c 128,-1,163
 188 691 188 691 181 720 c 128,-1,164
 174 749 174 749 171.5 785 c 128,-1,165
 169 821 169 821 169 856 c 0,166,167
 169 899 169 899 171 934.5 c 128,-1,168
 173 970 173 970 173 985 c 0,169,170
 173 1013 173 1013 171 1040.5 c 128,-1,171
 169 1068 169 1068 163 1094 c 1,172,-1
 169 1095 l 2,173,174
 180 1095 180 1095 187.5 1088 c 128,-1,175
 195 1081 195 1081 206 1080 c 1,176,-1
 206 1086 l 2,177,178
 206 1101 206 1101 199.5 1109.5 c 128,-1,179
 193 1118 193 1118 184.5 1124 c 128,-1,180
 176 1130 176 1130 169.5 1136.5 c 128,-1,181
 163 1143 163 1143 163 1155 c 0,182,183
 163 1173 163 1173 164 1199 c 128,-1,184
 165 1225 165 1225 167 1253.5 c 128,-1,185
 169 1282 169 1282 170.5 1309 c 128,-1,186
 172 1336 172 1336 174 1355 c 0,187,188
 176 1390 176 1390 199.5 1401 c 128,-1,189
 223 1412 223 1412 254 1412 c 0,190,191
 286 1412 286 1412 311 1406.5 c 128,-1,192
 336 1401 336 1401 355.5 1395 c 128,-1,193
 375 1389 375 1389 391.5 1383.5 c 128,-1,194
 408 1378 408 1378 424 1378 c 0,195,196
 438 1378 438 1378 452.5 1380 c 128,-1,197
 467 1382 467 1382 481 1382 c 0,198,199
 517 1382 517 1382 553.5 1372.5 c 128,-1,200
 590 1363 590 1363 628 1363 c 0,201,202
 651 1363 651 1363 672.5 1369 c 128,-1,203
 694 1375 694 1375 716 1382 c 128,-1,204
 738 1389 738 1389 760 1395 c 128,-1,205
 782 1401 782 1401 806 1401 c 0,206,207
 829 1401 829 1401 847 1394 c 1,208,209
 868 1392 868 1392 875.5 1385.5 c 128,-1,210
 883 1379 883 1379 884 1371.5 c 128,-1,211
 885 1364 885 1364 882.5 1357 c 128,-1,212
 880 1350 880 1350 880 1347 c 0,213,214
 880 1341 880 1341 867 1331.5 c 128,-1,215
 854 1322 854 1322 837.5 1312.5 c 128,-1,216
 821 1303 821 1303 805.5 1294.5 c 128,-1,217
 790 1286 790 1286 784 1283 c 0,218,219
 763 1260 763 1260 732.5 1252.5 c 128,-1,220
 702 1245 702 1245 672 1245 c 0,221,222
 657 1245 657 1245 626 1247.5 c 128,-1,223
 595 1250 595 1250 556.5 1254 c 128,-1,224
 518 1258 518 1258 476 1263 c 128,-1,225
 434 1268 434 1268 396.5 1273.5 c 128,-1,226
 359 1279 359 1279 330.5 1284.5 c 128,-1,227
 302 1290 302 1290 291 1294 c 0,228,229
 289 1292 289 1292 289 1290 c 128,-1,230
 289 1288 289 1288 289 1286 c 0,231,232
 289 1251 289 1251 297.5 1215.5 c 128,-1,233
 306 1180 306 1180 306 1145 c 1,234,-1
 305 1137 l 1,235,236
 291 1137 291 1137 279.5 1144.5 c 128,-1,237
 268 1152 268 1152 254 1152 c 2,238,-1
 248 1151 l 1,239,-1
 247 1140 l 2,240,241
 247 1126 247 1126 251.5 1116 c 128,-1,242
 256 1106 256 1106 263.5 1099 c 128,-1,243
 271 1092 271 1092 281 1086.5 c 128,-1,244
 291 1081 291 1081 302 1075 c 256,245,246
 313 1069 313 1069 320 1047 c 128,-1,247
 327 1025 327 1025 331.5 998.5 c 128,-1,248
 336 972 336 972 339.5 947 c 128,-1,249
 343 922 343 922 348 909 c 1,250,251
 361 915 361 915 387 922 c 128,-1,252
 413 929 413 929 441.5 935.5 c 128,-1,253
 470 942 470 942 496 946.5 c 128,-1,254
 522 951 522 951 536 951 c 0,255,256
 572 951 572 951 606.5 942.5 c 128,-1,257
 641 934 641 934 677 934 c 0,258,259
 717 934 717 934 749 914 c 128,-1,260
 781 894 781 894 812 873 c 0,261,262
 818 868 818 868 825.5 852 c 128,-1,263
 833 836 833 836 840.5 818 c 128,-1,264
 848 800 848 800 856.5 786 c 128,-1,265
 865 772 865 772 874 772 c 0,266,267
 882 772 882 772 890.5 775.5 c 128,-1,268
 899 779 899 779 908 779 c 0,269,270
 933 779 933 779 949.5 761.5 c 128,-1,271
 966 744 966 744 977 719.5 c 128,-1,272
 988 695 988 695 994 668.5 c 128,-1,273
 1000 642 1000 642 1004 624 c 0,274,275
 1006 615 1006 615 1010.5 608 c 128,-1,276
 1015 601 1015 601 1020 593.5 c 128,-1,277
 1025 586 1025 586 1029 578.5 c 128,-1,278
 1033 571 1033 571 1033 562 c 0,0,1
822 152 m 0,279,280
 822 163 822 163 811 167 c 128,-1,281
 800 171 800 171 791 171 c 0,282,283
 783 171 783 171 772 168 c 128,-1,284
 761 165 761 165 761 156 c 2,285,-1
 761 154 l 1,286,-1
 771 154 l 2,287,288
 783 154 783 154 796 151 c 128,-1,289
 809 148 809 148 818 139 c 1,290,291
 822 144 822 144 822 152 c 0,279,280
EndSplineSet
Validated: 1
EndChar

StartChar: six
Encoding: 54 54 25
Width: 1205
GlyphClass: 2
Flags: W
LayerCount: 2
Fore
SplineSet
1122 462 m 1,0,1
 1110 433 1110 433 1103 402.5 c 128,-1,2
 1096 372 1096 372 1090.5 341 c 128,-1,3
 1085 310 1085 310 1079.5 279.5 c 128,-1,4
 1074 249 1074 249 1065 219 c 1,5,6
 1035 205 1035 205 1010 177.5 c 128,-1,7
 985 150 985 150 960 122.5 c 128,-1,8
 935 95 935 95 908.5 73 c 128,-1,9
 882 51 882 51 849 49 c 0,10,11
 815 46 815 46 785.5 35 c 128,-1,12
 756 24 756 24 727 12 c 128,-1,13
 698 0 698 0 668.5 -9.5 c 128,-1,14
 639 -19 639 -19 606 -19 c 0,15,16
 594 -19 594 -19 569 -18 c 128,-1,17
 544 -17 544 -17 518.5 -13 c 128,-1,18
 493 -9 493 -9 471.5 -1 c 128,-1,19
 450 7 450 7 445 20 c 0,20,21
 440 32 440 32 430.5 35.5 c 128,-1,22
 421 39 421 39 410 40 c 128,-1,23
 399 41 399 41 387.5 41.5 c 128,-1,24
 376 42 376 42 367 48 c 0,25,26
 354 56 354 56 343.5 67.5 c 128,-1,27
 333 79 333 79 323 91 c 128,-1,28
 313 103 313 103 303 114.5 c 128,-1,29
 293 126 293 126 281 134 c 0,30,31
 268 142 268 142 252 147.5 c 128,-1,32
 236 153 236 153 224 162 c 0,33,34
 219 166 219 166 217.5 172.5 c 128,-1,35
 216 179 216 179 213.5 185.5 c 128,-1,36
 211 192 211 192 207.5 197.5 c 128,-1,37
 204 203 204 203 196 205 c 1,38,-1
 195 214 l 2,39,40
 195 235 195 235 204 254 c 128,-1,41
 213 273 213 273 213 294 c 0,42,43
 213 305 213 305 206.5 316 c 128,-1,44
 200 327 200 327 191 338 c 128,-1,45
 182 349 182 349 173 360 c 128,-1,46
 164 371 164 371 160 383 c 0,47,48
 152 402 152 402 146 425 c 128,-1,49
 140 448 140 448 124 462 c 0,50,51
 108 477 108 477 108 501 c 0,52,53
 108 515 108 515 110 528 c 128,-1,54
 112 541 112 541 112 555 c 0,55,56
 112 571 112 571 105.5 583.5 c 128,-1,57
 99 596 99 596 99 610 c 0,58,59
 99 620 99 620 107.5 625.5 c 128,-1,60
 116 631 116 631 124 633 c 1,61,62
 124 642 124 642 120 647 c 128,-1,63
 116 652 116 652 111.5 655 c 128,-1,64
 107 658 107 658 103.5 660 c 128,-1,65
 100 662 100 662 100 665 c 0,66,67
 105 675 105 675 114.5 684.5 c 128,-1,68
 124 694 124 694 124 704 c 0,69,70
 124 715 124 715 114.5 724 c 128,-1,71
 105 733 105 733 105 744 c 0,72,73
 105 747 105 747 107.5 747.5 c 128,-1,74
 110 748 110 748 113.5 748.5 c 128,-1,75
 117 749 117 749 120 751.5 c 128,-1,76
 123 754 123 754 124 761 c 0,77,78
 131 819 131 819 140.5 874 c 128,-1,79
 150 929 150 929 163 986 c 0,80,81
 165 998 165 998 166.5 1010.5 c 128,-1,82
 168 1023 168 1023 168 1036 c 0,83,84
 168 1042 168 1042 168 1048 c 128,-1,85
 168 1054 168 1054 167 1060 c 1,86,87
 184 1074 184 1074 201.5 1105 c 128,-1,88
 219 1136 219 1136 235.5 1167.5 c 128,-1,89
 252 1199 252 1199 267 1222.5 c 128,-1,90
 282 1246 282 1246 294 1246 c 0,91,92
 305 1246 305 1246 315.5 1243 c 128,-1,93
 326 1240 326 1240 337 1240 c 0,94,95
 340 1240 340 1240 350 1240.5 c 128,-1,96
 360 1241 360 1241 361 1246 c 0,97,98
 358 1251 358 1251 352 1254.5 c 128,-1,99
 346 1258 346 1258 340 1262 c 128,-1,100
 334 1266 334 1266 329.5 1270 c 128,-1,101
 325 1274 325 1274 325 1280 c 0,102,103
 325 1285 325 1285 329.5 1291 c 128,-1,104
 334 1297 334 1297 340.5 1303 c 128,-1,105
 347 1309 347 1309 353.5 1314 c 128,-1,106
 360 1319 360 1319 363 1322 c 0,107,108
 388 1343 388 1343 407 1355.5 c 128,-1,109
 426 1368 426 1368 444.5 1376.5 c 128,-1,110
 463 1385 463 1385 485 1390.5 c 128,-1,111
 507 1396 507 1396 538 1402 c 0,112,113
 547 1404 547 1404 548 1408.5 c 128,-1,114
 549 1413 549 1413 550.5 1417.5 c 128,-1,115
 552 1422 552 1422 557 1425.5 c 128,-1,116
 562 1429 562 1429 579 1429 c 256,117,118
 596 1429 596 1429 610 1437.5 c 128,-1,119
 624 1446 624 1446 641 1446 c 2,120,-1
 686 1446 l 2,121,122
 706 1446 706 1446 724.5 1445.5 c 128,-1,123
 743 1445 743 1445 755 1444 c 0,124,125
 770 1442 770 1442 783.5 1438 c 128,-1,126
 797 1434 797 1434 810 1429.5 c 128,-1,127
 823 1425 823 1425 836.5 1421.5 c 128,-1,128
 850 1418 850 1418 866 1418 c 0,129,130
 878 1418 878 1418 880 1413 c 128,-1,131
 882 1408 882 1408 883 1402 c 128,-1,132
 884 1396 884 1396 887 1391 c 128,-1,133
 890 1386 890 1386 904 1386 c 0,134,135
 910 1386 910 1386 915.5 1387.5 c 128,-1,136
 921 1389 921 1389 928 1389 c 256,137,138
 935 1389 935 1389 938.5 1384 c 128,-1,139
 942 1379 942 1379 944.5 1373.5 c 128,-1,140
 947 1368 947 1368 949 1363 c 128,-1,141
 951 1358 951 1358 954 1358 c 256,142,143
 957 1358 957 1358 961 1359.5 c 128,-1,144
 965 1361 965 1361 971 1361 c 0,145,146
 979 1361 979 1361 982 1356 c 128,-1,147
 985 1351 985 1351 986.5 1344 c 128,-1,148
 988 1337 988 1337 989 1329.5 c 128,-1,149
 990 1322 990 1322 994 1317 c 0,150,151
 1010 1298 1010 1298 1022 1285.5 c 128,-1,152
 1034 1273 1034 1273 1042.5 1259.5 c 128,-1,153
 1051 1246 1051 1246 1055 1228.5 c 128,-1,154
 1059 1211 1059 1211 1059 1182 c 0,155,156
 1059 1156 1059 1156 1052 1132.5 c 128,-1,157
 1045 1109 1045 1109 1033.5 1087 c 128,-1,158
 1022 1065 1022 1065 1008 1044 c 128,-1,159
 994 1023 994 1023 980 1003 c 1,160,161
 961 1013 961 1013 939 1013 c 0,162,163
 923 1013 923 1013 908 1010.5 c 128,-1,164
 893 1008 893 1008 878 1008 c 0,165,166
 856 1008 856 1008 837 1018 c 1,167,168
 830 1033 830 1033 821 1047.5 c 128,-1,169
 812 1062 812 1062 803.5 1077 c 128,-1,170
 795 1092 795 1092 789.5 1108 c 128,-1,171
 784 1124 784 1124 784 1141 c 0,172,173
 784 1155 784 1155 788 1168 c 128,-1,174
 792 1181 792 1181 797 1193.5 c 128,-1,175
 802 1206 802 1206 806 1219 c 128,-1,176
 810 1232 810 1232 810 1246 c 0,177,178
 810 1271 810 1271 784 1273 c 0,179,180
 757 1275 757 1275 730 1281 c 128,-1,181
 703 1287 703 1287 677 1287 c 0,182,183
 648 1287 648 1287 623 1274 c 1,184,185
 622 1299 622 1299 614 1307.5 c 128,-1,186
 606 1316 606 1316 595 1317.5 c 128,-1,187
 584 1319 584 1319 572.5 1318 c 128,-1,188
 561 1317 561 1317 552 1323 c 1,189,190
 554 1321 554 1321 558 1318 c 128,-1,191
 562 1315 562 1315 566.5 1311.5 c 128,-1,192
 571 1308 571 1308 574.5 1304.5 c 128,-1,193
 578 1301 578 1301 578 1298 c 0,194,195
 578 1293 578 1293 569 1292 c 128,-1,196
 560 1291 560 1291 549.5 1288.5 c 128,-1,197
 539 1286 539 1286 530 1280.5 c 128,-1,198
 521 1275 521 1275 521 1262 c 0,199,200
 521 1257 521 1257 521.5 1253.5 c 128,-1,201
 522 1250 522 1250 523 1246 c 1,202,203
 520 1247 520 1247 512 1247 c 0,204,205
 503 1247 503 1247 495.5 1244.5 c 128,-1,206
 488 1242 488 1242 480.5 1238.5 c 128,-1,207
 473 1235 473 1235 465.5 1232.5 c 128,-1,208
 458 1230 458 1230 448 1230 c 0,209,210
 441 1230 441 1230 438 1231 c 0,211,212
 429 1226 429 1226 426.5 1222 c 128,-1,213
 424 1218 424 1218 424 1213 c 256,214,215
 424 1208 424 1208 425 1202.5 c 128,-1,216
 426 1197 426 1197 426 1191 c 0,217,218
 426 1181 426 1181 421.5 1174.5 c 128,-1,219
 417 1168 417 1168 410 1163.5 c 128,-1,220
 403 1159 403 1159 395 1155 c 128,-1,221
 387 1151 387 1151 381 1146 c 0,222,223
 349 1120 349 1120 325.5 1082.5 c 128,-1,224
 302 1045 302 1045 285.5 1002 c 128,-1,225
 269 959 269 959 261 914.5 c 128,-1,226
 253 870 253 870 253 830 c 0,227,228
 253 809 253 809 261 800.5 c 128,-1,229
 269 792 269 792 281.5 788.5 c 128,-1,230
 294 785 294 785 309 783.5 c 128,-1,231
 324 782 324 782 338 775 c 1,232,233
 353 788 353 788 360.5 800 c 128,-1,234
 368 812 368 812 375 823.5 c 128,-1,235
 382 835 382 835 393 844.5 c 128,-1,236
 404 854 404 854 426 861 c 0,237,238
 476 878 476 878 530.5 889.5 c 128,-1,239
 585 901 585 901 638 901 c 0,240,241
 677 901 677 901 715.5 890 c 128,-1,242
 754 879 754 879 780 847 c 1,243,-1
 789 847 l 2,244,245
 807 847 807 847 833.5 838 c 128,-1,246
 860 829 860 829 887 815.5 c 128,-1,247
 914 802 914 802 937 785.5 c 128,-1,248
 960 769 960 769 970 754 c 0,249,250
 975 746 975 746 983 746 c 0,251,252
 988 746 988 746 992 747 c 128,-1,253
 996 748 996 748 1001 748 c 0,254,255
 1009 748 1009 748 1009 740 c 0,256,257
 1009 737 1009 737 1008.5 734 c 128,-1,258
 1008 731 1008 731 1008 729 c 0,259,260
 1008 713 1008 713 1021 701 c 128,-1,261
 1034 689 1034 689 1049 676 c 128,-1,262
 1064 663 1064 663 1077 648 c 128,-1,263
 1090 633 1090 633 1090 612 c 0,264,265
 1090 587 1090 587 1082 564 c 128,-1,266
 1074 541 1074 541 1074 517 c 0,267,268
 1074 494 1074 494 1088 481 c 128,-1,269
 1102 468 1102 468 1122 462 c 1,0,1
929 457 m 0,270,271
 929 483 929 483 921.5 514 c 128,-1,272
 914 545 914 545 900.5 574.5 c 128,-1,273
 887 604 887 604 868.5 629.5 c 128,-1,274
 850 655 850 655 829 671 c 0,275,276
 814 682 814 682 789 697.5 c 128,-1,277
 764 713 764 713 736 727.5 c 128,-1,278
 708 742 708 742 681.5 752 c 128,-1,279
 655 762 655 762 636 762 c 0,280,281
 622 762 622 762 607.5 757.5 c 128,-1,282
 593 753 593 753 578 753 c 0,283,284
 564 753 564 753 549.5 755.5 c 128,-1,285
 535 758 535 758 521 758 c 256,286,287
 507 758 507 758 496 752.5 c 128,-1,288
 485 747 485 747 481 732 c 1,289,-1
 381 732 l 1,290,291
 383 722 383 722 383 714 c 0,292,293
 383 691 383 691 365.5 667.5 c 128,-1,294
 348 644 348 644 327 615.5 c 128,-1,295
 306 587 306 587 288.5 553 c 128,-1,296
 271 519 271 519 271 477 c 0,297,298
 271 463 271 463 275 450.5 c 128,-1,299
 279 438 279 438 283.5 425 c 128,-1,300
 288 412 288 412 292 398.5 c 128,-1,301
 296 385 296 385 296 370 c 0,302,303
 296 348 296 348 297.5 341 c 128,-1,304
 299 334 299 334 303 332 c 128,-1,305
 307 330 307 330 314.5 328 c 128,-1,306
 322 326 322 326 334 314 c 0,307,308
 344 304 344 304 351 291.5 c 128,-1,309
 358 279 358 279 365.5 267 c 128,-1,310
 373 255 373 255 383 246 c 128,-1,311
 393 237 393 237 409 234 c 0,312,313
 412 233 412 233 421.5 226.5 c 128,-1,314
 431 220 431 220 442 211.5 c 128,-1,315
 453 203 453 203 463 195 c 128,-1,316
 473 187 473 187 477 184 c 0,317,318
 481 176 481 176 503.5 171 c 128,-1,319
 526 166 526 166 553.5 163 c 128,-1,320
 581 160 581 160 607 159 c 128,-1,321
 633 158 633 158 643 158 c 0,322,323
 684 158 684 158 705.5 166.5 c 128,-1,324
 727 175 727 175 742 188.5 c 128,-1,325
 757 202 757 202 772 218.5 c 128,-1,326
 787 235 787 235 815 251 c 0,327,328
 841 265 841 265 862 288 c 128,-1,329
 883 311 883 311 898 339 c 128,-1,330
 913 367 913 367 921 397.5 c 128,-1,331
 929 428 929 428 929 457 c 0,270,271
EndSplineSet
Validated: 1
EndChar

